G04 ================== begin FILE IDENTIFICATION RECORD ==================*
G04 Layout Name:  H:/WithRuler/HARDWARE/WITHRULER_V10A/PCB/WITHRULER_V10A.brd*
G04 Film Name:    ADT*
G04 File Format:  Gerber RS274X*
G04 File Origin:  Cadence Allegro 17.2-S045*
G04 Origin Date:  Tue Apr 09 16:34:01 2019*
G04 *
G04 Layer:  REF DES/SILKSCREEN_TOP*
G04 Layer:  PIN/TOP*
G04 Layer:  PACKAGE GEOMETRY/SILKSCREEN_TOP*
G04 Layer:  BOARD GEOMETRY/SILKSCREEN_TOP*
G04 Layer:  BOARD GEOMETRY/OUTLINE*
G04 *
G04 Offset:    (0.0000 0.0000)*
G04 Mirror:    No*
G04 Mode:      Positive*
G04 Rotation:  0*
G04 FullContactRelief:  No*
G04 UndefLineWidth:     0.1524*
G04 ================== end FILE IDENTIFICATION RECORD ====================*
%FSLAX55Y55*MOMM*%
%IR0*IPPOS*OFA0.00000B0.00000*MIA0B0*SFA1.00000B1.00000*%
%ADD32R,1.X.3*%
%ADD31R,.3X1.*%
%ADD44R,1.2X.3*%
%ADD24R,.6X1.*%
%ADD43R,1.2X.6*%
%ADD26R,1.4X.4*%
%ADD23R,1.1X.6*%
%ADD21R,1.6X.3*%
%ADD22R,1.5X.6*%
%ADD40C,.4*%
%ADD41C,.35*%
%ADD25R,2.032X.635*%
%ADD17R,.8X.8*%
%ADD42O,2.X1.2*%
%ADD19R,1.X1.2*%
%ADD45O,2.4X1.2*%
%ADD10R,2.2X1.1*%
%ADD29R,1.4X1.2*%
%ADD30R,1.X1.8*%
%ADD27R,1.8X2.*%
%ADD12R,1.X2.7*%
%ADD36R,2.4X2.4*%
%ADD13R,1.4X4.2*%
%ADD28R,1.6X1.5*%
%ADD15R,1.8X3.2*%
%ADD14R,2.X5.7*%
%ADD20R,1.4X2.8*%
%ADD16R,.5X.6*%
%ADD37R,1.6X2.7*%
%ADD18R,1.6X1.8*%
%ADD34R,.8X.25*%
%ADD11R,2.5X7.5*%
%ADD35R,.25X.8*%
%ADD33R,3.2X3.2*%
%ADD39R,4.2X4.2*%
%ADD38R,5.9X5.9*%
%ADD46C,.1*%
%ADD47C,.2*%
%ADD48C,.2032*%
%ADD49C,.127*%
%ADD50C,.254*%
%ADD51C,.1524*%
G75*
%LPD*%
G75*
G36*
G01X270000Y2790000D02*
G03I-30000J0D01*
G37*
G36*
G01X980000Y1058000D02*
X880000D01*
Y948000D01*
X980000D01*
Y1058000D01*
G37*
G36*
G01Y1318000D02*
X880000D01*
Y1208000D01*
X980000D01*
Y1318000D01*
G37*
G36*
G01Y1828000D02*
X880000D01*
Y1708000D01*
X980000D01*
Y1828000D01*
G37*
G36*
G01Y1568000D02*
X880000D01*
Y1458000D01*
X980000D01*
Y1568000D01*
G37*
G36*
G01Y2078000D02*
X880000D01*
Y1968000D01*
X980000D01*
Y2078000D01*
G37*
G36*
G01Y2338000D02*
X880000D01*
Y2228000D01*
X980000D01*
Y2338000D01*
G37*
G36*
G01Y2588000D02*
X880000D01*
Y2478000D01*
X980000D01*
Y2588000D01*
G37*
G36*
G01Y2848000D02*
X880000D01*
Y2728000D01*
X980000D01*
Y2848000D01*
G37*
G36*
G01X1950000Y1780000D02*
G03I-30000J0D01*
G37*
G36*
G01X2660000Y1070000D02*
X2560000D01*
Y960000D01*
X2660000D01*
Y1070000D01*
G37*
G36*
G01Y1330000D02*
X2560000D01*
Y1220000D01*
X2660000D01*
Y1330000D01*
G37*
G36*
G01Y1580000D02*
X2560000D01*
Y1470000D01*
X2660000D01*
Y1580000D01*
G37*
G36*
G01Y1840000D02*
X2560000D01*
Y1720000D01*
X2660000D01*
Y1840000D01*
G37*
G36*
G01X5876060Y1405000D02*
G03I-36060J0D01*
G37*
G36*
G01X5890000Y2050000D02*
G03I-30000J0D01*
G37*
G36*
G01X6046800Y2486600D02*
G03I-25400J0D01*
G37*
G36*
G01X7072470Y1995440D02*
G03I-52370J0D01*
G37*
G36*
G01X7110000Y2977500D02*
G03I-30000J0D01*
G37*
G36*
G01X8520000Y940000D02*
G03I-30000J0D01*
G37*
G36*
G01X8640000Y1730000D02*
G03I-30000J0D01*
G37*
G36*
G01Y2270000D02*
G03I-30000J0D01*
G37*
G36*
G01X9720000Y945000D02*
G03I-30000J0D01*
G37*
G36*
G01X9745000Y1885000D02*
G03I-30000J0D01*
G37*
G36*
G01X9620000Y2948150D02*
G03I-30000J0D01*
G37*
G36*
G01X10695000Y919340D02*
G03I-30000J0D01*
G37*
G36*
G01X10743280Y2080000D02*
G03I-28280J0D01*
G37*
G54D10*
X390000Y1011000D03*
Y1265000D03*
Y1519000D03*
Y1773000D03*
Y2027000D03*
Y2281000D03*
Y2535000D03*
Y2789000D03*
X1370000Y1011000D03*
Y1265000D03*
Y1773000D03*
Y1519000D03*
Y2281000D03*
Y2027000D03*
Y2535000D03*
Y2789000D03*
X2070000Y1019000D03*
Y1273000D03*
Y1527000D03*
Y1781000D03*
X3050000Y1019000D03*
Y1273000D03*
Y1781000D03*
Y1527000D03*
G54D11*
X2230000Y2620000D03*
X2890000D03*
G54D20*
X4891510Y2320000D03*
X5411510D03*
G54D12*
X3810000Y1150000D03*
X4070000D03*
G54D30*
X8615000Y2930000D03*
X8865000D03*
G54D21*
X5970000Y1015000D03*
Y1080000D03*
Y1145000D03*
Y1210000D03*
Y1275000D03*
Y1340000D03*
Y1405000D03*
X6530000D03*
Y1340000D03*
Y1275000D03*
Y1210000D03*
Y1145000D03*
Y1080000D03*
Y1015000D03*
G54D13*
X3745000Y1860000D03*
X4135000D03*
G54D40*
X11979970Y1299950D03*
X11899960D03*
X11979970Y1379960D03*
X11899960D03*
X11979970Y1459940D03*
X11899960D03*
X11979970Y1539960D03*
X11899960D03*
X11979970Y1619940D03*
X11899960D03*
X11979970Y1699950D03*
X11899960D03*
X11979970Y1779960D03*
X11899960D03*
X11979970Y1859940D03*
X11899960D03*
X11979970Y1939950D03*
X11899960D03*
X11979970Y2019940D03*
X11899960D03*
X11979970Y2099950D03*
X11899960D03*
X11979970Y2179960D03*
X11899960D03*
X11979970Y2259940D03*
X11899960D03*
X11979970Y2339950D03*
X11899960D03*
X11979970Y2419940D03*
X11899960D03*
X11979970Y2499950D03*
X11899960D03*
X12459950Y1299950D03*
X12379970D03*
X12059950D03*
X12459950Y1379960D03*
X12379970D03*
X12059950D03*
X12459950Y1459940D03*
X12379970D03*
X12059950D03*
X12459950Y1539960D03*
X12379970D03*
X12059950D03*
X12459950Y1619940D03*
X12379970D03*
X12059950D03*
X12459950Y1699950D03*
X12379970D03*
X12059950D03*
X12459950Y1779960D03*
X12379970D03*
X12059950D03*
X12459950Y1859940D03*
X12379970D03*
X12059950D03*
X12459950Y1939950D03*
X12379970D03*
X12059950D03*
X12459950Y2019940D03*
X12379970D03*
X12059950D03*
X12459950Y2099950D03*
X12379970D03*
X12059950D03*
X12459950Y2179960D03*
X12379970D03*
X12059950D03*
X12459950Y2259940D03*
X12379970D03*
X12059950D03*
X12459950Y2339950D03*
X12379970D03*
X12059950D03*
X12459950Y2419940D03*
X12379970D03*
X12059950D03*
X12459950Y2499950D03*
X12379970D03*
X12059950D03*
X12539960Y1299950D03*
Y1379960D03*
Y1459940D03*
Y1539960D03*
Y1619940D03*
Y1699950D03*
Y1779960D03*
Y1859940D03*
Y1939950D03*
Y2019940D03*
Y2099950D03*
Y2179960D03*
Y2259940D03*
Y2339950D03*
Y2419940D03*
Y2499950D03*
G54D22*
X5980000Y1669000D03*
Y1796000D03*
Y1923000D03*
Y2050000D03*
X6520000Y1796000D03*
Y1669000D03*
Y2050000D03*
Y1923000D03*
G54D31*
X9890000Y1040000D03*
X9840000D03*
X9790000D03*
X9740000D03*
X9690000D03*
Y1540000D03*
X9740000D03*
X9790000D03*
X9840000D03*
X9890000D03*
X9990000Y1040000D03*
X9940000D03*
Y1540000D03*
X9990000D03*
G54D50*
G01X880000Y946000D02*
Y1066000D01*
X980000D01*
Y948000D01*
G01X1030000Y1068000D02*
X730000D01*
Y948000D01*
X1030000D01*
Y1068000D01*
G01X580000Y2918000D02*
Y886000D01*
X1180000D01*
Y2918000D01*
X580000D01*
G01X880000Y1200000D02*
Y1320000D01*
X980000D01*
Y1208000D01*
G01X1030000Y1318000D02*
X730000D01*
Y1198000D01*
X1030000D01*
Y1318000D01*
G01X980000Y1828000D02*
X880000D01*
Y1708000D01*
G01Y1454000D02*
Y1574000D01*
X980000D01*
Y1458000D01*
G01X1030000Y1828000D02*
X730000D01*
Y1708000D01*
X1030000D01*
Y1828000D01*
X980000D01*
Y1708000D01*
G01X1030000Y1578000D02*
X730000D01*
Y1448000D01*
X1030000D01*
Y1578000D01*
G01X880000Y1966000D02*
Y2086000D01*
X980000D01*
Y1968000D01*
G01X880000Y2220000D02*
Y2340000D01*
X980000D01*
Y2228000D01*
G01X1030000Y2338000D02*
X730000D01*
Y2218000D01*
X1030000D01*
Y2338000D01*
G01Y2088000D02*
X730000D01*
Y1968000D01*
X1030000D01*
Y2088000D01*
G01X880000Y2474000D02*
Y2594000D01*
X980000D01*
Y2478000D01*
G01X1030000Y2598000D02*
X730000D01*
Y2468000D01*
X1030000D01*
Y2598000D01*
G01X980000Y2848000D02*
X880000D01*
Y2728000D01*
G01X1030000Y2848000D02*
X730000D01*
Y2728000D01*
X1030000D01*
Y2848000D01*
X980000D01*
Y2728000D01*
G01X2260000Y1910000D02*
Y890000D01*
X2860000D01*
Y1910000D01*
X2260000D01*
G01X3040000Y2270000D02*
Y2200000D01*
X2080000D01*
G01D02*
Y3040000D01*
X3040000D01*
Y2270000D01*
G01X2560000Y958000D02*
Y1078000D01*
X2660000D01*
Y960000D01*
G01X2710000Y1080000D02*
X2410000D01*
Y960000D01*
X2710000D01*
Y1080000D01*
G01X2560000Y1212000D02*
Y1332000D01*
X2660000D01*
Y1220000D01*
G01X2710000Y1330000D02*
X2410000D01*
Y1210000D01*
X2710000D01*
Y1330000D01*
G01X2560000Y1466000D02*
Y1586000D01*
X2660000D01*
Y1470000D01*
G01Y1840000D02*
X2560000D01*
Y1720000D01*
G01X2710000Y1590000D02*
X2410000D01*
Y1460000D01*
X2710000D01*
Y1590000D01*
G01Y1840000D02*
X2410000D01*
Y1720000D01*
X2710000D01*
Y1840000D01*
X2660000D01*
Y1720000D01*
G01X2560000Y2570000D02*
G03Y2470000I0J-50000D01*
G01Y2670000D02*
G03Y2570000I0J-50000D01*
G01Y2770000D02*
G03Y2670000I0J-50000D01*
G01Y2470000D02*
Y2340000D01*
G01Y2900000D02*
Y2770000D01*
G01X3930000Y1780000D02*
G02Y1700000I0J-40000D01*
G01Y1860000D02*
G02Y1780000I0J-40000D01*
G01X3660000Y2070000D02*
Y2120000D01*
X4220000D01*
Y1600000D01*
X3660000D01*
Y2070000D01*
G01X3930000Y2020000D02*
G02Y1940000I0J-40000D01*
G01D02*
G02Y1860000I0J-40000D01*
G01X3940000Y2650000D02*
G03Y2550000I0J-50000D01*
G01Y2750000D02*
G03Y2650000I0J-50000D01*
G01Y2550000D02*
Y2470000D01*
G01Y2850000D02*
G03Y2750000I0J-50000D01*
G01Y2930000D02*
Y2850000D01*
G01X4711510Y3038150D02*
X5591510D01*
Y2658150D01*
X4711510D01*
Y3038150D01*
G01X7401100Y1970040D02*
X7147100D01*
Y941340D01*
X7832900D01*
Y1970040D01*
X7578900D01*
G01X7401100D02*
G03X7578900I88900J-907D01*
G01X8549500Y3044300D02*
X8943200D01*
Y2815700D01*
X8536800D01*
Y3044300D01*
X8549500D01*
G54D14*
X3695000Y2700000D03*
X4185000D03*
G54D41*
X13300010Y1269990D03*
X13220000D03*
X13140010D03*
X13060000D03*
X12979990D03*
X13300010Y1350000D03*
X13220000D03*
X13140010D03*
X13060000D03*
X12979990D03*
X13300010Y1430010D03*
X13220000D03*
X13140010D03*
X13060000D03*
X12979990D03*
X13300010Y1510000D03*
X13220000D03*
X13140010D03*
X13060000D03*
X12979990D03*
X13300010Y1590010D03*
X13220000D03*
X13140010D03*
X13060000D03*
X12979990D03*
X13300010Y1669990D03*
X13220000D03*
X13140010D03*
X13060000D03*
X12979990D03*
X13300010Y1750000D03*
X13220000D03*
X13140010D03*
X13060000D03*
X12979990D03*
X13300010Y1830010D03*
X13220000D03*
X13140010D03*
X13060000D03*
X12979990D03*
X13300010Y1910000D03*
X13220000D03*
X13140010D03*
X13060000D03*
X12979990D03*
X13300010Y1990000D03*
X13220000D03*
X13140010D03*
X13060000D03*
X12979990D03*
X13300010Y2069990D03*
X13220000D03*
X13140010D03*
X13060000D03*
X12979990D03*
X13300010Y2150000D03*
X13220000D03*
X13140010D03*
X13060000D03*
X12979990D03*
X13300010Y2230010D03*
X13220000D03*
X13140010D03*
X13060000D03*
X12979990D03*
X13300010Y2309990D03*
X13220000D03*
X13140010D03*
X13060000D03*
X12979990D03*
X13300010Y2390000D03*
X13220000D03*
X13140010D03*
X13060000D03*
X12979990D03*
X13300010Y2469990D03*
X13220000D03*
X13140010D03*
X13060000D03*
X12979990D03*
X13300010Y2550000D03*
X13220000D03*
X13140010D03*
X13060000D03*
X12979990D03*
X13300010Y2630010D03*
X13220000D03*
X13140010D03*
X13060000D03*
X12979990D03*
X13700000Y1269990D03*
X13620000D03*
X13540010D03*
X13460000D03*
X13379990D03*
X13700000Y1350000D03*
X13620000D03*
X13540010D03*
X13460000D03*
X13379990D03*
X13700000Y1430010D03*
X13620000D03*
X13540010D03*
X13460000D03*
X13379990D03*
X13700000Y1510000D03*
X13620000D03*
X13540010D03*
X13460000D03*
X13379990D03*
X13700000Y1590010D03*
X13620000D03*
X13540010D03*
X13460000D03*
X13379990D03*
X13700000Y1669990D03*
X13620000D03*
X13540010D03*
X13460000D03*
X13379990D03*
X13700000Y1750000D03*
X13620000D03*
X13540010D03*
X13460000D03*
X13379990D03*
X13700000Y1830010D03*
X13620000D03*
X13540010D03*
X13460000D03*
X13379990D03*
X13700000Y1910000D03*
X13620000D03*
X13540010D03*
X13460000D03*
X13379990D03*
X13700000Y1990000D03*
X13620000D03*
X13540010D03*
X13460000D03*
X13379990D03*
X13700000Y2069990D03*
X13620000D03*
X13540010D03*
X13460000D03*
X13379990D03*
X13700000Y2150000D03*
X13620000D03*
X13540010D03*
X13460000D03*
X13379990D03*
X13700000Y2230010D03*
X13620000D03*
X13540010D03*
X13460000D03*
X13379990D03*
X13700000Y2309990D03*
X13620000D03*
X13540010D03*
X13460000D03*
X13379990D03*
X13700000Y2390000D03*
X13620000D03*
X13540010D03*
X13460000D03*
X13379990D03*
X13700000Y2469990D03*
X13620000D03*
X13540010D03*
X13460000D03*
X13379990D03*
X13700000Y2550000D03*
X13620000D03*
X13540010D03*
X13460000D03*
X13379990D03*
X13700000Y2630010D03*
X13620000D03*
X13540010D03*
X13460000D03*
X13379990D03*
X14100000Y1269990D03*
X14019990D03*
X13940010D03*
X13860000D03*
X13779990D03*
X14100000Y1350000D03*
X14019990D03*
X13940010D03*
X13860000D03*
X13779990D03*
X14100000Y1430010D03*
X14019990D03*
X13940010D03*
X13860000D03*
X13779990D03*
X14100000Y1510000D03*
X14019990D03*
X13940010D03*
X13860000D03*
X13779990D03*
X14100000Y1590010D03*
X14019990D03*
X13940010D03*
X13860000D03*
X13779990D03*
X14100000Y1669990D03*
X14019990D03*
X13940010D03*
X13860000D03*
X13779990D03*
X14100000Y1750000D03*
X14019990D03*
X13940010D03*
X13860000D03*
X13779990D03*
X14100000Y1830010D03*
X14019990D03*
X13940010D03*
X13860000D03*
X13779990D03*
X14100000Y1910000D03*
X14019990D03*
X13940010D03*
X13860000D03*
X13779990D03*
X14100000Y1990000D03*
X14019990D03*
X13940010D03*
X13860000D03*
X13779990D03*
X14100000Y2069990D03*
X14019990D03*
X13940010D03*
X13860000D03*
X13779990D03*
X14100000Y2150000D03*
X14019990D03*
X13940010D03*
X13860000D03*
X13779990D03*
X14100000Y2230010D03*
X14019990D03*
X13940010D03*
X13860000D03*
X13779990D03*
X14100000Y2309990D03*
X14019990D03*
X13940010D03*
X13860000D03*
X13779990D03*
X14100000Y2390000D03*
X14019990D03*
X13940010D03*
X13860000D03*
X13779990D03*
X14100000Y2469990D03*
X14019990D03*
X13940010D03*
X13860000D03*
X13779990D03*
X14100000Y2550000D03*
X14019990D03*
X13940010D03*
X13860000D03*
X13779990D03*
X14100000Y2630010D03*
X14019990D03*
X13940010D03*
X13860000D03*
X13779990D03*
X14340010Y1269990D03*
X14260000D03*
X14179990D03*
X14340010Y1350000D03*
X14260000D03*
X14179990D03*
X14340010Y1430010D03*
X14260000D03*
X14179990D03*
X14340010Y1510000D03*
X14260000D03*
X14179990D03*
X14340010Y1590010D03*
X14260000D03*
X14179990D03*
X14340010Y1669990D03*
X14260000D03*
X14179990D03*
X14340010Y1750000D03*
X14260000D03*
X14179990D03*
X14340010Y1830010D03*
X14260000D03*
X14179990D03*
X14340010Y1910000D03*
X14260000D03*
X14179990D03*
X14340010Y1990000D03*
X14260000D03*
X14179990D03*
X14340010Y2069990D03*
X14260000D03*
X14179990D03*
X14340010Y2150000D03*
X14260000D03*
X14179990D03*
X14340010Y2230010D03*
X14260000D03*
X14179990D03*
X14340010Y2309990D03*
X14260000D03*
X14179990D03*
X14340010Y2390000D03*
X14260000D03*
X14179990D03*
X14340010Y2469990D03*
X14260000D03*
X14179990D03*
X14340010Y2550000D03*
X14260000D03*
X14179990D03*
X14340010Y2630010D03*
X14260000D03*
X14179990D03*
G54D23*
X6120000Y2295000D03*
Y2390000D03*
Y2485000D03*
X6380000Y2295000D03*
Y2485000D03*
G54D32*
X9590000Y1140000D03*
Y1190000D03*
Y1240000D03*
Y1290000D03*
Y1340000D03*
Y1390000D03*
Y1440000D03*
X9685000Y2748150D03*
Y2798150D03*
Y2848150D03*
Y2898150D03*
Y2948150D03*
X10090000Y1390000D03*
Y1340000D03*
Y1290000D03*
Y1240000D03*
Y1190000D03*
Y1140000D03*
Y1440000D03*
X9995000Y2948150D03*
Y2898150D03*
Y2848150D03*
Y2798150D03*
Y2748150D03*
G54D51*
G01X179330Y483500D02*
X171330Y492670D01*
X162000Y498170D01*
X150000Y500000D01*
X138000Y496330D01*
X128670Y489000D01*
X122000Y476170D01*
X120670Y461500D01*
X123330Y446830D01*
X130000Y437670D01*
X139330Y430330D01*
X148670Y428500D01*
X158000Y430330D01*
X170000Y437670D01*
X166000Y390000D01*
X130000D01*
G01X140000Y3610000D02*
X129330Y3606330D01*
X121330Y3597170D01*
X116000Y3586170D01*
X112000Y3571500D01*
X110670Y3555000D01*
X112000Y3538500D01*
X116000Y3523830D01*
X121330Y3512830D01*
X129330Y3503670D01*
X140000Y3500000D01*
X150670Y3503670D01*
X158670Y3512830D01*
X164000Y3523830D01*
X168000Y3538500D01*
X169330Y3555000D01*
X168000Y3571500D01*
X164000Y3586170D01*
X158670Y3597170D01*
X150670Y3606330D01*
X140000Y3610000D01*
G01X270000Y500000D02*
Y390000D01*
X286000Y412000D01*
G01Y500000D02*
X254000D01*
G01X270000D02*
Y390000D01*
X286000Y412000D01*
G01Y500000D02*
X254000D01*
G01X590000Y2950000D02*
X597000Y2951500D01*
X605000Y2956000D01*
X610000Y2963500D01*
X612000Y2974000D01*
X610000Y2984500D01*
X604000Y2993500D01*
X595000Y2998000D01*
X585000D01*
X579000Y3001000D01*
X574000Y3008500D01*
X572000Y3019000D01*
X575000Y3029500D01*
X582000Y3037000D01*
X590000Y3040000D01*
X598000Y3037000D01*
X605000Y3029500D01*
X608000Y3019000D01*
X606000Y3008500D01*
X601000Y3001000D01*
X595000Y2998000D01*
X585000D01*
X576000Y2993500D01*
X570000Y2984500D01*
X568000Y2974000D01*
X570000Y2963500D01*
X575000Y2956000D01*
X583000Y2951500D01*
X590000Y2950000D01*
G01X647000Y2980000D02*
X673000D01*
G01X738000Y2998000D02*
X742000Y3002500D01*
X745000Y3010000D01*
X747000Y3020500D01*
X745000Y3029500D01*
X741000Y3035500D01*
X734000Y3040000D01*
X707000D01*
Y2950000D01*
X740000D01*
X747000Y2956000D01*
X751000Y2965000D01*
X753000Y2975500D01*
X751000Y2986000D01*
X745000Y2995000D01*
X738000Y2998000D01*
X707000D01*
G01X788000Y3040000D02*
X812000D01*
G01X800000D02*
Y2950000D01*
G01X788000D02*
X812000D01*
G01X870000Y3040000D02*
Y2950000D01*
G01X847000Y3040000D02*
X893000D01*
G01X913000Y1811000D02*
X920500Y1819000D01*
X925000Y1828000D01*
Y1836000D01*
X920500Y1844000D01*
X913000Y1850000D01*
X902500Y1853000D01*
X892000Y1851000D01*
X883000Y1846000D01*
X877000Y1837000D01*
X874000Y1825000D01*
X868000Y1818000D01*
X857500Y1815000D01*
X847000Y1817000D01*
X839500Y1822000D01*
X835000Y1829000D01*
Y1836000D01*
X838000Y1843000D01*
X845500Y1849000D01*
G01X835000Y1872000D02*
X925000Y1886000D01*
X835000Y1902000D01*
X925000Y1918000D01*
X835000Y1932000D01*
G01X925000Y1972000D02*
X835000D01*
X853000Y1960000D01*
G01X925000D02*
Y1984000D01*
G01X1270000Y500000D02*
Y390000D01*
X1286000Y412000D01*
G01Y500000D02*
X1254000D01*
G01X1270000D02*
Y390000D01*
X1286000Y412000D01*
G01Y500000D02*
X1254000D01*
G01X1134000D02*
Y390000D01*
X1183330Y468830D01*
X1116670D01*
G01X1140000Y3500000D02*
Y3610000D01*
X1124000Y3588000D01*
G01Y3500000D02*
X1156000D01*
G01X1710000Y3010000D02*
Y2920000D01*
X1750000D01*
G01X1800000D02*
X1807000Y2921500D01*
X1815000Y2926000D01*
X1820000Y2933500D01*
X1822000Y2944000D01*
X1820000Y2954500D01*
X1814000Y2963500D01*
X1805000Y2968000D01*
X1795000D01*
X1789000Y2971000D01*
X1784000Y2978500D01*
X1782000Y2989000D01*
X1785000Y2999500D01*
X1792000Y3007000D01*
X1800000Y3010000D01*
X1808000Y3007000D01*
X1815000Y2999500D01*
X1818000Y2989000D01*
X1816000Y2978500D01*
X1811000Y2971000D01*
X1805000Y2968000D01*
X1795000D01*
X1786000Y2963500D01*
X1780000Y2954500D01*
X1778000Y2944000D01*
X1780000Y2933500D01*
X1785000Y2926000D01*
X1793000Y2921500D01*
X1800000Y2920000D01*
G01X1870000Y3010000D02*
X1862000Y3007000D01*
X1856000Y2999500D01*
X1852000Y2990500D01*
X1849000Y2978500D01*
X1848000Y2965000D01*
X1849000Y2951500D01*
X1852000Y2939500D01*
X1856000Y2930500D01*
X1862000Y2923000D01*
X1870000Y2920000D01*
X1878000Y2923000D01*
X1884000Y2930500D01*
X1888000Y2939500D01*
X1891000Y2951500D01*
X1892000Y2965000D01*
X1891000Y2978500D01*
X1888000Y2990500D01*
X1884000Y2999500D01*
X1878000Y3007000D01*
X1870000Y3010000D01*
G01X1952000Y2920000D02*
Y3010000D01*
X1915000Y2945500D01*
X1965000D01*
G01X2010000Y3010000D02*
X2002000Y3007000D01*
X1996000Y2999500D01*
X1992000Y2990500D01*
X1989000Y2978500D01*
X1988000Y2965000D01*
X1989000Y2951500D01*
X1992000Y2939500D01*
X1996000Y2930500D01*
X2002000Y2923000D01*
X2010000Y2920000D01*
X2018000Y2923000D01*
X2024000Y2930500D01*
X2028000Y2939500D01*
X2031000Y2951500D01*
X2032000Y2965000D01*
X2031000Y2978500D01*
X2028000Y2990500D01*
X2024000Y2999500D01*
X2018000Y3007000D01*
X2010000Y3010000D01*
G01X2270000Y500000D02*
Y390000D01*
X2286000Y412000D01*
G01Y500000D02*
X2254000D01*
G01X2270000D02*
Y390000D01*
X2286000Y412000D01*
G01Y500000D02*
X2254000D01*
G01X2179330Y478000D02*
X2171330Y490840D01*
X2160670Y498170D01*
X2148670Y500000D01*
X2138000Y498170D01*
X2127330Y489000D01*
X2120670Y478000D01*
X2119330Y467000D01*
X2122000Y454170D01*
X2131330Y445000D01*
X2140670Y441330D01*
X2152670D01*
G01X2140670D02*
X2132670Y435830D01*
X2126000Y426670D01*
X2123330Y415670D01*
X2126000Y404670D01*
X2132670Y395500D01*
X2144670Y390000D01*
X2156670Y391830D01*
X2168670Y399170D01*
G01X2292000Y1950000D02*
Y2040000D01*
X2255000Y1975500D01*
X2305000D01*
G01X2337000Y1980000D02*
X2363000D01*
G01X2428000Y1998000D02*
X2432000Y2002500D01*
X2435000Y2010000D01*
X2437000Y2020500D01*
X2435000Y2029500D01*
X2431000Y2035500D01*
X2424000Y2040000D01*
X2397000D01*
Y1950000D01*
X2430000D01*
X2437000Y1956000D01*
X2441000Y1965000D01*
X2443000Y1975500D01*
X2441000Y1986000D01*
X2435000Y1995000D01*
X2428000Y1998000D01*
X2397000D01*
G01X2478000Y2040000D02*
X2502000D01*
G01X2490000D02*
Y1950000D01*
G01X2478000D02*
X2502000D01*
G01X2560000Y2040000D02*
Y1950000D01*
G01X2537000Y2040000D02*
X2583000D01*
G01X2114670Y3591670D02*
X2122670Y3602660D01*
X2132000Y3608170D01*
X2142670Y3610000D01*
X2156000Y3606330D01*
X2165330Y3597170D01*
X2168000Y3586170D01*
X2166670Y3575160D01*
X2161330Y3566000D01*
X2134670Y3547670D01*
X2122670Y3534830D01*
X2114670Y3516500D01*
X2112000Y3500000D01*
X2168000D01*
G01X2593000Y1309000D02*
X2600500Y1317000D01*
X2605000Y1326000D01*
Y1334000D01*
X2600500Y1342000D01*
X2593000Y1348000D01*
X2582500Y1351000D01*
X2572000Y1349000D01*
X2563000Y1344000D01*
X2557000Y1335000D01*
X2554000Y1323000D01*
X2548000Y1316000D01*
X2537500Y1313000D01*
X2527000Y1315000D01*
X2519500Y1320000D01*
X2515000Y1327000D01*
Y1334000D01*
X2518000Y1341000D01*
X2525500Y1347000D01*
G01X2515000Y1370000D02*
X2605000Y1384000D01*
X2515000Y1400000D01*
X2605000Y1416000D01*
X2515000Y1430000D01*
G01X2530000Y1451000D02*
X2521000Y1457000D01*
X2516500Y1464000D01*
X2515000Y1472000D01*
X2518000Y1482000D01*
X2525500Y1489000D01*
X2534500Y1491000D01*
X2543500Y1490000D01*
X2551000Y1486000D01*
X2566000Y1466000D01*
X2576500Y1457000D01*
X2591500Y1451000D01*
X2605000Y1449000D01*
Y1491000D01*
G01X2505000Y2665000D02*
Y2575000D01*
X2545000D01*
G01X2607000D02*
Y2665000D01*
X2570000Y2600500D01*
X2620000D01*
G01X3175330Y408330D02*
X3167330Y397340D01*
X3158000Y391830D01*
X3147330Y390000D01*
X3134000Y393670D01*
X3124670Y402830D01*
X3122000Y413830D01*
X3123330Y424840D01*
X3128670Y434000D01*
X3155330Y452330D01*
X3167330Y465170D01*
X3175330Y483500D01*
X3178000Y500000D01*
X3122000D01*
G01X3110670Y3522000D02*
X3118670Y3509160D01*
X3129330Y3501830D01*
X3141330Y3500000D01*
X3152000Y3501830D01*
X3162670Y3511000D01*
X3169330Y3522000D01*
X3170670Y3533000D01*
X3168000Y3545830D01*
X3158670Y3555000D01*
X3149330Y3558670D01*
X3137330D01*
G01X3149330D02*
X3157330Y3564170D01*
X3164000Y3573330D01*
X3166670Y3584330D01*
X3164000Y3595330D01*
X3157330Y3604500D01*
X3145330Y3610000D01*
X3133330Y3608170D01*
X3121330Y3600830D01*
G01X3270000Y500000D02*
Y390000D01*
X3286000Y412000D01*
G01Y500000D02*
X3254000D01*
G01X3270000D02*
Y390000D01*
X3286000Y412000D01*
G01Y500000D02*
X3254000D01*
G01X3380000Y1300000D02*
Y1210000D01*
X3420000D01*
G01X3448000Y1228000D02*
X3454000Y1217500D01*
X3462000Y1211500D01*
X3471000Y1210000D01*
X3479000Y1211500D01*
X3487000Y1219000D01*
X3492000Y1228000D01*
X3493000Y1237000D01*
X3491000Y1247500D01*
X3484000Y1255000D01*
X3477000Y1258000D01*
X3468000D01*
G01X3477000D02*
X3483000Y1262500D01*
X3488000Y1270000D01*
X3490000Y1279000D01*
X3488000Y1288000D01*
X3483000Y1295500D01*
X3474000Y1300000D01*
X3465000Y1298500D01*
X3456000Y1292500D01*
G01X3540000Y1300000D02*
X3532000Y1297000D01*
X3526000Y1289500D01*
X3522000Y1280500D01*
X3519000Y1268500D01*
X3518000Y1255000D01*
X3519000Y1241500D01*
X3522000Y1229500D01*
X3526000Y1220500D01*
X3532000Y1213000D01*
X3540000Y1210000D01*
X3548000Y1213000D01*
X3554000Y1220500D01*
X3558000Y1229500D01*
X3561000Y1241500D01*
X3562000Y1255000D01*
X3561000Y1268500D01*
X3558000Y1280500D01*
X3554000Y1289500D01*
X3548000Y1297000D01*
X3540000Y1300000D01*
G01X3610000Y1210000D02*
Y1300000D01*
X3598000Y1282000D01*
G01Y1210000D02*
X3622000D01*
G01X3658000Y1223500D02*
X3664000Y1216000D01*
X3671000Y1211500D01*
X3680000Y1210000D01*
X3689000Y1213000D01*
X3696000Y1219000D01*
X3701000Y1229500D01*
X3702000Y1241500D01*
X3700000Y1253500D01*
X3695000Y1261000D01*
X3688000Y1267000D01*
X3681000Y1268500D01*
X3674000Y1267000D01*
X3665000Y1261000D01*
X3668000Y1300000D01*
X3695000D01*
G01X3290000Y2110000D02*
Y2020000D01*
X3330000D01*
G01X3358000Y2033500D02*
X3364000Y2026000D01*
X3371000Y2021500D01*
X3380000Y2020000D01*
X3389000Y2023000D01*
X3396000Y2029000D01*
X3401000Y2039500D01*
X3402000Y2051500D01*
X3400000Y2063500D01*
X3395000Y2071000D01*
X3388000Y2077000D01*
X3381000Y2078500D01*
X3374000Y2077000D01*
X3365000Y2071000D01*
X3368000Y2110000D01*
X3395000D01*
G01X3450000D02*
X3442000Y2107000D01*
X3436000Y2099500D01*
X3432000Y2090500D01*
X3429000Y2078500D01*
X3428000Y2065000D01*
X3429000Y2051500D01*
X3432000Y2039500D01*
X3436000Y2030500D01*
X3442000Y2023000D01*
X3450000Y2020000D01*
X3458000Y2023000D01*
X3464000Y2030500D01*
X3468000Y2039500D01*
X3471000Y2051500D01*
X3472000Y2065000D01*
X3471000Y2078500D01*
X3468000Y2090500D01*
X3464000Y2099500D01*
X3458000Y2107000D01*
X3450000Y2110000D01*
G01X3501000Y2095000D02*
X3507000Y2104000D01*
X3514000Y2108500D01*
X3522000Y2110000D01*
X3532000Y2107000D01*
X3539000Y2099500D01*
X3541000Y2090500D01*
X3540000Y2081500D01*
X3536000Y2074000D01*
X3516000Y2059000D01*
X3507000Y2048500D01*
X3501000Y2033500D01*
X3499000Y2020000D01*
X3541000D01*
G01X3590000Y2110000D02*
X3582000Y2107000D01*
X3576000Y2099500D01*
X3572000Y2090500D01*
X3569000Y2078500D01*
X3568000Y2065000D01*
X3569000Y2051500D01*
X3572000Y2039500D01*
X3576000Y2030500D01*
X3582000Y2023000D01*
X3590000Y2020000D01*
X3598000Y2023000D01*
X3604000Y2030500D01*
X3608000Y2039500D01*
X3611000Y2051500D01*
X3612000Y2065000D01*
X3611000Y2078500D01*
X3608000Y2090500D01*
X3604000Y2099500D01*
X3598000Y2107000D01*
X3590000Y2110000D01*
G01X3190000Y3000000D02*
Y2910000D01*
X3230000D01*
G01X3261000Y2947500D02*
X3268000Y2958000D01*
X3274000Y2964000D01*
X3282000Y2967000D01*
X3289000Y2964000D01*
X3294000Y2958000D01*
X3298000Y2949000D01*
X3299000Y2938500D01*
X3298000Y2929500D01*
X3294000Y2920500D01*
X3288000Y2913000D01*
X3281000Y2910000D01*
X3273000Y2913000D01*
X3266000Y2922000D01*
X3262000Y2935500D01*
X3261000Y2950500D01*
X3263000Y2970000D01*
X3266000Y2980500D01*
X3271000Y2991000D01*
X3278000Y2998500D01*
X3285000Y3000000D01*
X3292000Y2997000D01*
X3297000Y2989500D01*
G01X3350000Y3000000D02*
X3342000Y2997000D01*
X3336000Y2989500D01*
X3332000Y2980500D01*
X3329000Y2968500D01*
X3328000Y2955000D01*
X3329000Y2941500D01*
X3332000Y2929500D01*
X3336000Y2920500D01*
X3342000Y2913000D01*
X3350000Y2910000D01*
X3358000Y2913000D01*
X3364000Y2920500D01*
X3368000Y2929500D01*
X3371000Y2941500D01*
X3372000Y2955000D01*
X3371000Y2968500D01*
X3368000Y2980500D01*
X3364000Y2989500D01*
X3358000Y2997000D01*
X3350000Y3000000D01*
G01X3432000Y2910000D02*
Y3000000D01*
X3395000Y2935500D01*
X3445000D01*
G01X3468000Y2923500D02*
X3474000Y2916000D01*
X3481000Y2911500D01*
X3490000Y2910000D01*
X3499000Y2913000D01*
X3506000Y2919000D01*
X3511000Y2929500D01*
X3512000Y2941500D01*
X3510000Y2953500D01*
X3505000Y2961000D01*
X3498000Y2967000D01*
X3491000Y2968500D01*
X3484000Y2967000D01*
X3475000Y2961000D01*
X3478000Y3000000D01*
X3505000D01*
G01X3885000Y1195000D02*
Y1105000D01*
X3925000D01*
G01X3975000D02*
Y1195000D01*
X3963000Y1177000D01*
G01Y1105000D02*
X3987000D01*
G01X3885000Y1905000D02*
Y1815000D01*
X3925000D01*
G01X3956000Y1890000D02*
X3962000Y1899000D01*
X3969000Y1903500D01*
X3977000Y1905000D01*
X3987000Y1902000D01*
X3994000Y1894500D01*
X3996000Y1885500D01*
X3995000Y1876500D01*
X3991000Y1869000D01*
X3971000Y1854000D01*
X3962000Y1843500D01*
X3956000Y1828500D01*
X3954000Y1815000D01*
X3996000D01*
G01X3885000Y2745000D02*
Y2655000D01*
X3925000D01*
G01X3953000Y2673000D02*
X3959000Y2662500D01*
X3967000Y2656500D01*
X3976000Y2655000D01*
X3984000Y2656500D01*
X3992000Y2664000D01*
X3997000Y2673000D01*
X3998000Y2682000D01*
X3996000Y2692500D01*
X3989000Y2700000D01*
X3982000Y2703000D01*
X3973000D01*
G01X3982000D02*
X3988000Y2707500D01*
X3993000Y2715000D01*
X3995000Y2724000D01*
X3993000Y2733000D01*
X3988000Y2740500D01*
X3979000Y2745000D01*
X3970000Y2743500D01*
X3961000Y2737500D01*
G01X4270000Y500000D02*
Y390000D01*
X4286000Y412000D01*
G01Y500000D02*
X4254000D01*
G01X4270000D02*
Y390000D01*
X4286000Y412000D01*
G01Y500000D02*
X4254000D01*
G01X4150000D02*
Y390000D01*
X4166000Y412000D01*
G01Y500000D02*
X4134000D01*
G01X4350000Y2810000D02*
Y2900000D01*
X4375000D01*
X4383000Y2895500D01*
X4388000Y2889500D01*
X4390000Y2877500D01*
X4388000Y2865500D01*
X4382000Y2858000D01*
X4375000Y2853500D01*
X4350000D01*
G01X4375000D02*
X4390000Y2810000D01*
G01X4421000Y2885000D02*
X4427000Y2894000D01*
X4434000Y2898500D01*
X4442000Y2900000D01*
X4452000Y2897000D01*
X4459000Y2889500D01*
X4461000Y2880500D01*
X4460000Y2871500D01*
X4456000Y2864000D01*
X4436000Y2849000D01*
X4427000Y2838500D01*
X4421000Y2823500D01*
X4419000Y2810000D01*
X4461000D01*
G01X4488000Y2823500D02*
X4494000Y2816000D01*
X4501000Y2811500D01*
X4510000Y2810000D01*
X4519000Y2813000D01*
X4526000Y2819000D01*
X4531000Y2829500D01*
X4532000Y2841500D01*
X4530000Y2853500D01*
X4525000Y2861000D01*
X4518000Y2867000D01*
X4511000Y2868500D01*
X4504000Y2867000D01*
X4495000Y2861000D01*
X4498000Y2900000D01*
X4525000D01*
G01X4580000Y2810000D02*
Y2900000D01*
X4568000Y2882000D01*
G01Y2810000D02*
X4592000D01*
G01X4631000Y2885000D02*
X4637000Y2894000D01*
X4644000Y2898500D01*
X4652000Y2900000D01*
X4662000Y2897000D01*
X4669000Y2889500D01*
X4671000Y2880500D01*
X4670000Y2871500D01*
X4666000Y2864000D01*
X4646000Y2849000D01*
X4637000Y2838500D01*
X4631000Y2823500D01*
X4629000Y2810000D01*
X4671000D01*
G01X4156000Y3500000D02*
Y3610000D01*
X4106670Y3531170D01*
X4173330D01*
G01X4690000Y960000D02*
Y1050000D01*
X4715000D01*
X4723000Y1045500D01*
X4728000Y1039500D01*
X4730000Y1027500D01*
X4728000Y1015500D01*
X4722000Y1008000D01*
X4715000Y1003500D01*
X4690000D01*
G01X4715000D02*
X4730000Y960000D01*
G01X4780000Y1050000D02*
X4772000Y1047000D01*
X4766000Y1039500D01*
X4762000Y1030500D01*
X4759000Y1018500D01*
X4758000Y1005000D01*
X4759000Y991500D01*
X4762000Y979500D01*
X4766000Y970500D01*
X4772000Y963000D01*
X4780000Y960000D01*
X4788000Y963000D01*
X4794000Y970500D01*
X4798000Y979500D01*
X4801000Y991500D01*
X4802000Y1005000D01*
X4801000Y1018500D01*
X4798000Y1030500D01*
X4794000Y1039500D01*
X4788000Y1047000D01*
X4780000Y1050000D01*
G01X4862000Y960000D02*
Y1050000D01*
X4825000Y985500D01*
X4875000D01*
G01X4920000Y1050000D02*
X4912000Y1047000D01*
X4906000Y1039500D01*
X4902000Y1030500D01*
X4899000Y1018500D01*
X4898000Y1005000D01*
X4899000Y991500D01*
X4902000Y979500D01*
X4906000Y970500D01*
X4912000Y963000D01*
X4920000Y960000D01*
X4928000Y963000D01*
X4934000Y970500D01*
X4938000Y979500D01*
X4941000Y991500D01*
X4942000Y1005000D01*
X4941000Y1018500D01*
X4938000Y1030500D01*
X4934000Y1039500D01*
X4928000Y1047000D01*
X4920000Y1050000D01*
G01X4971000Y1035000D02*
X4977000Y1044000D01*
X4984000Y1048500D01*
X4992000Y1050000D01*
X5002000Y1047000D01*
X5009000Y1039500D01*
X5011000Y1030500D01*
X5010000Y1021500D01*
X5006000Y1014000D01*
X4986000Y999000D01*
X4977000Y988500D01*
X4971000Y973500D01*
X4969000Y960000D01*
X5011000D01*
G01X4640000Y1200000D02*
Y1290000D01*
X4665000D01*
X4673000Y1285500D01*
X4678000Y1279500D01*
X4680000Y1267500D01*
X4678000Y1255500D01*
X4672000Y1248000D01*
X4665000Y1243500D01*
X4640000D01*
G01X4665000D02*
X4680000Y1200000D01*
G01X4730000Y1290000D02*
X4722000Y1287000D01*
X4716000Y1279500D01*
X4712000Y1270500D01*
X4709000Y1258500D01*
X4708000Y1245000D01*
X4709000Y1231500D01*
X4712000Y1219500D01*
X4716000Y1210500D01*
X4722000Y1203000D01*
X4730000Y1200000D01*
X4738000Y1203000D01*
X4744000Y1210500D01*
X4748000Y1219500D01*
X4751000Y1231500D01*
X4752000Y1245000D01*
X4751000Y1258500D01*
X4748000Y1270500D01*
X4744000Y1279500D01*
X4738000Y1287000D01*
X4730000Y1290000D01*
G01X4781000Y1237500D02*
X4788000Y1248000D01*
X4794000Y1254000D01*
X4802000Y1257000D01*
X4809000Y1254000D01*
X4814000Y1248000D01*
X4818000Y1239000D01*
X4819000Y1228500D01*
X4818000Y1219500D01*
X4814000Y1210500D01*
X4808000Y1203000D01*
X4801000Y1200000D01*
X4793000Y1203000D01*
X4786000Y1212000D01*
X4782000Y1225500D01*
X4781000Y1240500D01*
X4783000Y1260000D01*
X4786000Y1270500D01*
X4791000Y1281000D01*
X4798000Y1288500D01*
X4805000Y1290000D01*
X4812000Y1287000D01*
X4817000Y1279500D01*
G01X4870000Y1290000D02*
X4862000Y1287000D01*
X4856000Y1279500D01*
X4852000Y1270500D01*
X4849000Y1258500D01*
X4848000Y1245000D01*
X4849000Y1231500D01*
X4852000Y1219500D01*
X4856000Y1210500D01*
X4862000Y1203000D01*
X4870000Y1200000D01*
X4878000Y1203000D01*
X4884000Y1210500D01*
X4888000Y1219500D01*
X4891000Y1231500D01*
X4892000Y1245000D01*
X4891000Y1258500D01*
X4888000Y1270500D01*
X4884000Y1279500D01*
X4878000Y1287000D01*
X4870000Y1290000D01*
G01X4918000Y1218000D02*
X4924000Y1207500D01*
X4932000Y1201500D01*
X4941000Y1200000D01*
X4949000Y1201500D01*
X4957000Y1209000D01*
X4962000Y1218000D01*
X4963000Y1227000D01*
X4961000Y1237500D01*
X4954000Y1245000D01*
X4947000Y1248000D01*
X4938000D01*
G01X4947000D02*
X4953000Y1252500D01*
X4958000Y1260000D01*
X4960000Y1269000D01*
X4958000Y1278000D01*
X4953000Y1285500D01*
X4944000Y1290000D01*
X4935000Y1288500D01*
X4926000Y1282500D01*
G01X4550000Y1850000D02*
Y1940000D01*
X4575000D01*
X4583000Y1935500D01*
X4588000Y1929500D01*
X4590000Y1917500D01*
X4588000Y1905500D01*
X4582000Y1898000D01*
X4575000Y1893500D01*
X4550000D01*
G01X4575000D02*
X4590000Y1850000D01*
G01X4640000D02*
Y1940000D01*
X4628000Y1922000D01*
G01Y1850000D02*
X4652000D01*
G01X4691000Y1925000D02*
X4697000Y1934000D01*
X4704000Y1938500D01*
X4712000Y1940000D01*
X4722000Y1937000D01*
X4729000Y1929500D01*
X4731000Y1920500D01*
X4730000Y1911500D01*
X4726000Y1904000D01*
X4706000Y1889000D01*
X4697000Y1878500D01*
X4691000Y1863500D01*
X4689000Y1850000D01*
X4731000D01*
G01X4780000Y1940000D02*
X4772000Y1937000D01*
X4766000Y1929500D01*
X4762000Y1920500D01*
X4759000Y1908500D01*
X4758000Y1895000D01*
X4759000Y1881500D01*
X4762000Y1869500D01*
X4766000Y1860500D01*
X4772000Y1853000D01*
X4780000Y1850000D01*
X4788000Y1853000D01*
X4794000Y1860500D01*
X4798000Y1869500D01*
X4801000Y1881500D01*
X4802000Y1895000D01*
X4801000Y1908500D01*
X4798000Y1920500D01*
X4794000Y1929500D01*
X4788000Y1937000D01*
X4780000Y1940000D01*
G01X4831000Y1887500D02*
X4838000Y1898000D01*
X4844000Y1904000D01*
X4852000Y1907000D01*
X4859000Y1904000D01*
X4864000Y1898000D01*
X4868000Y1889000D01*
X4869000Y1878500D01*
X4868000Y1869500D01*
X4864000Y1860500D01*
X4858000Y1853000D01*
X4851000Y1850000D01*
X4843000Y1853000D01*
X4836000Y1862000D01*
X4832000Y1875500D01*
X4831000Y1890500D01*
X4833000Y1910000D01*
X4836000Y1920500D01*
X4841000Y1931000D01*
X4848000Y1938500D01*
X4855000Y1940000D01*
X4862000Y1937000D01*
X4867000Y1929500D01*
G01X4620000Y1500000D02*
Y1590000D01*
X4645000D01*
X4653000Y1585500D01*
X4658000Y1579500D01*
X4660000Y1567500D01*
X4658000Y1555500D01*
X4652000Y1548000D01*
X4645000Y1543500D01*
X4620000D01*
G01X4645000D02*
X4660000Y1500000D01*
G01X4710000Y1590000D02*
X4702000Y1587000D01*
X4696000Y1579500D01*
X4692000Y1570500D01*
X4689000Y1558500D01*
X4688000Y1545000D01*
X4689000Y1531500D01*
X4692000Y1519500D01*
X4696000Y1510500D01*
X4702000Y1503000D01*
X4710000Y1500000D01*
X4718000Y1503000D01*
X4724000Y1510500D01*
X4728000Y1519500D01*
X4731000Y1531500D01*
X4732000Y1545000D01*
X4731000Y1558500D01*
X4728000Y1570500D01*
X4724000Y1579500D01*
X4718000Y1587000D01*
X4710000Y1590000D01*
G01X4780000Y1500000D02*
X4787000Y1501500D01*
X4795000Y1506000D01*
X4800000Y1513500D01*
X4802000Y1524000D01*
X4800000Y1534500D01*
X4794000Y1543500D01*
X4785000Y1548000D01*
X4775000D01*
X4769000Y1551000D01*
X4764000Y1558500D01*
X4762000Y1569000D01*
X4765000Y1579500D01*
X4772000Y1587000D01*
X4780000Y1590000D01*
X4788000Y1587000D01*
X4795000Y1579500D01*
X4798000Y1569000D01*
X4796000Y1558500D01*
X4791000Y1551000D01*
X4785000Y1548000D01*
X4775000D01*
X4766000Y1543500D01*
X4760000Y1534500D01*
X4758000Y1524000D01*
X4760000Y1513500D01*
X4765000Y1506000D01*
X4773000Y1501500D01*
X4780000Y1500000D01*
G01X4850000Y1590000D02*
X4842000Y1587000D01*
X4836000Y1579500D01*
X4832000Y1570500D01*
X4829000Y1558500D01*
X4828000Y1545000D01*
X4829000Y1531500D01*
X4832000Y1519500D01*
X4836000Y1510500D01*
X4842000Y1503000D01*
X4850000Y1500000D01*
X4858000Y1503000D01*
X4864000Y1510500D01*
X4868000Y1519500D01*
X4871000Y1531500D01*
X4872000Y1545000D01*
X4871000Y1558500D01*
X4868000Y1570500D01*
X4864000Y1579500D01*
X4858000Y1587000D01*
X4850000Y1590000D01*
G01X4898000Y1513500D02*
X4904000Y1506000D01*
X4911000Y1501500D01*
X4920000Y1500000D01*
X4929000Y1503000D01*
X4936000Y1509000D01*
X4941000Y1519500D01*
X4942000Y1531500D01*
X4940000Y1543500D01*
X4935000Y1551000D01*
X4928000Y1557000D01*
X4921000Y1558500D01*
X4914000Y1557000D01*
X4905000Y1551000D01*
X4908000Y1590000D01*
X4935000D01*
G01X4440000Y2280000D02*
Y2370000D01*
X4465000D01*
X4473000Y2365500D01*
X4478000Y2359500D01*
X4480000Y2347500D01*
X4478000Y2335500D01*
X4472000Y2328000D01*
X4465000Y2323500D01*
X4440000D01*
G01X4465000D02*
X4480000Y2280000D01*
G01X4511000Y2355000D02*
X4517000Y2364000D01*
X4524000Y2368500D01*
X4532000Y2370000D01*
X4542000Y2367000D01*
X4549000Y2359500D01*
X4551000Y2350500D01*
X4550000Y2341500D01*
X4546000Y2334000D01*
X4526000Y2319000D01*
X4517000Y2308500D01*
X4511000Y2293500D01*
X4509000Y2280000D01*
X4551000D01*
G01X4600000Y2370000D02*
X4592000Y2367000D01*
X4586000Y2359500D01*
X4582000Y2350500D01*
X4579000Y2338500D01*
X4578000Y2325000D01*
X4579000Y2311500D01*
X4582000Y2299500D01*
X4586000Y2290500D01*
X4592000Y2283000D01*
X4600000Y2280000D01*
X4608000Y2283000D01*
X4614000Y2290500D01*
X4618000Y2299500D01*
X4621000Y2311500D01*
X4622000Y2325000D01*
X4621000Y2338500D01*
X4618000Y2350500D01*
X4614000Y2359500D01*
X4608000Y2367000D01*
X4600000Y2370000D01*
G01X4670000Y2280000D02*
Y2370000D01*
X4658000Y2352000D01*
G01Y2280000D02*
X4682000D01*
G01X4740000Y2370000D02*
X4732000Y2367000D01*
X4726000Y2359500D01*
X4722000Y2350500D01*
X4719000Y2338500D01*
X4718000Y2325000D01*
X4719000Y2311500D01*
X4722000Y2299500D01*
X4726000Y2290500D01*
X4732000Y2283000D01*
X4740000Y2280000D01*
X4748000Y2283000D01*
X4754000Y2290500D01*
X4758000Y2299500D01*
X4761000Y2311500D01*
X4762000Y2325000D01*
X4761000Y2338500D01*
X4758000Y2350500D01*
X4754000Y2359500D01*
X4748000Y2367000D01*
X4740000Y2370000D01*
G01X5270000Y500000D02*
Y390000D01*
X5286000Y412000D01*
G01Y500000D02*
X5254000D01*
G01X5270000D02*
Y390000D01*
X5286000Y412000D01*
G01Y500000D02*
X5254000D01*
G01X5150000Y390000D02*
X5160670Y393670D01*
X5168670Y402830D01*
X5174000Y413830D01*
X5178000Y428500D01*
X5179330Y445000D01*
X5178000Y461500D01*
X5174000Y476170D01*
X5168670Y487170D01*
X5160670Y496330D01*
X5150000Y500000D01*
X5139330Y496330D01*
X5131330Y487170D01*
X5126000Y476170D01*
X5122000Y461500D01*
X5120670Y445000D01*
X5122000Y428500D01*
X5126000Y413830D01*
X5131330Y402830D01*
X5139330Y393670D01*
X5150000Y390000D01*
G01X5096510Y955000D02*
Y1045000D01*
X5121510D01*
X5129510Y1040500D01*
X5134510Y1034500D01*
X5136510Y1022500D01*
X5134510Y1010500D01*
X5128510Y1003000D01*
X5121510Y998500D01*
X5096510D01*
G01X5121510D02*
X5136510Y955000D01*
G01X5186510D02*
Y1045000D01*
X5174510Y1027000D01*
G01Y955000D02*
X5198510D01*
G01X5096510Y1205000D02*
Y1295000D01*
X5121510D01*
X5129510Y1290500D01*
X5134510Y1284500D01*
X5136510Y1272500D01*
X5134510Y1260500D01*
X5128510Y1253000D01*
X5121510Y1248500D01*
X5096510D01*
G01X5121510D02*
X5136510Y1205000D01*
G01X5167510Y1280000D02*
X5173510Y1289000D01*
X5180510Y1293500D01*
X5188510Y1295000D01*
X5198510Y1292000D01*
X5205510Y1284500D01*
X5207510Y1275500D01*
X5206510Y1266500D01*
X5202510Y1259000D01*
X5182510Y1244000D01*
X5173510Y1233500D01*
X5167510Y1218500D01*
X5165510Y1205000D01*
X5207510D01*
G01X5096510Y1855000D02*
Y1945000D01*
X5121510D01*
X5129510Y1940500D01*
X5134510Y1934500D01*
X5136510Y1922500D01*
X5134510Y1910500D01*
X5128510Y1903000D01*
X5121510Y1898500D01*
X5096510D01*
G01X5121510D02*
X5136510Y1855000D01*
G01X5198510D02*
Y1945000D01*
X5161510Y1880500D01*
X5211510D01*
G01X5096510Y1505000D02*
Y1595000D01*
X5121510D01*
X5129510Y1590500D01*
X5134510Y1584500D01*
X5136510Y1572500D01*
X5134510Y1560500D01*
X5128510Y1553000D01*
X5121510Y1548500D01*
X5096510D01*
G01X5121510D02*
X5136510Y1505000D01*
G01X5164510Y1523000D02*
X5170510Y1512500D01*
X5178510Y1506500D01*
X5187510Y1505000D01*
X5195510Y1506500D01*
X5203510Y1514000D01*
X5208510Y1523000D01*
X5209510Y1532000D01*
X5207510Y1542500D01*
X5200510Y1550000D01*
X5193510Y1553000D01*
X5184510D01*
G01X5193510D02*
X5199510Y1557500D01*
X5204510Y1565000D01*
X5206510Y1574000D01*
X5204510Y1583000D01*
X5199510Y1590500D01*
X5190510Y1595000D01*
X5181510Y1593500D01*
X5172510Y1587500D01*
G01X5096510Y2275000D02*
Y2365000D01*
X5121510D01*
X5129510Y2360500D01*
X5134510Y2354500D01*
X5136510Y2342500D01*
X5134510Y2330500D01*
X5128510Y2323000D01*
X5121510Y2318500D01*
X5096510D01*
G01X5121510D02*
X5136510Y2275000D01*
G01X5164510Y2288500D02*
X5170510Y2281000D01*
X5177510Y2276500D01*
X5186510Y2275000D01*
X5195510Y2278000D01*
X5202510Y2284000D01*
X5207510Y2294500D01*
X5208510Y2306500D01*
X5206510Y2318500D01*
X5201510Y2326000D01*
X5194510Y2332000D01*
X5187510Y2333500D01*
X5180510Y2332000D01*
X5171510Y2326000D01*
X5174510Y2365000D01*
X5201510D01*
G01X5096510Y2803150D02*
Y2893150D01*
X5121510D01*
X5129510Y2888650D01*
X5134510Y2882650D01*
X5136510Y2870650D01*
X5134510Y2858650D01*
X5128510Y2851150D01*
X5121510Y2846650D01*
X5096510D01*
G01X5121510D02*
X5136510Y2803150D01*
G01X5167510Y2840650D02*
X5174510Y2851150D01*
X5180510Y2857150D01*
X5188510Y2860150D01*
X5195510Y2857150D01*
X5200510Y2851150D01*
X5204510Y2842150D01*
X5205510Y2831650D01*
X5204510Y2822650D01*
X5200510Y2813650D01*
X5194510Y2806150D01*
X5187510Y2803150D01*
X5179510Y2806150D01*
X5172510Y2815150D01*
X5168510Y2828650D01*
X5167510Y2843650D01*
X5169510Y2863150D01*
X5172510Y2873650D01*
X5177510Y2884150D01*
X5184510Y2891650D01*
X5191510Y2893150D01*
X5198510Y2890150D01*
X5203510Y2882650D01*
G01X5110670Y3516500D02*
X5118670Y3507330D01*
X5128000Y3501830D01*
X5140000Y3500000D01*
X5152000Y3503670D01*
X5161330Y3511000D01*
X5168000Y3523830D01*
X5169330Y3538500D01*
X5166670Y3553170D01*
X5160000Y3562330D01*
X5150670Y3569670D01*
X5141330Y3571500D01*
X5132000Y3569670D01*
X5120000Y3562330D01*
X5124000Y3610000D01*
X5160000D01*
G01X5379000Y1342000D02*
X5387000Y1334500D01*
X5396000Y1330000D01*
X5404000D01*
X5412000Y1334500D01*
X5418000Y1342000D01*
X5421000Y1352500D01*
X5419000Y1363000D01*
X5414000Y1372000D01*
X5405000Y1378000D01*
X5393000Y1381000D01*
X5386000Y1387000D01*
X5383000Y1397500D01*
X5385000Y1408000D01*
X5390000Y1415500D01*
X5397000Y1420000D01*
X5404000D01*
X5411000Y1417000D01*
X5417000Y1409500D01*
G01X5449000Y1342000D02*
X5457000Y1334500D01*
X5466000Y1330000D01*
X5474000D01*
X5482000Y1334500D01*
X5488000Y1342000D01*
X5491000Y1352500D01*
X5489000Y1363000D01*
X5484000Y1372000D01*
X5475000Y1378000D01*
X5463000Y1381000D01*
X5456000Y1387000D01*
X5453000Y1397500D01*
X5455000Y1408000D01*
X5460000Y1415500D01*
X5467000Y1420000D01*
X5474000D01*
X5481000Y1417000D01*
X5487000Y1409500D01*
G01X5540000Y1330000D02*
X5532000Y1331500D01*
X5525000Y1337500D01*
X5519000Y1346500D01*
X5515000Y1357000D01*
X5513000Y1369000D01*
Y1381000D01*
X5515000Y1393000D01*
X5519000Y1403500D01*
X5525000Y1412500D01*
X5532000Y1418500D01*
X5540000Y1420000D01*
X5548000Y1418500D01*
X5555000Y1412500D01*
X5561000Y1403500D01*
X5565000Y1393000D01*
X5567000Y1381000D01*
Y1369000D01*
X5565000Y1357000D01*
X5561000Y1346500D01*
X5555000Y1337500D01*
X5548000Y1331500D01*
X5540000Y1330000D01*
G01X5590000D02*
Y1420000D01*
X5614000D01*
X5622000Y1415500D01*
X5628000Y1405000D01*
X5630000Y1393000D01*
X5628000Y1381000D01*
X5623000Y1372000D01*
X5614000Y1367500D01*
X5590000D01*
G01X5680000Y1330000D02*
Y1420000D01*
X5668000Y1402000D01*
G01Y1330000D02*
X5692000D01*
G01X5762000D02*
Y1420000D01*
X5725000Y1355500D01*
X5775000D01*
G01X5469000Y2012000D02*
X5477000Y2004500D01*
X5486000Y2000000D01*
X5494000D01*
X5502000Y2004500D01*
X5508000Y2012000D01*
X5511000Y2022500D01*
X5509000Y2033000D01*
X5504000Y2042000D01*
X5495000Y2048000D01*
X5483000Y2051000D01*
X5476000Y2057000D01*
X5473000Y2067500D01*
X5475000Y2078000D01*
X5480000Y2085500D01*
X5487000Y2090000D01*
X5494000D01*
X5501000Y2087000D01*
X5507000Y2079500D01*
G01X5560000Y2000000D02*
X5552000Y2001500D01*
X5545000Y2007500D01*
X5539000Y2016500D01*
X5535000Y2027000D01*
X5533000Y2039000D01*
Y2051000D01*
X5535000Y2063000D01*
X5539000Y2073500D01*
X5545000Y2082500D01*
X5552000Y2088500D01*
X5560000Y2090000D01*
X5568000Y2088500D01*
X5575000Y2082500D01*
X5581000Y2073500D01*
X5585000Y2063000D01*
X5587000Y2051000D01*
Y2039000D01*
X5585000Y2027000D01*
X5581000Y2016500D01*
X5575000Y2007500D01*
X5568000Y2001500D01*
X5560000Y2000000D01*
G01X5618000Y2090000D02*
X5642000D01*
G01X5630000D02*
Y2000000D01*
G01X5618000D02*
X5642000D01*
G01X5722000Y2082500D02*
X5716000Y2087000D01*
X5709000Y2090000D01*
X5701000D01*
X5692000Y2085500D01*
X5685000Y2078000D01*
X5680000Y2069000D01*
X5676000Y2054000D01*
X5675000Y2040500D01*
X5677000Y2027000D01*
X5680000Y2018000D01*
X5686000Y2009000D01*
X5693000Y2003000D01*
X5700000Y2000000D01*
X5707000D01*
X5714000Y2003000D01*
X5720000Y2007500D01*
X5725000Y2013500D01*
G01X5770000Y2000000D02*
X5777000Y2001500D01*
X5785000Y2006000D01*
X5790000Y2013500D01*
X5792000Y2024000D01*
X5790000Y2034500D01*
X5784000Y2043500D01*
X5775000Y2048000D01*
X5765000D01*
X5759000Y2051000D01*
X5754000Y2058500D01*
X5752000Y2069000D01*
X5755000Y2079500D01*
X5762000Y2087000D01*
X5770000Y2090000D01*
X5778000Y2087000D01*
X5785000Y2079500D01*
X5788000Y2069000D01*
X5786000Y2058500D01*
X5781000Y2051000D01*
X5775000Y2048000D01*
X5765000D01*
X5756000Y2043500D01*
X5750000Y2034500D01*
X5748000Y2024000D01*
X5750000Y2013500D01*
X5755000Y2006000D01*
X5763000Y2001500D01*
X5770000Y2000000D01*
G01X5519000Y2452000D02*
X5527000Y2444500D01*
X5536000Y2440000D01*
X5544000D01*
X5552000Y2444500D01*
X5558000Y2452000D01*
X5561000Y2462500D01*
X5559000Y2473000D01*
X5554000Y2482000D01*
X5545000Y2488000D01*
X5533000Y2491000D01*
X5526000Y2497000D01*
X5523000Y2507500D01*
X5525000Y2518000D01*
X5530000Y2525500D01*
X5537000Y2530000D01*
X5544000D01*
X5551000Y2527000D01*
X5557000Y2519500D01*
G01X5610000Y2440000D02*
X5602000Y2441500D01*
X5595000Y2447500D01*
X5589000Y2456500D01*
X5585000Y2467000D01*
X5583000Y2479000D01*
Y2491000D01*
X5585000Y2503000D01*
X5589000Y2513500D01*
X5595000Y2522500D01*
X5602000Y2528500D01*
X5610000Y2530000D01*
X5618000Y2528500D01*
X5625000Y2522500D01*
X5631000Y2513500D01*
X5635000Y2503000D01*
X5637000Y2491000D01*
Y2479000D01*
X5635000Y2467000D01*
X5631000Y2456500D01*
X5625000Y2447500D01*
X5618000Y2441500D01*
X5610000Y2440000D01*
G01X5680000Y2530000D02*
Y2440000D01*
G01X5657000Y2530000D02*
X5703000D01*
G01X5731000Y2515000D02*
X5737000Y2524000D01*
X5744000Y2528500D01*
X5752000Y2530000D01*
X5762000Y2527000D01*
X5769000Y2519500D01*
X5771000Y2510500D01*
X5770000Y2501500D01*
X5766000Y2494000D01*
X5746000Y2479000D01*
X5737000Y2468500D01*
X5731000Y2453500D01*
X5729000Y2440000D01*
X5771000D01*
G01X5798000Y2458000D02*
X5804000Y2447500D01*
X5812000Y2441500D01*
X5821000Y2440000D01*
X5829000Y2441500D01*
X5837000Y2449000D01*
X5842000Y2458000D01*
X5843000Y2467000D01*
X5841000Y2477500D01*
X5834000Y2485000D01*
X5827000Y2488000D01*
X5818000D01*
G01X5827000D02*
X5833000Y2492500D01*
X5838000Y2500000D01*
X5840000Y2509000D01*
X5838000Y2518000D01*
X5833000Y2525500D01*
X5824000Y2530000D01*
X5815000Y2528500D01*
X5806000Y2522500D01*
G01X5877000Y2470000D02*
X5903000D01*
G01X5938000Y2453500D02*
X5944000Y2446000D01*
X5951000Y2441500D01*
X5960000Y2440000D01*
X5969000Y2443000D01*
X5976000Y2449000D01*
X5981000Y2459500D01*
X5982000Y2471500D01*
X5980000Y2483500D01*
X5975000Y2491000D01*
X5968000Y2497000D01*
X5961000Y2498500D01*
X5954000Y2497000D01*
X5945000Y2491000D01*
X5948000Y2530000D01*
X5975000D01*
G01X5609000Y2802000D02*
X5617000Y2794500D01*
X5626000Y2790000D01*
X5634000D01*
X5642000Y2794500D01*
X5648000Y2802000D01*
X5651000Y2812500D01*
X5649000Y2823000D01*
X5644000Y2832000D01*
X5635000Y2838000D01*
X5623000Y2841000D01*
X5616000Y2847000D01*
X5613000Y2857500D01*
X5615000Y2868000D01*
X5620000Y2875500D01*
X5627000Y2880000D01*
X5634000D01*
X5641000Y2877000D01*
X5647000Y2869500D01*
G01X5700000Y2790000D02*
X5692000Y2791500D01*
X5685000Y2797500D01*
X5679000Y2806500D01*
X5675000Y2817000D01*
X5673000Y2829000D01*
Y2841000D01*
X5675000Y2853000D01*
X5679000Y2863500D01*
X5685000Y2872500D01*
X5692000Y2878500D01*
X5700000Y2880000D01*
X5708000Y2878500D01*
X5715000Y2872500D01*
X5721000Y2863500D01*
X5725000Y2853000D01*
X5727000Y2841000D01*
Y2829000D01*
X5725000Y2817000D01*
X5721000Y2806500D01*
X5715000Y2797500D01*
X5708000Y2791500D01*
X5700000Y2790000D01*
G01X5770000Y2880000D02*
Y2790000D01*
G01X5747000Y2880000D02*
X5793000D01*
G01X5821000Y2865000D02*
X5827000Y2874000D01*
X5834000Y2878500D01*
X5842000Y2880000D01*
X5852000Y2877000D01*
X5859000Y2869500D01*
X5861000Y2860500D01*
X5860000Y2851500D01*
X5856000Y2844000D01*
X5836000Y2829000D01*
X5827000Y2818500D01*
X5821000Y2803500D01*
X5819000Y2790000D01*
X5861000D01*
G01X5888000Y2808000D02*
X5894000Y2797500D01*
X5902000Y2791500D01*
X5911000Y2790000D01*
X5919000Y2791500D01*
X5927000Y2799000D01*
X5932000Y2808000D01*
X5933000Y2817000D01*
X5931000Y2827500D01*
X5924000Y2835000D01*
X5917000Y2838000D01*
X5908000D01*
G01X5917000D02*
X5923000Y2842500D01*
X5928000Y2850000D01*
X5930000Y2859000D01*
X5928000Y2868000D01*
X5923000Y2875500D01*
X5914000Y2880000D01*
X5905000Y2878500D01*
X5896000Y2872500D01*
G01X5967000Y2820000D02*
X5993000D01*
G01X6028000Y2808000D02*
X6034000Y2797500D01*
X6042000Y2791500D01*
X6051000Y2790000D01*
X6059000Y2791500D01*
X6067000Y2799000D01*
X6072000Y2808000D01*
X6073000Y2817000D01*
X6071000Y2827500D01*
X6064000Y2835000D01*
X6057000Y2838000D01*
X6048000D01*
G01X6057000D02*
X6063000Y2842500D01*
X6068000Y2850000D01*
X6070000Y2859000D01*
X6068000Y2868000D01*
X6063000Y2875500D01*
X6054000Y2880000D01*
X6045000Y2878500D01*
X6036000Y2872500D01*
G01X6292670Y487170D02*
X6283330Y496330D01*
X6272670Y500000D01*
X6262000Y496330D01*
X6252670Y485340D01*
X6246000Y468830D01*
X6243330Y452330D01*
Y432170D01*
X6246000Y415670D01*
X6252670Y401000D01*
X6260670Y393670D01*
X6270000Y390000D01*
X6280670Y393670D01*
X6288670Y401000D01*
X6294000Y412000D01*
X6296670Y426670D01*
X6294000Y439500D01*
X6287330Y452330D01*
X6279330Y459670D01*
X6270000Y461500D01*
X6259330Y457840D01*
X6251330Y448670D01*
X6243330Y432170D01*
G01X6205000Y1153000D02*
X6269500D01*
X6283000Y1157000D01*
X6292000Y1165000D01*
X6295000Y1175000D01*
X6292000Y1185000D01*
X6283000Y1193000D01*
X6269500Y1197000D01*
X6205000D01*
G01X6281500Y1223000D02*
X6289000Y1229000D01*
X6293500Y1236000D01*
X6295000Y1245000D01*
X6292000Y1254000D01*
X6286000Y1261000D01*
X6275500Y1266000D01*
X6263500Y1267000D01*
X6251500Y1265000D01*
X6244000Y1260000D01*
X6238000Y1253000D01*
X6236500Y1246000D01*
X6238000Y1239000D01*
X6244000Y1230000D01*
X6205000Y1233000D01*
Y1260000D01*
G01Y1803000D02*
X6269500D01*
X6283000Y1807000D01*
X6292000Y1815000D01*
X6295000Y1825000D01*
X6292000Y1835000D01*
X6283000Y1843000D01*
X6269500Y1847000D01*
X6205000D01*
G01X6295000Y1895000D02*
X6205000D01*
X6223000Y1883000D01*
G01X6295000D02*
Y1907000D01*
G01X6205000Y2339350D02*
X6269500D01*
X6283000Y2343350D01*
X6292000Y2351350D01*
X6295000Y2361350D01*
X6292000Y2371350D01*
X6283000Y2379350D01*
X6269500Y2383350D01*
X6205000D01*
G01X6220000Y2412350D02*
X6211000Y2418350D01*
X6206500Y2425350D01*
X6205000Y2433350D01*
X6208000Y2443350D01*
X6215500Y2450350D01*
X6224500Y2452350D01*
X6233500Y2451350D01*
X6241000Y2447350D01*
X6256000Y2427350D01*
X6266500Y2418350D01*
X6281500Y2412350D01*
X6295000Y2410350D01*
Y2452350D01*
G01X6193000Y2803150D02*
Y2893150D01*
X6213000D01*
X6221000Y2888650D01*
X6227000Y2882650D01*
X6232000Y2873650D01*
X6236000Y2863150D01*
X6237000Y2848150D01*
X6236000Y2833150D01*
X6232000Y2822650D01*
X6227000Y2813650D01*
X6221000Y2807650D01*
X6213000Y2803150D01*
X6193000D01*
G01X6285000D02*
Y2893150D01*
X6273000Y2875150D01*
G01Y2803150D02*
X6297000D01*
G01X6114670Y3545830D02*
X6124000Y3558670D01*
X6132000Y3566000D01*
X6142670Y3569670D01*
X6152000Y3566000D01*
X6158670Y3558670D01*
X6164000Y3547670D01*
X6165330Y3534830D01*
X6164000Y3523830D01*
X6158670Y3512830D01*
X6150670Y3503670D01*
X6141330Y3500000D01*
X6130670Y3503670D01*
X6121330Y3514660D01*
X6116000Y3531170D01*
X6114670Y3549500D01*
X6117330Y3573330D01*
X6121330Y3586170D01*
X6128000Y3599000D01*
X6137330Y3608170D01*
X6146670Y3610000D01*
X6156000Y3606330D01*
X6162670Y3597170D01*
G01X6659000Y2082000D02*
X6667000Y2074500D01*
X6676000Y2070000D01*
X6684000D01*
X6692000Y2074500D01*
X6698000Y2082000D01*
X6701000Y2092500D01*
X6699000Y2103000D01*
X6694000Y2112000D01*
X6685000Y2118000D01*
X6673000Y2121000D01*
X6666000Y2127000D01*
X6663000Y2137500D01*
X6665000Y2148000D01*
X6670000Y2155500D01*
X6677000Y2160000D01*
X6684000D01*
X6691000Y2157000D01*
X6697000Y2149500D01*
G01X6750000Y2070000D02*
X6742000Y2071500D01*
X6735000Y2077500D01*
X6729000Y2086500D01*
X6725000Y2097000D01*
X6723000Y2109000D01*
Y2121000D01*
X6725000Y2133000D01*
X6729000Y2143500D01*
X6735000Y2152500D01*
X6742000Y2158500D01*
X6750000Y2160000D01*
X6758000Y2158500D01*
X6765000Y2152500D01*
X6771000Y2143500D01*
X6775000Y2133000D01*
X6777000Y2121000D01*
Y2109000D01*
X6775000Y2097000D01*
X6771000Y2086500D01*
X6765000Y2077500D01*
X6758000Y2071500D01*
X6750000Y2070000D01*
G01X6808000Y2160000D02*
X6832000D01*
G01X6820000D02*
Y2070000D01*
G01X6808000D02*
X6832000D01*
G01X6912000Y2152500D02*
X6906000Y2157000D01*
X6899000Y2160000D01*
X6891000D01*
X6882000Y2155500D01*
X6875000Y2148000D01*
X6870000Y2139000D01*
X6866000Y2124000D01*
X6865000Y2110500D01*
X6867000Y2097000D01*
X6870000Y2088000D01*
X6876000Y2079000D01*
X6883000Y2073000D01*
X6890000Y2070000D01*
X6897000D01*
X6904000Y2073000D01*
X6910000Y2077500D01*
X6915000Y2083500D01*
G01X6960000Y2070000D02*
Y2160000D01*
X6948000Y2142000D01*
G01Y2070000D02*
X6972000D01*
G01X7011000Y2107500D02*
X7018000Y2118000D01*
X7024000Y2124000D01*
X7032000Y2127000D01*
X7039000Y2124000D01*
X7044000Y2118000D01*
X7048000Y2109000D01*
X7049000Y2098500D01*
X7048000Y2089500D01*
X7044000Y2080500D01*
X7038000Y2073000D01*
X7031000Y2070000D01*
X7023000Y2073000D01*
X7016000Y2082000D01*
X7012000Y2095500D01*
X7011000Y2110500D01*
X7013000Y2130000D01*
X7016000Y2140500D01*
X7021000Y2151000D01*
X7028000Y2158500D01*
X7035000Y2160000D01*
X7042000Y2157000D01*
X7047000Y2149500D01*
G01X7070000Y2040000D02*
X7130000D01*
G01X7148000Y2088000D02*
X7154000Y2077500D01*
X7162000Y2071500D01*
X7171000Y2070000D01*
X7179000Y2071500D01*
X7187000Y2079000D01*
X7192000Y2088000D01*
X7193000Y2097000D01*
X7191000Y2107500D01*
X7184000Y2115000D01*
X7177000Y2118000D01*
X7168000D01*
G01X7177000D02*
X7183000Y2122500D01*
X7188000Y2130000D01*
X7190000Y2139000D01*
X7188000Y2148000D01*
X7183000Y2155500D01*
X7174000Y2160000D01*
X7165000Y2158500D01*
X7156000Y2152500D01*
G01X7240000Y2160000D02*
X7232000Y2157000D01*
X7226000Y2149500D01*
X7222000Y2140500D01*
X7219000Y2128500D01*
X7218000Y2115000D01*
X7219000Y2101500D01*
X7222000Y2089500D01*
X7226000Y2080500D01*
X7232000Y2073000D01*
X7240000Y2070000D01*
X7248000Y2073000D01*
X7254000Y2080500D01*
X7258000Y2089500D01*
X7261000Y2101500D01*
X7262000Y2115000D01*
X7261000Y2128500D01*
X7258000Y2140500D01*
X7254000Y2149500D01*
X7248000Y2157000D01*
X7240000Y2160000D01*
G01X7310000D02*
X7302000Y2157000D01*
X7296000Y2149500D01*
X7292000Y2140500D01*
X7289000Y2128500D01*
X7288000Y2115000D01*
X7289000Y2101500D01*
X7292000Y2089500D01*
X7296000Y2080500D01*
X7302000Y2073000D01*
X7310000Y2070000D01*
X7318000Y2073000D01*
X7324000Y2080500D01*
X7328000Y2089500D01*
X7331000Y2101500D01*
X7332000Y2115000D01*
X7331000Y2128500D01*
X7328000Y2140500D01*
X7324000Y2149500D01*
X7318000Y2157000D01*
X7310000Y2160000D01*
G01X6619000Y2922000D02*
X6627000Y2914500D01*
X6636000Y2910000D01*
X6644000D01*
X6652000Y2914500D01*
X6658000Y2922000D01*
X6661000Y2932500D01*
X6659000Y2943000D01*
X6654000Y2952000D01*
X6645000Y2958000D01*
X6633000Y2961000D01*
X6626000Y2967000D01*
X6623000Y2977500D01*
X6625000Y2988000D01*
X6630000Y2995500D01*
X6637000Y3000000D01*
X6644000D01*
X6651000Y2997000D01*
X6657000Y2989500D01*
G01X6689000Y2922000D02*
X6697000Y2914500D01*
X6706000Y2910000D01*
X6714000D01*
X6722000Y2914500D01*
X6728000Y2922000D01*
X6731000Y2932500D01*
X6729000Y2943000D01*
X6724000Y2952000D01*
X6715000Y2958000D01*
X6703000Y2961000D01*
X6696000Y2967000D01*
X6693000Y2977500D01*
X6695000Y2988000D01*
X6700000Y2995500D01*
X6707000Y3000000D01*
X6714000D01*
X6721000Y2997000D01*
X6727000Y2989500D01*
G01X6780000Y2910000D02*
X6772000Y2911500D01*
X6765000Y2917500D01*
X6759000Y2926500D01*
X6755000Y2937000D01*
X6753000Y2949000D01*
Y2961000D01*
X6755000Y2973000D01*
X6759000Y2983500D01*
X6765000Y2992500D01*
X6772000Y2998500D01*
X6780000Y3000000D01*
X6788000Y2998500D01*
X6795000Y2992500D01*
X6801000Y2983500D01*
X6805000Y2973000D01*
X6807000Y2961000D01*
Y2949000D01*
X6805000Y2937000D01*
X6801000Y2926500D01*
X6795000Y2917500D01*
X6788000Y2911500D01*
X6780000Y2910000D01*
G01X6830000D02*
Y3000000D01*
X6854000D01*
X6862000Y2995500D01*
X6868000Y2985000D01*
X6870000Y2973000D01*
X6868000Y2961000D01*
X6863000Y2952000D01*
X6854000Y2947500D01*
X6830000D01*
G01X6901000Y2985000D02*
X6907000Y2994000D01*
X6914000Y2998500D01*
X6922000Y3000000D01*
X6932000Y2997000D01*
X6939000Y2989500D01*
X6941000Y2980500D01*
X6940000Y2971500D01*
X6936000Y2964000D01*
X6916000Y2949000D01*
X6907000Y2938500D01*
X6901000Y2923500D01*
X6899000Y2910000D01*
X6941000D01*
G01X7002000D02*
Y3000000D01*
X6965000Y2935500D01*
X7015000D01*
G01X7270000Y500000D02*
X7260670Y498170D01*
X7250000Y492670D01*
X7243330Y483500D01*
X7240670Y470670D01*
X7243330Y457840D01*
X7251330Y446830D01*
X7263330Y441330D01*
X7276670D01*
X7284670Y437670D01*
X7291330Y428500D01*
X7294000Y415670D01*
X7290000Y402830D01*
X7280670Y393670D01*
X7270000Y390000D01*
X7259330Y393670D01*
X7250000Y402830D01*
X7246000Y415670D01*
X7248670Y428500D01*
X7255330Y437670D01*
X7263330Y441330D01*
X7276670D01*
X7288670Y446830D01*
X7296670Y457840D01*
X7299330Y470670D01*
X7296670Y483500D01*
X7290000Y492670D01*
X7279330Y498170D01*
X7270000Y500000D01*
G01X7137330Y3500000D02*
X7140000Y3523830D01*
X7144000Y3544000D01*
X7149330Y3562330D01*
X7156000Y3582500D01*
X7166670Y3610000D01*
X7113330D01*
G01X7445000Y1398690D02*
X7509500D01*
X7523000Y1402690D01*
X7532000Y1410690D01*
X7535000Y1420690D01*
X7532000Y1430690D01*
X7523000Y1438690D01*
X7509500Y1442690D01*
X7445000D01*
G01X7535000Y1490690D02*
X7533500Y1497690D01*
X7529000Y1505690D01*
X7521500Y1510690D01*
X7511000Y1512690D01*
X7500500Y1510690D01*
X7491500Y1504690D01*
X7487000Y1495690D01*
Y1485690D01*
X7484000Y1479690D01*
X7476500Y1474690D01*
X7466000Y1472690D01*
X7455500Y1475690D01*
X7448000Y1482690D01*
X7445000Y1490690D01*
X7448000Y1498690D01*
X7455500Y1505690D01*
X7466000Y1508690D01*
X7476500Y1506690D01*
X7484000Y1501690D01*
X7487000Y1495690D01*
Y1485690D01*
X7491500Y1476690D01*
X7500500Y1470690D01*
X7511000Y1468690D01*
X7521500Y1470690D01*
X7529000Y1475690D01*
X7533500Y1483690D01*
X7535000Y1490690D01*
G01X7445000Y2528000D02*
X7509500D01*
X7523000Y2532000D01*
X7532000Y2540000D01*
X7535000Y2550000D01*
X7532000Y2560000D01*
X7523000Y2568000D01*
X7509500Y2572000D01*
X7445000D01*
G01X7535000Y2620000D02*
X7445000D01*
X7463000Y2608000D01*
G01X7535000D02*
Y2632000D01*
G01X7460000Y2671000D02*
X7451000Y2677000D01*
X7446500Y2684000D01*
X7445000Y2692000D01*
X7448000Y2702000D01*
X7455500Y2709000D01*
X7464500Y2711000D01*
X7473500Y2710000D01*
X7481000Y2706000D01*
X7496000Y2686000D01*
X7506500Y2677000D01*
X7521500Y2671000D01*
X7535000Y2669000D01*
Y2711000D01*
G01X8119000Y1640000D02*
X8161000Y1730000D01*
G01X8119000D02*
X8161000Y1640000D01*
G01X8208000D02*
X8210000Y1659500D01*
X8213000Y1676000D01*
X8217000Y1691000D01*
X8222000Y1707500D01*
X8230000Y1730000D01*
X8190000D01*
G01X8280000D02*
X8272000Y1727000D01*
X8266000Y1719500D01*
X8262000Y1710500D01*
X8259000Y1698500D01*
X8258000Y1685000D01*
X8259000Y1671500D01*
X8262000Y1659500D01*
X8266000Y1650500D01*
X8272000Y1643000D01*
X8280000Y1640000D01*
X8288000Y1643000D01*
X8294000Y1650500D01*
X8298000Y1659500D01*
X8301000Y1671500D01*
X8302000Y1685000D01*
X8301000Y1698500D01*
X8298000Y1710500D01*
X8294000Y1719500D01*
X8288000Y1727000D01*
X8280000Y1730000D01*
G01X8328000Y1653500D02*
X8334000Y1646000D01*
X8341000Y1641500D01*
X8350000Y1640000D01*
X8359000Y1643000D01*
X8366000Y1649000D01*
X8371000Y1659500D01*
X8372000Y1671500D01*
X8370000Y1683500D01*
X8365000Y1691000D01*
X8358000Y1697000D01*
X8351000Y1698500D01*
X8344000Y1697000D01*
X8335000Y1691000D01*
X8338000Y1730000D01*
X8365000D01*
G01X8420000D02*
X8412000Y1727000D01*
X8406000Y1719500D01*
X8402000Y1710500D01*
X8399000Y1698500D01*
X8398000Y1685000D01*
X8399000Y1671500D01*
X8402000Y1659500D01*
X8406000Y1650500D01*
X8412000Y1643000D01*
X8420000Y1640000D01*
X8428000Y1643000D01*
X8434000Y1650500D01*
X8438000Y1659500D01*
X8441000Y1671500D01*
X8442000Y1685000D01*
X8441000Y1698500D01*
X8438000Y1710500D01*
X8434000Y1719500D01*
X8428000Y1727000D01*
X8420000Y1730000D01*
G01X8119000Y2050000D02*
X8161000Y2140000D01*
G01X8119000D02*
X8161000Y2050000D01*
G01X8188000Y2063500D02*
X8194000Y2056000D01*
X8201000Y2051500D01*
X8210000Y2050000D01*
X8219000Y2053000D01*
X8226000Y2059000D01*
X8231000Y2069500D01*
X8232000Y2081500D01*
X8230000Y2093500D01*
X8225000Y2101000D01*
X8218000Y2107000D01*
X8211000Y2108500D01*
X8204000Y2107000D01*
X8195000Y2101000D01*
X8198000Y2140000D01*
X8225000D01*
G01X8280000D02*
X8272000Y2137000D01*
X8266000Y2129500D01*
X8262000Y2120500D01*
X8259000Y2108500D01*
X8258000Y2095000D01*
X8259000Y2081500D01*
X8262000Y2069500D01*
X8266000Y2060500D01*
X8272000Y2053000D01*
X8280000Y2050000D01*
X8288000Y2053000D01*
X8294000Y2060500D01*
X8298000Y2069500D01*
X8301000Y2081500D01*
X8302000Y2095000D01*
X8301000Y2108500D01*
X8298000Y2120500D01*
X8294000Y2129500D01*
X8288000Y2137000D01*
X8280000Y2140000D01*
G01X8328000Y2068000D02*
X8334000Y2057500D01*
X8342000Y2051500D01*
X8351000Y2050000D01*
X8359000Y2051500D01*
X8367000Y2059000D01*
X8372000Y2068000D01*
X8373000Y2077000D01*
X8371000Y2087500D01*
X8364000Y2095000D01*
X8357000Y2098000D01*
X8348000D01*
G01X8357000D02*
X8363000Y2102500D01*
X8368000Y2110000D01*
X8370000Y2119000D01*
X8368000Y2128000D01*
X8363000Y2135500D01*
X8354000Y2140000D01*
X8345000Y2138500D01*
X8336000Y2132500D01*
G01X8401000Y2125000D02*
X8407000Y2134000D01*
X8414000Y2138500D01*
X8422000Y2140000D01*
X8432000Y2137000D01*
X8439000Y2129500D01*
X8441000Y2120500D01*
X8440000Y2111500D01*
X8436000Y2104000D01*
X8416000Y2089000D01*
X8407000Y2078500D01*
X8401000Y2063500D01*
X8399000Y2050000D01*
X8441000D01*
G01X8169000Y2570000D02*
X8211000Y2660000D01*
G01X8169000D02*
X8211000Y2570000D01*
G01X8238000Y2588000D02*
X8244000Y2577500D01*
X8252000Y2571500D01*
X8261000Y2570000D01*
X8269000Y2571500D01*
X8277000Y2579000D01*
X8282000Y2588000D01*
X8283000Y2597000D01*
X8281000Y2607500D01*
X8274000Y2615000D01*
X8267000Y2618000D01*
X8258000D01*
G01X8267000D02*
X8273000Y2622500D01*
X8278000Y2630000D01*
X8280000Y2639000D01*
X8278000Y2648000D01*
X8273000Y2655500D01*
X8264000Y2660000D01*
X8255000Y2658500D01*
X8246000Y2652500D01*
G01X8311000Y2645000D02*
X8317000Y2654000D01*
X8324000Y2658500D01*
X8332000Y2660000D01*
X8342000Y2657000D01*
X8349000Y2649500D01*
X8351000Y2640500D01*
X8350000Y2631500D01*
X8346000Y2624000D01*
X8326000Y2609000D01*
X8317000Y2598500D01*
X8311000Y2583500D01*
X8309000Y2570000D01*
X8351000D01*
G01X8381000Y2645000D02*
X8387000Y2654000D01*
X8394000Y2658500D01*
X8402000Y2660000D01*
X8412000Y2657000D01*
X8419000Y2649500D01*
X8421000Y2640500D01*
X8420000Y2631500D01*
X8416000Y2624000D01*
X8396000Y2609000D01*
X8387000Y2598500D01*
X8381000Y2583500D01*
X8379000Y2570000D01*
X8421000D01*
G01X8448000Y2583500D02*
X8454000Y2576000D01*
X8461000Y2571500D01*
X8470000Y2570000D01*
X8479000Y2573000D01*
X8486000Y2579000D01*
X8491000Y2589500D01*
X8492000Y2601500D01*
X8490000Y2613500D01*
X8485000Y2621000D01*
X8478000Y2627000D01*
X8471000Y2628500D01*
X8464000Y2627000D01*
X8455000Y2621000D01*
X8458000Y2660000D01*
X8485000D01*
G01X8169000Y2950000D02*
X8211000Y3040000D01*
G01X8169000D02*
X8211000Y2950000D01*
G01X8238000Y2968000D02*
X8244000Y2957500D01*
X8252000Y2951500D01*
X8261000Y2950000D01*
X8269000Y2951500D01*
X8277000Y2959000D01*
X8282000Y2968000D01*
X8283000Y2977000D01*
X8281000Y2987500D01*
X8274000Y2995000D01*
X8267000Y2998000D01*
X8258000D01*
G01X8267000D02*
X8273000Y3002500D01*
X8278000Y3010000D01*
X8280000Y3019000D01*
X8278000Y3028000D01*
X8273000Y3035500D01*
X8264000Y3040000D01*
X8255000Y3038500D01*
X8246000Y3032500D01*
G01X8311000Y3025000D02*
X8317000Y3034000D01*
X8324000Y3038500D01*
X8332000Y3040000D01*
X8342000Y3037000D01*
X8349000Y3029500D01*
X8351000Y3020500D01*
X8350000Y3011500D01*
X8346000Y3004000D01*
X8326000Y2989000D01*
X8317000Y2978500D01*
X8311000Y2963500D01*
X8309000Y2950000D01*
X8351000D01*
G01X8400000D02*
Y3040000D01*
X8388000Y3022000D01*
G01Y2950000D02*
X8412000D01*
G01X8448000Y2963500D02*
X8454000Y2956000D01*
X8461000Y2951500D01*
X8470000Y2950000D01*
X8479000Y2953000D01*
X8486000Y2959000D01*
X8491000Y2969500D01*
X8492000Y2981500D01*
X8490000Y2993500D01*
X8485000Y3001000D01*
X8478000Y3007000D01*
X8471000Y3008500D01*
X8464000Y3007000D01*
X8455000Y3001000D01*
X8458000Y3040000D01*
X8485000D01*
G01X8140000Y3500000D02*
X8149330Y3501830D01*
X8160000Y3507330D01*
X8166670Y3516500D01*
X8169330Y3529330D01*
X8166670Y3542160D01*
X8158670Y3553170D01*
X8146670Y3558670D01*
X8133330D01*
X8125330Y3562330D01*
X8118670Y3571500D01*
X8116000Y3584330D01*
X8120000Y3597170D01*
X8129330Y3606330D01*
X8140000Y3610000D01*
X8150670Y3606330D01*
X8160000Y3597170D01*
X8164000Y3584330D01*
X8161330Y3571500D01*
X8154670Y3562330D01*
X8146670Y3558670D01*
X8133330D01*
X8121330Y3553170D01*
X8113330Y3542160D01*
X8110670Y3529330D01*
X8113330Y3516500D01*
X8120000Y3507330D01*
X8130670Y3501830D01*
X8140000Y3500000D01*
G01X8272670Y500000D02*
X8270000Y476170D01*
X8266000Y456000D01*
X8260670Y437670D01*
X8254000Y417500D01*
X8243330Y390000D01*
X8296670D01*
G01X8684000Y1245000D02*
X8726000Y1335000D01*
G01X8684000D02*
X8726000Y1245000D01*
G01X8787000D02*
Y1335000D01*
X8750000Y1270500D01*
X8800000D01*
G01X8684000Y1915000D02*
X8726000Y2005000D01*
G01X8684000D02*
X8726000Y1915000D01*
G01X8753000Y1933000D02*
X8759000Y1922500D01*
X8767000Y1916500D01*
X8776000Y1915000D01*
X8784000Y1916500D01*
X8792000Y1924000D01*
X8797000Y1933000D01*
X8798000Y1942000D01*
X8796000Y1952500D01*
X8789000Y1960000D01*
X8782000Y1963000D01*
X8773000D01*
G01X8782000D02*
X8788000Y1967500D01*
X8793000Y1975000D01*
X8795000Y1984000D01*
X8793000Y1993000D01*
X8788000Y2000500D01*
X8779000Y2005000D01*
X8770000Y2003500D01*
X8761000Y1997500D01*
G01X8684000Y2435000D02*
X8726000Y2525000D01*
G01X8684000D02*
X8726000Y2435000D01*
G01X8756000Y2510000D02*
X8762000Y2519000D01*
X8769000Y2523500D01*
X8777000Y2525000D01*
X8787000Y2522000D01*
X8794000Y2514500D01*
X8796000Y2505500D01*
X8795000Y2496500D01*
X8791000Y2489000D01*
X8771000Y2474000D01*
X8762000Y2463500D01*
X8756000Y2448500D01*
X8754000Y2435000D01*
X8796000D01*
G01X8684000Y2885000D02*
X8726000Y2975000D01*
G01X8684000D02*
X8726000Y2885000D01*
G01X8775000D02*
Y2975000D01*
X8763000Y2957000D01*
G01Y2885000D02*
X8787000D01*
G01X9295330Y454170D02*
X9286000Y441330D01*
X9278000Y434000D01*
X9267330Y430330D01*
X9258000Y434000D01*
X9251330Y441330D01*
X9246000Y452330D01*
X9244670Y465170D01*
X9246000Y476170D01*
X9251330Y487170D01*
X9259330Y496330D01*
X9268670Y500000D01*
X9279330Y496330D01*
X9288670Y485340D01*
X9294000Y468830D01*
X9295330Y450500D01*
X9292670Y426670D01*
X9288670Y413830D01*
X9282000Y401000D01*
X9272670Y391830D01*
X9263330Y390000D01*
X9254000Y393670D01*
X9247330Y402830D01*
G01X9200000Y1460000D02*
X9192000Y1461500D01*
X9185000Y1467500D01*
X9179000Y1476500D01*
X9175000Y1487000D01*
X9173000Y1499000D01*
Y1511000D01*
X9175000Y1523000D01*
X9179000Y1533500D01*
X9185000Y1542500D01*
X9192000Y1548500D01*
X9200000Y1550000D01*
X9208000Y1548500D01*
X9215000Y1542500D01*
X9221000Y1533500D01*
X9225000Y1523000D01*
X9227000Y1511000D01*
Y1499000D01*
X9225000Y1487000D01*
X9221000Y1476500D01*
X9215000Y1467500D01*
X9208000Y1461500D01*
X9200000Y1460000D01*
G01X9208000Y1484000D02*
X9220000Y1460000D01*
G01X9251000D02*
Y1550000D01*
X9289000D01*
G01X9275000Y1506500D02*
X9251000D01*
G01X9317000Y1460000D02*
Y1550000D01*
X9363000Y1460000D01*
Y1550000D01*
G01X9391000Y1535000D02*
X9397000Y1544000D01*
X9404000Y1548500D01*
X9412000Y1550000D01*
X9422000Y1547000D01*
X9429000Y1539500D01*
X9431000Y1530500D01*
X9430000Y1521500D01*
X9426000Y1514000D01*
X9406000Y1499000D01*
X9397000Y1488500D01*
X9391000Y1473500D01*
X9389000Y1460000D01*
X9431000D01*
G01X9480000D02*
X9487000Y1461500D01*
X9495000Y1466000D01*
X9500000Y1473500D01*
X9502000Y1484000D01*
X9500000Y1494500D01*
X9494000Y1503500D01*
X9485000Y1508000D01*
X9475000D01*
X9469000Y1511000D01*
X9464000Y1518500D01*
X9462000Y1529000D01*
X9465000Y1539500D01*
X9472000Y1547000D01*
X9480000Y1550000D01*
X9488000Y1547000D01*
X9495000Y1539500D01*
X9498000Y1529000D01*
X9496000Y1518500D01*
X9491000Y1511000D01*
X9485000Y1508000D01*
X9475000D01*
X9466000Y1503500D01*
X9460000Y1494500D01*
X9458000Y1484000D01*
X9460000Y1473500D01*
X9465000Y1466000D01*
X9473000Y1461500D01*
X9480000Y1460000D01*
G01X9240000Y2300000D02*
X9232000Y2301500D01*
X9225000Y2307500D01*
X9219000Y2316500D01*
X9215000Y2327000D01*
X9213000Y2339000D01*
Y2351000D01*
X9215000Y2363000D01*
X9219000Y2373500D01*
X9225000Y2382500D01*
X9232000Y2388500D01*
X9240000Y2390000D01*
X9248000Y2388500D01*
X9255000Y2382500D01*
X9261000Y2373500D01*
X9265000Y2363000D01*
X9267000Y2351000D01*
Y2339000D01*
X9265000Y2327000D01*
X9261000Y2316500D01*
X9255000Y2307500D01*
X9248000Y2301500D01*
X9240000Y2300000D01*
G01X9248000Y2324000D02*
X9260000Y2300000D01*
G01X9291000D02*
Y2390000D01*
X9329000D01*
G01X9315000Y2346500D02*
X9291000D01*
G01X9357000Y2300000D02*
Y2390000D01*
X9403000Y2300000D01*
Y2390000D01*
G01X9431000Y2375000D02*
X9437000Y2384000D01*
X9444000Y2388500D01*
X9452000Y2390000D01*
X9462000Y2387000D01*
X9469000Y2379500D01*
X9471000Y2370500D01*
X9470000Y2361500D01*
X9466000Y2354000D01*
X9446000Y2339000D01*
X9437000Y2328500D01*
X9431000Y2313500D01*
X9429000Y2300000D01*
X9471000D01*
G01X9532000D02*
Y2390000D01*
X9495000Y2325500D01*
X9545000D01*
G01X9209000Y2922000D02*
X9217000Y2914500D01*
X9226000Y2910000D01*
X9234000D01*
X9242000Y2914500D01*
X9248000Y2922000D01*
X9251000Y2932500D01*
X9249000Y2943000D01*
X9244000Y2952000D01*
X9235000Y2958000D01*
X9223000Y2961000D01*
X9216000Y2967000D01*
X9213000Y2977500D01*
X9215000Y2988000D01*
X9220000Y2995500D01*
X9227000Y3000000D01*
X9234000D01*
X9241000Y2997000D01*
X9247000Y2989500D01*
G01X9300000Y2910000D02*
X9292000Y2911500D01*
X9285000Y2917500D01*
X9279000Y2926500D01*
X9275000Y2937000D01*
X9273000Y2949000D01*
Y2961000D01*
X9275000Y2973000D01*
X9279000Y2983500D01*
X9285000Y2992500D01*
X9292000Y2998500D01*
X9300000Y3000000D01*
X9308000Y2998500D01*
X9315000Y2992500D01*
X9321000Y2983500D01*
X9325000Y2973000D01*
X9327000Y2961000D01*
Y2949000D01*
X9325000Y2937000D01*
X9321000Y2926500D01*
X9315000Y2917500D01*
X9308000Y2911500D01*
X9300000Y2910000D01*
G01X9347000D02*
Y3000000D01*
X9393000Y2910000D01*
Y3000000D01*
G01X9440000Y2910000D02*
Y3000000D01*
X9428000Y2982000D01*
G01Y2910000D02*
X9452000D01*
G01X9510000Y3000000D02*
X9502000Y2997000D01*
X9496000Y2989500D01*
X9492000Y2980500D01*
X9489000Y2968500D01*
X9488000Y2955000D01*
X9489000Y2941500D01*
X9492000Y2929500D01*
X9496000Y2920500D01*
X9502000Y2913000D01*
X9510000Y2910000D01*
X9518000Y2913000D01*
X9524000Y2920500D01*
X9528000Y2929500D01*
X9531000Y2941500D01*
X9532000Y2955000D01*
X9531000Y2968500D01*
X9528000Y2980500D01*
X9524000Y2989500D01*
X9518000Y2997000D01*
X9510000Y3000000D01*
G01X9117330Y3512830D02*
X9126670Y3503670D01*
X9137330Y3500000D01*
X9148000Y3503670D01*
X9157330Y3514660D01*
X9164000Y3531170D01*
X9166670Y3547670D01*
Y3567830D01*
X9164000Y3584330D01*
X9157330Y3599000D01*
X9149330Y3606330D01*
X9140000Y3610000D01*
X9129330Y3606330D01*
X9121330Y3599000D01*
X9116000Y3588000D01*
X9113330Y3573330D01*
X9116000Y3560500D01*
X9122670Y3547670D01*
X9130670Y3540330D01*
X9140000Y3538500D01*
X9150670Y3542160D01*
X9158670Y3551330D01*
X9166670Y3567830D01*
G01X9783000Y1335000D02*
Y1270500D01*
X9787000Y1257000D01*
X9795000Y1248000D01*
X9805000Y1245000D01*
X9815000Y1248000D01*
X9823000Y1257000D01*
X9827000Y1270500D01*
Y1335000D01*
G01X9887000Y1245000D02*
Y1335000D01*
X9850000Y1270500D01*
X9900000D01*
G01X9783000Y2215000D02*
Y2150500D01*
X9787000Y2137000D01*
X9795000Y2128000D01*
X9805000Y2125000D01*
X9815000Y2128000D01*
X9823000Y2137000D01*
X9827000Y2150500D01*
Y2215000D01*
G01X9853000Y2143000D02*
X9859000Y2132500D01*
X9867000Y2126500D01*
X9876000Y2125000D01*
X9884000Y2126500D01*
X9892000Y2134000D01*
X9897000Y2143000D01*
X9898000Y2152000D01*
X9896000Y2162500D01*
X9889000Y2170000D01*
X9882000Y2173000D01*
X9873000D01*
G01X9882000D02*
X9888000Y2177500D01*
X9893000Y2185000D01*
X9895000Y2194000D01*
X9893000Y2203000D01*
X9888000Y2210500D01*
X9879000Y2215000D01*
X9870000Y2213500D01*
X9861000Y2207500D01*
G01X9748000Y2893150D02*
Y2828650D01*
X9752000Y2815150D01*
X9760000Y2806150D01*
X9770000Y2803150D01*
X9780000Y2806150D01*
X9788000Y2815150D01*
X9792000Y2828650D01*
Y2893150D01*
G01X9840000Y2803150D02*
Y2893150D01*
X9828000Y2875150D01*
G01Y2803150D02*
X9852000D01*
G01X9888000Y2821150D02*
X9894000Y2810650D01*
X9902000Y2804650D01*
X9911000Y2803150D01*
X9919000Y2804650D01*
X9927000Y2812150D01*
X9932000Y2821150D01*
X9933000Y2830150D01*
X9931000Y2840650D01*
X9924000Y2848150D01*
X9917000Y2851150D01*
X9908000D01*
G01X9917000D02*
X9923000Y2855650D01*
X9928000Y2863150D01*
X9930000Y2872150D01*
X9928000Y2881150D01*
X9923000Y2888650D01*
X9914000Y2893150D01*
X9905000Y2891650D01*
X9896000Y2885650D01*
G01X10299330Y483500D02*
X10291330Y492670D01*
X10282000Y498170D01*
X10270000Y500000D01*
X10258000Y496330D01*
X10248670Y489000D01*
X10242000Y476170D01*
X10240670Y461500D01*
X10243330Y446830D01*
X10250000Y437670D01*
X10259330Y430330D01*
X10268670Y428500D01*
X10278000Y430330D01*
X10290000Y437670D01*
X10286000Y390000D01*
X10250000D01*
G01X10200000Y1820000D02*
X10192000Y1821500D01*
X10185000Y1827500D01*
X10179000Y1836500D01*
X10175000Y1847000D01*
X10173000Y1859000D01*
Y1871000D01*
X10175000Y1883000D01*
X10179000Y1893500D01*
X10185000Y1902500D01*
X10192000Y1908500D01*
X10200000Y1910000D01*
X10208000Y1908500D01*
X10215000Y1902500D01*
X10221000Y1893500D01*
X10225000Y1883000D01*
X10227000Y1871000D01*
Y1859000D01*
X10225000Y1847000D01*
X10221000Y1836500D01*
X10215000Y1827500D01*
X10208000Y1821500D01*
X10200000Y1820000D01*
G01X10208000Y1844000D02*
X10220000Y1820000D01*
G01X10251000D02*
Y1910000D01*
X10289000D01*
G01X10275000Y1866500D02*
X10251000D01*
G01X10317000Y1820000D02*
Y1910000D01*
X10363000Y1820000D01*
Y1910000D01*
G01X10391000Y1857500D02*
X10398000Y1868000D01*
X10404000Y1874000D01*
X10412000Y1877000D01*
X10419000Y1874000D01*
X10424000Y1868000D01*
X10428000Y1859000D01*
X10429000Y1848500D01*
X10428000Y1839500D01*
X10424000Y1830500D01*
X10418000Y1823000D01*
X10411000Y1820000D01*
X10403000Y1823000D01*
X10396000Y1832000D01*
X10392000Y1845500D01*
X10391000Y1860500D01*
X10393000Y1880000D01*
X10396000Y1890500D01*
X10401000Y1901000D01*
X10408000Y1908500D01*
X10415000Y1910000D01*
X10422000Y1907000D01*
X10427000Y1899500D01*
G01X10492000Y1820000D02*
Y1910000D01*
X10455000Y1845500D01*
X10505000D01*
G01X10260000Y2880000D02*
X10252000Y2881500D01*
X10245000Y2887500D01*
X10239000Y2896500D01*
X10235000Y2907000D01*
X10233000Y2919000D01*
Y2931000D01*
X10235000Y2943000D01*
X10239000Y2953500D01*
X10245000Y2962500D01*
X10252000Y2968500D01*
X10260000Y2970000D01*
X10268000Y2968500D01*
X10275000Y2962500D01*
X10281000Y2953500D01*
X10285000Y2943000D01*
X10287000Y2931000D01*
Y2919000D01*
X10285000Y2907000D01*
X10281000Y2896500D01*
X10275000Y2887500D01*
X10268000Y2881500D01*
X10260000Y2880000D01*
G01X10268000Y2904000D02*
X10280000Y2880000D01*
G01X10311000D02*
Y2970000D01*
X10349000D01*
G01X10335000Y2926500D02*
X10311000D01*
G01X10377000Y2880000D02*
Y2970000D01*
X10423000Y2880000D01*
Y2970000D01*
G01X10448000Y2893500D02*
X10454000Y2886000D01*
X10461000Y2881500D01*
X10470000Y2880000D01*
X10479000Y2883000D01*
X10486000Y2889000D01*
X10491000Y2899500D01*
X10492000Y2911500D01*
X10490000Y2923500D01*
X10485000Y2931000D01*
X10478000Y2937000D01*
X10471000Y2938500D01*
X10464000Y2937000D01*
X10455000Y2931000D01*
X10458000Y2970000D01*
X10485000D01*
G01X10521000Y2917500D02*
X10528000Y2928000D01*
X10534000Y2934000D01*
X10542000Y2937000D01*
X10549000Y2934000D01*
X10554000Y2928000D01*
X10558000Y2919000D01*
X10559000Y2908500D01*
X10558000Y2899500D01*
X10554000Y2890500D01*
X10548000Y2883000D01*
X10541000Y2880000D01*
X10533000Y2883000D01*
X10526000Y2892000D01*
X10522000Y2905500D01*
X10521000Y2920500D01*
X10523000Y2940000D01*
X10526000Y2950500D01*
X10531000Y2961000D01*
X10538000Y2968500D01*
X10545000Y2970000D01*
X10552000Y2967000D01*
X10557000Y2959500D01*
G01X10140000Y3500000D02*
Y3610000D01*
X10124000Y3588000D01*
G01Y3500000D02*
X10156000D01*
G01X10140000D02*
Y3610000D01*
X10124000Y3588000D01*
G01Y3500000D02*
X10156000D01*
G01X10260000Y3610000D02*
X10249330Y3606330D01*
X10241330Y3597170D01*
X10236000Y3586170D01*
X10232000Y3571500D01*
X10230670Y3555000D01*
X10232000Y3538500D01*
X10236000Y3523830D01*
X10241330Y3512830D01*
X10249330Y3503670D01*
X10260000Y3500000D01*
X10270670Y3503670D01*
X10278670Y3512830D01*
X10284000Y3523830D01*
X10288000Y3538500D01*
X10289330Y3555000D01*
X10288000Y3571500D01*
X10284000Y3586170D01*
X10278670Y3597170D01*
X10270670Y3606330D01*
X10260000Y3610000D01*
G01X10983000Y1494340D02*
Y1429840D01*
X10987000Y1416340D01*
X10995000Y1407340D01*
X11005000Y1404340D01*
X11015000Y1407340D01*
X11023000Y1416340D01*
X11027000Y1429840D01*
Y1494340D01*
G01X11073000Y1404340D02*
X11075000Y1423840D01*
X11078000Y1440340D01*
X11082000Y1455340D01*
X11087000Y1471840D01*
X11095000Y1494340D01*
X11055000D01*
G01X10983000Y2605000D02*
Y2540500D01*
X10987000Y2527000D01*
X10995000Y2518000D01*
X11005000Y2515000D01*
X11015000Y2518000D01*
X11023000Y2527000D01*
X11027000Y2540500D01*
Y2605000D01*
G01X11056000Y2552500D02*
X11063000Y2563000D01*
X11069000Y2569000D01*
X11077000Y2572000D01*
X11084000Y2569000D01*
X11089000Y2563000D01*
X11093000Y2554000D01*
X11094000Y2543500D01*
X11093000Y2534500D01*
X11089000Y2525500D01*
X11083000Y2518000D01*
X11076000Y2515000D01*
X11068000Y2518000D01*
X11061000Y2527000D01*
X11057000Y2540500D01*
X11056000Y2555500D01*
X11058000Y2575000D01*
X11061000Y2585500D01*
X11066000Y2596000D01*
X11073000Y2603500D01*
X11080000Y2605000D01*
X11087000Y2602000D01*
X11092000Y2594500D01*
G01X11140000Y3500000D02*
Y3610000D01*
X11124000Y3588000D01*
G01Y3500000D02*
X11156000D01*
G01X11140000D02*
Y3610000D01*
X11124000Y3588000D01*
G01Y3500000D02*
X11156000D01*
G01X11254000Y500000D02*
Y390000D01*
X11303330Y468830D01*
X11236670D01*
G01X11260000Y3500000D02*
Y3610000D01*
X11244000Y3588000D01*
G01Y3500000D02*
X11276000D01*
G01X11838000Y1060000D02*
Y1150000D01*
X11858000D01*
X11866000Y1145500D01*
X11872000Y1139500D01*
X11877000Y1130500D01*
X11881000Y1120000D01*
X11882000Y1105000D01*
X11881000Y1090000D01*
X11877000Y1079500D01*
X11872000Y1070500D01*
X11866000Y1064500D01*
X11858000Y1060000D01*
X11838000D01*
G01X11908000D02*
Y1150000D01*
X11928000D01*
X11936000Y1145500D01*
X11942000Y1139500D01*
X11947000Y1130500D01*
X11951000Y1120000D01*
X11952000Y1105000D01*
X11951000Y1090000D01*
X11947000Y1079500D01*
X11942000Y1070500D01*
X11936000Y1064500D01*
X11928000Y1060000D01*
X11908000D01*
G01X11980000D02*
Y1150000D01*
X12005000D01*
X12013000Y1145500D01*
X12018000Y1139500D01*
X12020000Y1127500D01*
X12018000Y1115500D01*
X12012000Y1108000D01*
X12005000Y1103500D01*
X11980000D01*
G01X12005000D02*
X12020000Y1060000D01*
G01X12048000Y1078000D02*
X12054000Y1067500D01*
X12062000Y1061500D01*
X12071000Y1060000D01*
X12079000Y1061500D01*
X12087000Y1069000D01*
X12092000Y1078000D01*
X12093000Y1087000D01*
X12091000Y1097500D01*
X12084000Y1105000D01*
X12077000Y1108000D01*
X12068000D01*
G01X12077000D02*
X12083000Y1112500D01*
X12088000Y1120000D01*
X12090000Y1129000D01*
X12088000Y1138000D01*
X12083000Y1145500D01*
X12074000Y1150000D01*
X12065000Y1148500D01*
X12056000Y1142500D01*
G01X12120000Y1150000D02*
Y1060000D01*
X12160000D01*
G01X11871000Y2640000D02*
Y2730000D01*
X11909000D01*
G01X11895000Y2686500D02*
X11871000D01*
G01X11968000Y2688000D02*
X11972000Y2692500D01*
X11975000Y2700000D01*
X11977000Y2710500D01*
X11975000Y2719500D01*
X11971000Y2725500D01*
X11964000Y2730000D01*
X11937000D01*
Y2640000D01*
X11970000D01*
X11977000Y2646000D01*
X11981000Y2655000D01*
X11983000Y2665500D01*
X11981000Y2676000D01*
X11975000Y2685000D01*
X11968000Y2688000D01*
X11937000D01*
G01X12036000Y2685000D02*
X12056000D01*
Y2658000D01*
X12050000Y2649000D01*
X12043000Y2643000D01*
X12033000Y2640000D01*
X12023000Y2643000D01*
X12016000Y2649000D01*
X12010000Y2658000D01*
X12006000Y2668500D01*
X12004000Y2680500D01*
Y2691000D01*
X12006000Y2700000D01*
X12010000Y2710500D01*
X12016000Y2719500D01*
X12022000Y2725500D01*
X12030000Y2730000D01*
X12037000D01*
X12045000Y2727000D01*
X12051000Y2721000D01*
G01X12075000Y2640000D02*
X12100000Y2730000D01*
X12125000Y2640000D01*
G01X12116000Y2671500D02*
X12084000D01*
G01X12153000Y2650500D02*
X12160000Y2643000D01*
X12168000Y2640000D01*
X12176000Y2643000D01*
X12183000Y2652000D01*
X12188000Y2665500D01*
X12190000Y2679000D01*
Y2695500D01*
X12188000Y2709000D01*
X12183000Y2721000D01*
X12177000Y2727000D01*
X12170000Y2730000D01*
X12162000Y2727000D01*
X12156000Y2721000D01*
X12152000Y2712000D01*
X12150000Y2700000D01*
X12152000Y2689500D01*
X12157000Y2679000D01*
X12163000Y2673000D01*
X12170000Y2671500D01*
X12178000Y2674500D01*
X12184000Y2682000D01*
X12190000Y2695500D01*
G01X12221000Y2677500D02*
X12228000Y2688000D01*
X12234000Y2694000D01*
X12242000Y2697000D01*
X12249000Y2694000D01*
X12254000Y2688000D01*
X12258000Y2679000D01*
X12259000Y2668500D01*
X12258000Y2659500D01*
X12254000Y2650500D01*
X12248000Y2643000D01*
X12241000Y2640000D01*
X12233000Y2643000D01*
X12226000Y2652000D01*
X12222000Y2665500D01*
X12221000Y2680500D01*
X12223000Y2700000D01*
X12226000Y2710500D01*
X12231000Y2721000D01*
X12238000Y2728500D01*
X12245000Y2730000D01*
X12252000Y2727000D01*
X12257000Y2719500D01*
G01X12299330Y478000D02*
X12291330Y490840D01*
X12280670Y498170D01*
X12268670Y500000D01*
X12258000Y498170D01*
X12247330Y489000D01*
X12240670Y478000D01*
X12239330Y467000D01*
X12242000Y454170D01*
X12251330Y445000D01*
X12260670Y441330D01*
X12272670D01*
G01X12260670D02*
X12252670Y435830D01*
X12246000Y426670D01*
X12243330Y415670D01*
X12246000Y404670D01*
X12252670Y395500D01*
X12264670Y390000D01*
X12276670Y391830D01*
X12288670Y399170D01*
G01X12128000Y1945000D02*
Y1880500D01*
X12132000Y1867000D01*
X12140000Y1858000D01*
X12150000Y1855000D01*
X12160000Y1858000D01*
X12168000Y1867000D01*
X12172000Y1880500D01*
Y1945000D01*
G01X12220000Y1855000D02*
Y1945000D01*
X12208000Y1927000D01*
G01Y1855000D02*
X12232000D01*
G01X12290000Y1945000D02*
X12282000Y1942000D01*
X12276000Y1934500D01*
X12272000Y1925500D01*
X12269000Y1913500D01*
X12268000Y1900000D01*
X12269000Y1886500D01*
X12272000Y1874500D01*
X12276000Y1865500D01*
X12282000Y1858000D01*
X12290000Y1855000D01*
X12298000Y1858000D01*
X12304000Y1865500D01*
X12308000Y1874500D01*
X12311000Y1886500D01*
X12312000Y1900000D01*
X12311000Y1913500D01*
X12308000Y1925500D01*
X12304000Y1934500D01*
X12298000Y1942000D01*
X12290000Y1945000D01*
G01X12140000Y3500000D02*
Y3610000D01*
X12124000Y3588000D01*
G01Y3500000D02*
X12156000D01*
G01X12140000D02*
Y3610000D01*
X12124000Y3588000D01*
G01Y3500000D02*
X12156000D01*
G01X12234670Y3591670D02*
X12242670Y3602660D01*
X12252000Y3608170D01*
X12262670Y3610000D01*
X12276000Y3606330D01*
X12285330Y3597170D01*
X12288000Y3586170D01*
X12286670Y3575160D01*
X12281330Y3566000D01*
X12254670Y3547670D01*
X12242670Y3534830D01*
X12234670Y3516500D01*
X12232000Y3500000D01*
X12288000D01*
G01X13295330Y408330D02*
X13287330Y397340D01*
X13278000Y391830D01*
X13267330Y390000D01*
X13254000Y393670D01*
X13244670Y402830D01*
X13242000Y413830D01*
X13243330Y424840D01*
X13248670Y434000D01*
X13275330Y452330D01*
X13287330Y465170D01*
X13295330Y483500D01*
X13298000Y500000D01*
X13242000D01*
G01X12919000Y1060000D02*
X12961000Y1150000D01*
G01X12919000D02*
X12961000Y1060000D01*
G01X13032000Y1142500D02*
X13026000Y1147000D01*
X13019000Y1150000D01*
X13011000D01*
X13002000Y1145500D01*
X12995000Y1138000D01*
X12990000Y1129000D01*
X12986000Y1114000D01*
X12985000Y1100500D01*
X12987000Y1087000D01*
X12990000Y1078000D01*
X12996000Y1069000D01*
X13003000Y1063000D01*
X13010000Y1060000D01*
X13017000D01*
X13024000Y1063000D01*
X13030000Y1067500D01*
X13035000Y1073500D01*
G01X13061000Y1097500D02*
X13068000Y1108000D01*
X13074000Y1114000D01*
X13082000Y1117000D01*
X13089000Y1114000D01*
X13094000Y1108000D01*
X13098000Y1099000D01*
X13099000Y1088500D01*
X13098000Y1079500D01*
X13094000Y1070500D01*
X13088000Y1063000D01*
X13081000Y1060000D01*
X13073000Y1063000D01*
X13066000Y1072000D01*
X13062000Y1085500D01*
X13061000Y1100500D01*
X13063000Y1120000D01*
X13066000Y1130500D01*
X13071000Y1141000D01*
X13078000Y1148500D01*
X13085000Y1150000D01*
X13092000Y1147000D01*
X13097000Y1139500D01*
G01X13129000Y1072000D02*
X13137000Y1064500D01*
X13146000Y1060000D01*
X13154000D01*
X13162000Y1064500D01*
X13168000Y1072000D01*
X13171000Y1082500D01*
X13169000Y1093000D01*
X13164000Y1102000D01*
X13155000Y1108000D01*
X13143000Y1111000D01*
X13136000Y1117000D01*
X13133000Y1127500D01*
X13135000Y1138000D01*
X13140000Y1145500D01*
X13147000Y1150000D01*
X13154000D01*
X13161000Y1147000D01*
X13167000Y1139500D01*
G01X13200000Y1150000D02*
Y1060000D01*
X13240000D01*
G01X13269000D02*
X13311000Y1150000D01*
G01X13269000D02*
X13311000Y1060000D01*
G01X13360000D02*
Y1150000D01*
X13348000Y1132000D01*
G01Y1060000D02*
X13372000D01*
G01X13411000Y1097500D02*
X13418000Y1108000D01*
X13424000Y1114000D01*
X13432000Y1117000D01*
X13439000Y1114000D01*
X13444000Y1108000D01*
X13448000Y1099000D01*
X13449000Y1088500D01*
X13448000Y1079500D01*
X13444000Y1070500D01*
X13438000Y1063000D01*
X13431000Y1060000D01*
X13423000Y1063000D01*
X13416000Y1072000D01*
X13412000Y1085500D01*
X13411000Y1100500D01*
X13413000Y1120000D01*
X13416000Y1130500D01*
X13421000Y1141000D01*
X13428000Y1148500D01*
X13435000Y1150000D01*
X13442000Y1147000D01*
X13447000Y1139500D01*
G01X12972000Y2832500D02*
X12966000Y2837000D01*
X12959000Y2840000D01*
X12951000D01*
X12942000Y2835500D01*
X12935000Y2828000D01*
X12930000Y2819000D01*
X12926000Y2804000D01*
X12925000Y2790500D01*
X12927000Y2777000D01*
X12930000Y2768000D01*
X12936000Y2759000D01*
X12943000Y2753000D01*
X12950000Y2750000D01*
X12957000D01*
X12964000Y2753000D01*
X12970000Y2757500D01*
X12975000Y2763500D01*
G01X12999000Y2762000D02*
X13007000Y2754500D01*
X13016000Y2750000D01*
X13024000D01*
X13032000Y2754500D01*
X13038000Y2762000D01*
X13041000Y2772500D01*
X13039000Y2783000D01*
X13034000Y2792000D01*
X13025000Y2798000D01*
X13013000Y2801000D01*
X13006000Y2807000D01*
X13003000Y2817500D01*
X13005000Y2828000D01*
X13010000Y2835500D01*
X13017000Y2840000D01*
X13024000D01*
X13031000Y2837000D01*
X13037000Y2829500D01*
G01X13096000Y2795000D02*
X13116000D01*
Y2768000D01*
X13110000Y2759000D01*
X13103000Y2753000D01*
X13093000Y2750000D01*
X13083000Y2753000D01*
X13076000Y2759000D01*
X13070000Y2768000D01*
X13066000Y2778500D01*
X13064000Y2790500D01*
Y2801000D01*
X13066000Y2810000D01*
X13070000Y2820500D01*
X13076000Y2829500D01*
X13082000Y2835500D01*
X13090000Y2840000D01*
X13097000D01*
X13105000Y2837000D01*
X13111000Y2831000D01*
G01X13138000Y2768000D02*
X13144000Y2757500D01*
X13152000Y2751500D01*
X13161000Y2750000D01*
X13169000Y2751500D01*
X13177000Y2759000D01*
X13182000Y2768000D01*
X13183000Y2777000D01*
X13181000Y2787500D01*
X13174000Y2795000D01*
X13167000Y2798000D01*
X13158000D01*
G01X13167000D02*
X13173000Y2802500D01*
X13178000Y2810000D01*
X13180000Y2819000D01*
X13178000Y2828000D01*
X13173000Y2835500D01*
X13164000Y2840000D01*
X13155000Y2838500D01*
X13146000Y2832500D01*
G01X13211000Y2825000D02*
X13217000Y2834000D01*
X13224000Y2838500D01*
X13232000Y2840000D01*
X13242000Y2837000D01*
X13249000Y2829500D01*
X13251000Y2820500D01*
X13250000Y2811500D01*
X13246000Y2804000D01*
X13226000Y2789000D01*
X13217000Y2778500D01*
X13211000Y2763500D01*
X13209000Y2750000D01*
X13251000D01*
G01X13312000D02*
Y2840000D01*
X13275000Y2775500D01*
X13325000D01*
G01X13140000Y3500000D02*
Y3610000D01*
X13124000Y3588000D01*
G01Y3500000D02*
X13156000D01*
G01X13140000D02*
Y3610000D01*
X13124000Y3588000D01*
G01Y3500000D02*
X13156000D01*
G01X13230670Y3522000D02*
X13238670Y3509160D01*
X13249330Y3501830D01*
X13261330Y3500000D01*
X13272000Y3501830D01*
X13282670Y3511000D01*
X13289330Y3522000D01*
X13290670Y3533000D01*
X13288000Y3545830D01*
X13278670Y3555000D01*
X13269330Y3558670D01*
X13257330D01*
G01X13269330D02*
X13277330Y3564170D01*
X13284000Y3573330D01*
X13286670Y3584330D01*
X13284000Y3595330D01*
X13277330Y3604500D01*
X13265330Y3610000D01*
X13253330Y3608170D01*
X13241330Y3600830D01*
G01X13603000Y1995000D02*
Y1930500D01*
X13607000Y1917000D01*
X13615000Y1908000D01*
X13625000Y1905000D01*
X13635000Y1908000D01*
X13643000Y1917000D01*
X13647000Y1930500D01*
Y1995000D01*
G01X13678000Y1915500D02*
X13685000Y1908000D01*
X13693000Y1905000D01*
X13701000Y1908000D01*
X13708000Y1917000D01*
X13713000Y1930500D01*
X13715000Y1944000D01*
Y1960500D01*
X13713000Y1974000D01*
X13708000Y1986000D01*
X13702000Y1992000D01*
X13695000Y1995000D01*
X13687000Y1992000D01*
X13681000Y1986000D01*
X13677000Y1977000D01*
X13675000Y1965000D01*
X13677000Y1954500D01*
X13682000Y1944000D01*
X13688000Y1938000D01*
X13695000Y1936500D01*
X13703000Y1939500D01*
X13709000Y1947000D01*
X13715000Y1960500D01*
G01X14140000Y3500000D02*
Y3610000D01*
X14124000Y3588000D01*
G01Y3500000D02*
X14156000D01*
G01X14140000D02*
Y3610000D01*
X14124000Y3588000D01*
G01Y3500000D02*
X14156000D01*
G01X14270000Y500000D02*
Y390000D01*
X14286000Y412000D01*
G01Y500000D02*
X14254000D01*
G01X14276000Y3500000D02*
Y3610000D01*
X14226670Y3531170D01*
X14293330D01*
G01X14935000Y1823000D02*
X14999500D01*
X15013000Y1827000D01*
X15022000Y1835000D01*
X15025000Y1845000D01*
X15022000Y1855000D01*
X15013000Y1863000D01*
X14999500Y1867000D01*
X14935000D01*
G01X15013000Y1894000D02*
X15020500Y1902000D01*
X15025000Y1911000D01*
Y1919000D01*
X15020500Y1927000D01*
X15013000Y1933000D01*
X15002500Y1936000D01*
X14992000Y1934000D01*
X14983000Y1929000D01*
X14977000Y1920000D01*
X14974000Y1908000D01*
X14968000Y1901000D01*
X14957500Y1898000D01*
X14947000Y1900000D01*
X14939500Y1905000D01*
X14935000Y1912000D01*
Y1919000D01*
X14938000Y1926000D01*
X14945500Y1932000D01*
G01X14977000Y1993000D02*
X14972500Y1997000D01*
X14965000Y2000000D01*
X14954500Y2002000D01*
X14945500Y2000000D01*
X14939500Y1996000D01*
X14935000Y1989000D01*
Y1962000D01*
X15025000D01*
Y1995000D01*
X15019000Y2002000D01*
X15010000Y2006000D01*
X14999500Y2008000D01*
X14989000Y2006000D01*
X14980000Y2000000D01*
X14977000Y1993000D01*
Y1962000D01*
G01X14950000Y2036000D02*
X14941000Y2042000D01*
X14936500Y2049000D01*
X14935000Y2057000D01*
X14938000Y2067000D01*
X14945500Y2074000D01*
X14954500Y2076000D01*
X14963500Y2075000D01*
X14971000Y2071000D01*
X14986000Y2051000D01*
X14996500Y2042000D01*
X15011500Y2036000D01*
X15025000Y2034000D01*
Y2076000D01*
G01X15400000Y1480000D02*
X14730000D01*
G01D02*
Y2420000D01*
X15400000D01*
G01X14610000Y2740000D02*
Y2650000D01*
G01X14587000Y2740000D02*
X14633000D01*
G01X14680000Y2650000D02*
Y2690500D01*
X14660000Y2740000D01*
G01X14700000D02*
X14680000Y2690500D01*
G01X14730000Y2650000D02*
Y2740000D01*
X14754000D01*
X14762000Y2735500D01*
X14768000Y2725000D01*
X14770000Y2713000D01*
X14768000Y2701000D01*
X14763000Y2692000D01*
X14754000Y2687500D01*
X14730000D01*
G01X14840000Y2650000D02*
X14800000D01*
Y2740000D01*
X14840000D01*
G01X14824000Y2696500D02*
X14800000D01*
G01X14912000Y2732500D02*
X14906000Y2737000D01*
X14899000Y2740000D01*
X14891000D01*
X14882000Y2735500D01*
X14875000Y2728000D01*
X14870000Y2719000D01*
X14866000Y2704000D01*
X14865000Y2690500D01*
X14867000Y2677000D01*
X14870000Y2668000D01*
X14876000Y2659000D01*
X14883000Y2653000D01*
X14890000Y2650000D01*
X14897000D01*
X14904000Y2653000D01*
X14910000Y2657500D01*
X14915000Y2663500D01*
G01X14947000Y2680000D02*
X14973000D01*
G01X15030000Y2650000D02*
Y2740000D01*
X15018000Y2722000D01*
G01Y2650000D02*
X15042000D01*
G01X15081000Y2687500D02*
X15088000Y2698000D01*
X15094000Y2704000D01*
X15102000Y2707000D01*
X15109000Y2704000D01*
X15114000Y2698000D01*
X15118000Y2689000D01*
X15119000Y2678500D01*
X15118000Y2669500D01*
X15114000Y2660500D01*
X15108000Y2653000D01*
X15101000Y2650000D01*
X15093000Y2653000D01*
X15086000Y2662000D01*
X15082000Y2675500D01*
X15081000Y2690500D01*
X15083000Y2710000D01*
X15086000Y2720500D01*
X15091000Y2731000D01*
X15098000Y2738500D01*
X15105000Y2740000D01*
X15112000Y2737000D01*
X15117000Y2729500D01*
G01X15150000Y2650000D02*
Y2740000D01*
X15174000D01*
X15182000Y2735500D01*
X15188000Y2725000D01*
X15190000Y2713000D01*
X15188000Y2701000D01*
X15183000Y2692000D01*
X15174000Y2687500D01*
X15150000D01*
G01X15270000Y390000D02*
X15280670Y393670D01*
X15288670Y402830D01*
X15294000Y413830D01*
X15298000Y428500D01*
X15299330Y445000D01*
X15298000Y461500D01*
X15294000Y476170D01*
X15288670Y487170D01*
X15280670Y496330D01*
X15270000Y500000D01*
X15259330Y496330D01*
X15251330Y487170D01*
X15246000Y476170D01*
X15242000Y461500D01*
X15240670Y445000D01*
X15242000Y428500D01*
X15246000Y413830D01*
X15251330Y402830D01*
X15259330Y393670D01*
X15270000Y390000D01*
G01X15140000Y3500000D02*
Y3610000D01*
X15124000Y3588000D01*
G01Y3500000D02*
X15156000D01*
G01X15140000D02*
Y3610000D01*
X15124000Y3588000D01*
G01Y3500000D02*
X15156000D01*
G01X15230670Y3516500D02*
X15238670Y3507330D01*
X15248000Y3501830D01*
X15260000Y3500000D01*
X15272000Y3503670D01*
X15281330Y3511000D01*
X15288000Y3523830D01*
X15289330Y3538500D01*
X15286670Y3553170D01*
X15280000Y3562330D01*
X15270670Y3569670D01*
X15261330Y3571500D01*
X15252000Y3569670D01*
X15240000Y3562330D01*
X15244000Y3610000D01*
X15280000D01*
G54D33*
X9840000Y1290000D03*
G54D15*
X4831510Y2848150D03*
X5471510D03*
G54D42*
X14790000Y1388000D03*
Y2512000D03*
G54D24*
X6350000Y2728150D03*
X6150000D03*
X6250000Y2968150D03*
G54D34*
X9640000Y2045000D03*
Y2095000D03*
Y2145000D03*
Y2195000D03*
Y2245000D03*
Y2295000D03*
X10040000Y2245000D03*
Y2195000D03*
Y2145000D03*
Y2095000D03*
Y2045000D03*
Y2295000D03*
X10590000Y1074340D03*
Y1124340D03*
Y1174340D03*
Y1224340D03*
Y1274340D03*
Y1324340D03*
Y1374340D03*
Y1424340D03*
Y1474340D03*
Y1524340D03*
Y1574340D03*
Y1624340D03*
Y1674340D03*
Y1724340D03*
Y1774340D03*
Y1824340D03*
X10640000Y2235000D03*
Y2285000D03*
Y2335000D03*
Y2385000D03*
Y2435000D03*
Y2485000D03*
Y2535000D03*
Y2585000D03*
Y2635000D03*
Y2685000D03*
Y2735000D03*
Y2785000D03*
Y2835000D03*
Y2885000D03*
X11490000Y1424340D03*
Y1374340D03*
Y1324340D03*
Y1274340D03*
Y1224340D03*
Y1174340D03*
Y1124340D03*
Y1074340D03*
Y1824340D03*
Y1774340D03*
Y1724340D03*
Y1674340D03*
Y1624340D03*
Y1574340D03*
Y1524340D03*
Y1474340D03*
X11440000Y2235000D03*
Y2685000D03*
Y2635000D03*
Y2585000D03*
Y2535000D03*
Y2485000D03*
Y2435000D03*
Y2385000D03*
Y2335000D03*
Y2285000D03*
Y2885000D03*
Y2835000D03*
Y2785000D03*
Y2735000D03*
G54D16*
X5196510Y1000000D03*
X5106510D03*
G54D25*
X7020100Y1004840D03*
Y1385840D03*
Y1131840D03*
Y1258840D03*
Y1766840D03*
Y1639840D03*
Y1512840D03*
Y1893840D03*
X7959900Y1004840D03*
Y1385840D03*
Y1131840D03*
Y1258840D03*
Y1639840D03*
Y1766840D03*
Y1512840D03*
Y1893840D03*
G54D43*
X14660000Y1710000D03*
Y1630000D03*
Y2270000D03*
Y2190000D03*
G54D35*
X9915000Y1970000D03*
X9865000D03*
X9815000D03*
X9765000D03*
X9715000D03*
Y2370000D03*
X9765000D03*
X9815000D03*
X9865000D03*
X9915000D03*
X9965000Y1970000D03*
Y2370000D03*
X10765000Y999340D03*
X10715000D03*
X10665000D03*
Y1899340D03*
X10715000D03*
X10765000D03*
Y2160000D03*
X10715000D03*
Y2960000D03*
X10765000D03*
X11165000Y999340D03*
X11115000D03*
X11065000D03*
X11015000D03*
X10965000D03*
X10915000D03*
X10865000D03*
X10815000D03*
Y1899340D03*
X10865000D03*
X10915000D03*
X10965000D03*
X11015000D03*
X11065000D03*
X11115000D03*
X11165000D03*
Y2160000D03*
X11115000D03*
X11065000D03*
X11015000D03*
X10965000D03*
X10915000D03*
X10865000D03*
X10815000D03*
Y2960000D03*
X10865000D03*
X10915000D03*
X10965000D03*
X11015000D03*
X11065000D03*
X11115000D03*
X11165000D03*
X11415000Y999340D03*
X11365000D03*
X11315000D03*
X11265000D03*
X11215000D03*
Y1899340D03*
X11265000D03*
X11315000D03*
X11365000D03*
X11415000D03*
X11365000Y2160000D03*
X11315000D03*
X11265000D03*
X11215000D03*
Y2960000D03*
X11265000D03*
X11315000D03*
X11365000D03*
G54D17*
X5075310Y1250000D03*
X5227710D03*
G54D26*
X7190000Y2262500D03*
Y2327500D03*
Y2392500D03*
Y2457500D03*
Y2522500D03*
Y2587500D03*
Y2652500D03*
Y2717500D03*
Y2782500D03*
Y2847500D03*
Y2912500D03*
Y2977500D03*
X7790000Y2262500D03*
Y2652500D03*
Y2587500D03*
Y2522500D03*
Y2457500D03*
Y2392500D03*
Y2327500D03*
Y2977500D03*
Y2912500D03*
Y2847500D03*
Y2782500D03*
Y2717500D03*
G54D44*
X14660000Y1825000D03*
Y1775000D03*
Y2125000D03*
Y2075000D03*
Y2025000D03*
Y1975000D03*
Y1925000D03*
Y1875000D03*
G54D18*
X5291510Y1900000D03*
X5011510D03*
G54D36*
X9840000Y2170000D03*
G54D27*
X8486000Y1080000D03*
Y1500000D03*
X8994000Y1080000D03*
Y1500000D03*
G54D45*
X15190000Y1388000D03*
Y2512000D03*
G54D46*
G01X0Y0D02*
X15200000D01*
G03X15400000Y200000I0J200000D01*
G01Y4000000D01*
X200000D01*
G03X0Y3800000I0J-200000D01*
G01Y0D01*
G54D37*
X9840000Y2848150D03*
G54D28*
X8613000Y1850000D03*
Y2070000D03*
X8867000Y1850000D03*
Y2070000D03*
G54D19*
X5049910Y1550000D03*
X5253110D03*
G54D47*
G01X100000Y850000D02*
X15210000D01*
G03X15310000Y950000I0J100000D01*
G01Y3140000D01*
X200000D01*
G03X100000Y3040000I0J-100000D01*
G01Y850000D01*
G01X200000Y500000D02*
Y0D01*
G01X400000Y300000D02*
Y0D01*
G01X500000Y300000D02*
Y0D01*
G01X300000Y300000D02*
Y0D01*
G01X200000Y3500000D02*
Y4000000D01*
G01X300000Y3700000D02*
Y4000000D01*
G01X400000Y3700000D02*
Y4000000D01*
G01X500000Y3700000D02*
Y4000000D01*
G01X900000Y300000D02*
Y0D01*
G01X800000Y300000D02*
Y0D01*
G01X600000Y300000D02*
Y0D01*
G01X700000Y400000D02*
Y0D01*
G01X600000Y3700000D02*
Y4000000D01*
G01X700000Y3600000D02*
Y4000000D01*
G01X900000Y3700000D02*
Y4000000D01*
G01X800000Y3700000D02*
Y4000000D01*
G01X1200000Y500000D02*
Y0D01*
G01X1400000Y300000D02*
Y0D01*
G01X1100000Y300000D02*
Y0D01*
G01X1300000Y300000D02*
Y0D01*
G01X1000000Y300000D02*
Y0D01*
G01X1200000Y3500000D02*
Y4000000D01*
G01X1100000Y3700000D02*
Y4000000D01*
G01X1000000Y3700000D02*
Y4000000D01*
G01X1400000Y3700000D02*
Y4000000D01*
G01X1300000Y3700000D02*
Y4000000D01*
G01X1600000Y300000D02*
Y0D01*
G01X1800000Y300000D02*
Y0D01*
G01X1700000Y400000D02*
Y0D01*
G01X1500000Y300000D02*
Y0D01*
G01X1600000Y3700000D02*
Y4000000D01*
G01X1500000Y3700000D02*
Y4000000D01*
G01X1800000Y3700000D02*
Y4000000D01*
G01X1700000Y3600000D02*
Y4000000D01*
G01X2200000Y500000D02*
Y0D01*
G01X2100000Y300000D02*
Y0D01*
G01X1900000Y300000D02*
Y0D01*
G01X2000000Y300000D02*
Y0D01*
G01X2200000Y3500000D02*
Y4000000D01*
G01X1900000Y3700000D02*
Y4000000D01*
G01X2000000Y3700000D02*
Y4000000D01*
G01X2100000Y3700000D02*
Y4000000D01*
G01X2400000Y300000D02*
Y0D01*
G01X2500000Y300000D02*
Y0D01*
G01X2600000Y300000D02*
Y0D01*
G01X2300000Y300000D02*
Y0D01*
G01X2600000Y3700000D02*
Y4000000D01*
G01X2500000Y3700000D02*
Y4000000D01*
G01X2400000Y3700000D02*
Y4000000D01*
G01X2300000Y3700000D02*
Y4000000D01*
G01X3100000Y300000D02*
Y0D01*
G01X3000000Y300000D02*
Y0D01*
G01X2900000Y300000D02*
Y0D01*
G01X2800000Y300000D02*
Y0D01*
G01X2700000Y400000D02*
Y0D01*
G01X2800000Y3700000D02*
Y4000000D01*
G01X2900000Y3700000D02*
Y4000000D01*
G01X3000000Y3700000D02*
Y4000000D01*
G01X3100000Y3700000D02*
Y4000000D01*
G01X2700000Y3600000D02*
Y4000000D01*
G01X3200000Y500000D02*
Y0D01*
G01X3500000Y300000D02*
Y0D01*
G01X3400000Y300000D02*
Y0D01*
G01X3300000Y300000D02*
Y0D01*
G01X3200000Y3500000D02*
Y4000000D01*
G01X3300000Y3700000D02*
Y4000000D01*
G01X3400000Y3700000D02*
Y4000000D01*
G01X3500000Y3700000D02*
Y4000000D01*
G01X3800000Y300000D02*
Y0D01*
G01X3900000Y300000D02*
Y0D01*
G01X3700000Y400000D02*
Y0D01*
G01X3600000Y300000D02*
Y0D01*
G01X3780000Y990000D02*
X4100000D01*
G01X3940000Y1100000D02*
G03Y1050000I0J-25000D01*
G01Y990000D01*
G01X3780000Y1310000D02*
X4100000D01*
G01X3940000Y1150000D02*
G03Y1100000I0J-25000D01*
G01Y1200000D02*
G03Y1150000I0J-25000D01*
G01Y1200000D02*
G02Y1250000I0J25000D01*
G01Y1300000D01*
G01X3640000Y3010000D02*
X3570000D01*
Y2390000D01*
X4310000D01*
Y3010000D01*
X3640000D01*
G01X3600000Y3700000D02*
Y4000000D01*
G01X3700000Y3600000D02*
Y4000000D01*
G01X3900000Y3700000D02*
Y4000000D01*
G01X3800000Y3700000D02*
Y4000000D01*
G01X4200000Y500000D02*
Y0D01*
G01X4300000Y300000D02*
Y0D01*
G01X4000000Y300000D02*
Y0D01*
G01X4100000Y300000D02*
Y0D01*
G01X4200000Y3500000D02*
Y4000000D01*
G01X4100000Y3700000D02*
Y4000000D01*
G01X4000000Y3700000D02*
Y4000000D01*
G01X4300000Y3700000D02*
Y4000000D01*
G01X4800000Y300000D02*
Y0D01*
G01X4700000Y400000D02*
Y0D01*
G01X4500000Y300000D02*
Y0D01*
G01X4600000Y300000D02*
Y0D01*
G01X4400000Y300000D02*
Y0D01*
G01X4801510Y2480000D02*
X5501510D01*
Y2160000D01*
X4801510D01*
Y2480000D01*
G01X4600000Y3700000D02*
Y4000000D01*
G01X4500000Y3700000D02*
Y4000000D01*
G01X4400000Y3700000D02*
Y4000000D01*
G01X4800000Y3700000D02*
Y4000000D01*
G01X4700000Y3600000D02*
Y4000000D01*
G01X5200000Y500000D02*
Y0D01*
G01X5100000Y300000D02*
Y0D01*
G01X5000000Y300000D02*
Y0D01*
G01X4900000Y300000D02*
Y0D01*
G01X5061510Y1050000D02*
X5241510D01*
Y950000D01*
X5061510D01*
Y1050000D01*
G01X5011510Y1310000D02*
Y1190000D01*
X5291510D01*
Y1310000D01*
X5011510D01*
G01X4911510Y2010000D02*
X5391510D01*
Y1790000D01*
X4911510D01*
Y2010000D01*
G01X4981510Y1630000D02*
X5321510D01*
Y1470000D01*
X4981510D01*
Y1630000D01*
G01X5200000Y3500000D02*
Y4000000D01*
G01X4900000Y3700000D02*
Y4000000D01*
G01X5000000Y3700000D02*
Y4000000D01*
G01X5100000Y3700000D02*
Y4000000D01*
G01X5600000Y300000D02*
Y0D01*
G01X5500000Y300000D02*
Y0D01*
G01X5400000Y300000D02*
Y0D01*
G01X5300000Y300000D02*
Y0D01*
G01Y3700000D02*
Y4000000D01*
G01X5400000Y3700000D02*
Y4000000D01*
G01X5500000Y3700000D02*
Y4000000D01*
G01X5600000Y3700000D02*
Y4000000D01*
G01X5800000Y300000D02*
Y0D01*
G01X5900000Y300000D02*
Y0D01*
G01X6000000Y300000D02*
Y0D01*
G01X5700000Y400000D02*
Y0D01*
G01X6170000Y1460000D02*
X6080000D01*
Y960000D01*
X6420000D01*
Y1460000D01*
X6330000D01*
G01X5700000Y3600000D02*
Y4000000D01*
G01X6000000Y3700000D02*
Y4000000D01*
G01X5900000Y3700000D02*
Y4000000D01*
G01X5800000Y3700000D02*
Y4000000D01*
G01X6300000Y300000D02*
Y0D01*
G01X6400000Y300000D02*
Y0D01*
G01X6500000Y300000D02*
Y0D01*
G01X6200000Y500000D02*
Y0D01*
G01X6100000Y300000D02*
Y0D01*
G01X6330000Y1460000D02*
G02X6170000I-80000J0D01*
G01X6090000Y1610000D02*
Y2110000D01*
X6210000D01*
G01X6290000D02*
X6410000D01*
Y1610000D01*
X6090000D01*
G01X6210000Y2110000D02*
G03X6290000I40000J4108D01*
G01X6300800Y2529700D02*
Y2237600D01*
X6199200D01*
Y2542400D01*
X6224600D01*
G01X6275400D02*
G02X6224600I-25400J0D01*
G01X6300800Y2529700D02*
Y2542400D01*
X6275400D01*
G01X6300000Y2928150D02*
X6410000D01*
Y2768150D01*
G01X6200000D02*
X6300000D01*
G01X6200000Y2928150D02*
X6090000D01*
Y2768150D01*
G01X6200000Y3500000D02*
Y4000000D01*
G01X6100000Y3700000D02*
Y4000000D01*
G01X6500000Y3700000D02*
Y4000000D01*
G01X6400000Y3700000D02*
Y4000000D01*
G01X6300000Y3700000D02*
Y4000000D01*
G01X6900000Y300000D02*
Y0D01*
G01X6800000Y300000D02*
Y0D01*
G01X6600000Y300000D02*
Y0D01*
G01X6700000Y400000D02*
Y0D01*
G01X6600000Y3700000D02*
Y4000000D01*
G01X6800000Y3700000D02*
Y4000000D01*
G01X6900000Y3700000D02*
Y4000000D01*
G01X6700000Y3600000D02*
Y4000000D01*
G01X7300000Y300000D02*
Y0D01*
G01X7200000Y500000D02*
Y0D01*
G01X7100000Y300000D02*
Y0D01*
G01X7000000Y300000D02*
Y0D01*
G01X7450000Y3020000D02*
X7290000D01*
Y2220000D01*
X7690000D01*
Y3020000D01*
X7530000D01*
G01X7200000Y3500000D02*
Y4000000D01*
G01X7000000Y3700000D02*
Y4000000D01*
G01X7100000Y3700000D02*
Y4000000D01*
G01X7300000Y3700000D02*
Y4000000D01*
G01X7600000Y300000D02*
Y0D01*
G01X7500000Y300000D02*
Y0D01*
G01X7400000Y300000D02*
Y0D01*
G01X7700000Y400000D02*
Y0D01*
G01X7530000Y3020000D02*
G02X7450000I-40000J0D01*
G01X7400000Y3700000D02*
Y4000000D01*
G01X7500000Y3700000D02*
Y4000000D01*
G01X7600000Y3700000D02*
Y4000000D01*
G01X7700000Y3600000D02*
Y4000000D01*
G01X8200000Y500000D02*
Y0D01*
G01X8100000Y300000D02*
Y0D01*
G01X7800000Y300000D02*
Y0D01*
G01X7900000Y300000D02*
Y0D01*
G01X8000000Y300000D02*
Y0D01*
G01X8200000Y3500000D02*
Y4000000D01*
G01X8100000Y3700000D02*
Y4000000D01*
G01X8000000Y3700000D02*
Y4000000D01*
G01X7900000Y3700000D02*
Y4000000D01*
G01X7800000Y3700000D02*
Y4000000D01*
G01X8600000Y300000D02*
Y0D01*
G01X8300000Y300000D02*
Y0D01*
G01X8400000Y300000D02*
Y0D01*
G01X8500000Y300000D02*
Y0D01*
G01X8600000Y1030000D02*
X8880000D01*
G01X8370000Y1550000D02*
Y1030000D01*
G01X8600000Y1550000D02*
X8880000D01*
G01X8510000Y2130000D02*
X8480000D01*
Y1790000D01*
X8510000D01*
G01X8530000Y2660000D02*
Y2300000D01*
X8950000D01*
Y2660000D01*
X8530000D01*
G01X8600000Y3700000D02*
Y4000000D01*
G01X8500000Y3700000D02*
Y4000000D01*
G01X8400000Y3700000D02*
Y4000000D01*
G01X8300000Y3700000D02*
Y4000000D01*
G01X9000000Y300000D02*
Y0D01*
G01X8900000Y300000D02*
Y0D01*
G01X8800000Y300000D02*
Y0D01*
G01X8700000Y400000D02*
Y0D01*
G01X8970000Y1790000D02*
X9000000D01*
G01X8710000D02*
X8770000D01*
G01X9000000Y2130000D02*
Y1790000D01*
G01X8970000Y2130000D02*
X9000000D01*
G01X8710000D02*
X8770000D01*
G01X8800000Y3700000D02*
Y4000000D01*
G01X8900000Y3700000D02*
Y4000000D01*
G01X9000000Y3700000D02*
Y4000000D01*
G01X8700000Y3600000D02*
Y4000000D01*
G01X9400000Y300000D02*
Y0D01*
G01X9200000Y500000D02*
Y0D01*
G01X9100000Y300000D02*
Y0D01*
G01X9300000Y300000D02*
Y0D01*
G01X9110000Y1550000D02*
Y1030000D01*
G01X9200000Y3500000D02*
Y4000000D01*
G01X9100000Y3700000D02*
Y4000000D01*
G01X9300000Y3700000D02*
Y4000000D01*
G01X9400000Y3700000D02*
Y4000000D01*
G01X9900000Y300000D02*
Y0D01*
G01X9800000Y300000D02*
Y0D01*
G01X9600000Y300000D02*
Y0D01*
G01X9500000Y300000D02*
Y0D01*
G01X9700000Y400000D02*
Y0D01*
G01X9580000Y1100000D02*
Y1030000D01*
X9650000D01*
G01Y1550000D02*
X9580000D01*
Y1480000D01*
G01X9630000Y2010000D02*
Y1960000D01*
X9680000D01*
G01Y2380000D02*
X9630000D01*
Y2330000D01*
G01X10000000Y2708150D02*
Y2688150D01*
X9680000D01*
Y2708150D01*
G01Y2988150D02*
Y3008150D01*
X10000000D01*
Y2988150D01*
G01X9500000Y3700000D02*
Y4000000D01*
G01X9600000Y3700000D02*
Y4000000D01*
G01X9700000Y3600000D02*
Y4000000D01*
G01X9900000Y3700000D02*
Y4000000D01*
G01X9800000Y3700000D02*
Y4000000D01*
G01X10200000Y500000D02*
Y0D01*
G01X10300000Y300000D02*
Y0D01*
G01X10000000Y300000D02*
Y0D01*
G01X10100000Y300000D02*
Y0D01*
G01X10030000Y1030000D02*
X10100000D01*
Y1100000D01*
G01Y1480000D02*
Y1550000D01*
X10030000D01*
G01X10000000Y1960000D02*
X10050000D01*
Y2010000D01*
G01Y2330000D02*
Y2380000D01*
X10000000D01*
G01X10200000Y3500000D02*
Y4000000D01*
G01X10100000Y3700000D02*
Y4000000D01*
G01X10000000Y3700000D02*
Y4000000D01*
G01X10300000Y3700000D02*
Y4000000D01*
G01X10400000Y300000D02*
Y0D01*
G01X10500000Y300000D02*
Y0D01*
G01X10600000Y300000D02*
Y0D01*
G01X10700000Y400000D02*
Y0D01*
G01X10580000Y1039340D02*
Y989340D01*
X10630000D01*
G01Y1909340D02*
X10580000D01*
Y1859340D01*
G01X10630000Y2200000D02*
Y2150000D01*
X10680000D01*
G01Y2970000D02*
X10630000D01*
Y2920000D01*
G01X10600000Y3700000D02*
Y4000000D01*
G01X10500000Y3700000D02*
Y4000000D01*
G01X10400000Y3700000D02*
Y4000000D01*
G01X10700000Y3600000D02*
Y4000000D01*
G01X11100000Y300000D02*
Y0D01*
G01X11000000Y300000D02*
Y0D01*
G01X10900000Y300000D02*
Y0D01*
G01X10800000Y300000D02*
Y0D01*
G01Y3700000D02*
Y4000000D01*
G01X10900000Y3700000D02*
Y4000000D01*
G01X11000000Y3700000D02*
Y4000000D01*
G01X11100000Y3700000D02*
Y4000000D01*
G01X11600000Y300000D02*
Y0D01*
G01X11500000Y300000D02*
Y0D01*
G01X11400000Y300000D02*
Y0D01*
G01X11200000Y500000D02*
Y0D01*
G01X11300000Y300000D02*
Y0D01*
G01X11450000Y989340D02*
X11500000D01*
Y1039340D01*
G01Y1859340D02*
Y1909340D01*
X11450000D01*
G01X11400000Y2150000D02*
X11450000D01*
Y2200000D01*
G01Y2920000D02*
Y2970000D01*
X11400000D01*
G01X11200000Y3500000D02*
Y4000000D01*
G01X11300000Y3700000D02*
Y4000000D01*
G01X11400000Y3700000D02*
Y4000000D01*
G01X11500000Y3700000D02*
Y4000000D01*
G01X11600000Y3700000D02*
Y4000000D01*
G01X11900000Y300000D02*
Y0D01*
G01X12000000Y300000D02*
Y0D01*
G01X11800000Y300000D02*
Y0D01*
G01X11700000Y400000D02*
Y0D01*
G01X11864400Y1199950D02*
X11820760D01*
Y2550750D01*
G01X12593380Y1199950D02*
X11828840D01*
G01X11820760Y1242650D02*
Y2489790D01*
G01X11817710Y2583770D02*
X11802470Y2632030D01*
X11766910Y2573610D01*
X11817710Y2583770D01*
G01X12613700Y2599950D02*
X11867120D01*
Y2598830D01*
X11824090Y2555830D01*
G01X11820760Y2550750D02*
Y2499950D01*
G01X11700000Y3600000D02*
Y4000000D01*
G01X12000000Y3700000D02*
Y4000000D01*
G01X11900000Y3700000D02*
Y4000000D01*
G01X11800000Y3700000D02*
Y4000000D01*
G01X12200000Y500000D02*
Y0D01*
G01X12300000Y300000D02*
Y0D01*
G01X12400000Y300000D02*
Y0D01*
G01X12100000Y300000D02*
Y0D01*
G01X12200000Y3500000D02*
Y4000000D01*
G01X12100000Y3700000D02*
Y4000000D01*
G01X12400000Y3700000D02*
Y4000000D01*
G01X12300000Y3700000D02*
Y4000000D01*
G01X12800000Y300000D02*
Y0D01*
G01X12500000Y300000D02*
Y0D01*
G01X12600000Y300000D02*
Y0D01*
G01X12700000Y400000D02*
Y0D01*
G01X12619160Y2560910D02*
Y1199950D01*
X12550200D01*
G01X12573060Y2599950D02*
X12619160D01*
Y2563450D01*
G01X12857360Y2742480D02*
X12867520Y2752640D01*
G01X12847200Y2742480D02*
X12867520Y2762800D01*
G01X12816720Y2742480D02*
X12867520Y2793280D01*
G01X12872600Y2783120D02*
X12829420Y2739940D01*
G01X12811640Y2742480D02*
X12870060Y2800900D01*
G01X12796400Y2742480D02*
X12872600Y2818680D01*
G01Y2737400D02*
Y2833920D01*
G01X12776080Y2737400D02*
X12872600D01*
G01X12870060Y2831380D02*
X12776080Y2737400D01*
G01X12600000Y3700000D02*
Y4000000D01*
G01X12500000Y3700000D02*
Y4000000D01*
G01X12800000Y3700000D02*
Y4000000D01*
G01X12700000Y3600000D02*
Y4000000D01*
G01X13200000Y500000D02*
Y0D01*
G01X13300000Y300000D02*
Y0D01*
G01X13100000Y300000D02*
Y0D01*
G01X13000000Y300000D02*
Y0D01*
G01X12900000Y300000D02*
Y0D01*
G01X14410010Y1199990D02*
X12909990D01*
G01D02*
Y2682000D01*
G01D02*
X12928000Y2700010D01*
G01D02*
X14410010D01*
G01X13200000Y3500000D02*
Y4000000D01*
G01X12900000Y3700000D02*
Y4000000D01*
G01X13000000Y3700000D02*
Y4000000D01*
G01X13100000Y3700000D02*
Y4000000D01*
G01X13300000Y3700000D02*
Y4000000D01*
G01X13500000Y300000D02*
Y0D01*
G01X13600000Y300000D02*
Y0D01*
G01X13700000Y400000D02*
Y0D01*
G01X13400000Y300000D02*
Y0D01*
G01Y3700000D02*
Y4000000D01*
G01X13500000Y3700000D02*
Y4000000D01*
G01X13600000Y3700000D02*
Y4000000D01*
G01X13700000Y3600000D02*
Y4000000D01*
G01X14100000Y300000D02*
Y0D01*
G01X14000000Y300000D02*
Y0D01*
G01X13900000Y300000D02*
Y0D01*
G01X13800000Y300000D02*
Y0D01*
G01X14100000Y3700000D02*
Y4000000D01*
G01X14000000Y3700000D02*
Y4000000D01*
G01X13900000Y3700000D02*
Y4000000D01*
G01X13800000Y3700000D02*
Y4000000D01*
G01X14500000Y300000D02*
Y0D01*
G01X14200000Y500000D02*
Y0D01*
G01X14400000Y300000D02*
Y0D01*
G01X14300000Y300000D02*
Y0D01*
G01X14410010Y2700010D02*
Y1199990D01*
G01X14200000Y3500000D02*
Y4000000D01*
G01X14500000Y3700000D02*
Y4000000D01*
G01X14400000Y3700000D02*
Y4000000D01*
G01X14300000Y3700000D02*
Y4000000D01*
G01X15000000Y300000D02*
Y0D01*
G01X14800000Y300000D02*
Y0D01*
G01X14900000Y300000D02*
Y0D01*
G01X14600000Y300000D02*
Y0D01*
G01X14700000Y400000D02*
Y0D01*
G01X14800000Y3700000D02*
Y4000000D01*
G01X14900000Y3700000D02*
Y4000000D01*
G01X15000000Y3700000D02*
Y4000000D01*
G01X14700000Y3600000D02*
Y4000000D01*
G01X14600000Y3700000D02*
Y4000000D01*
G01X15200000Y500000D02*
Y0D01*
G01X15100000Y300000D02*
Y0D01*
G01X15200000Y3500000D02*
Y4000000D01*
G01X15100000Y3700000D02*
Y4000000D01*
G54D38*
X11040000Y2560000D03*
G54D29*
X8620000Y2385000D03*
Y2575000D03*
X8860000Y2385000D03*
Y2575000D03*
G54D48*
G01X620000Y1008000D02*
X621310Y1001180D01*
X625250Y993400D01*
X631810Y988530D01*
X641000Y986580D01*
X650180Y988530D01*
X658060Y994370D01*
X662000Y1003130D01*
Y1012870D01*
X664620Y1018710D01*
X671180Y1023580D01*
X680370Y1025530D01*
X689550Y1022600D01*
X696120Y1015790D01*
X698740Y1008000D01*
X696120Y1000210D01*
X689550Y993400D01*
X680370Y990470D01*
X671180Y992420D01*
X664620Y997290D01*
X662000Y1003130D01*
Y1012870D01*
X658060Y1021630D01*
X650180Y1027470D01*
X641000Y1029420D01*
X631810Y1027470D01*
X625250Y1022600D01*
X621310Y1014820D01*
X620000Y1008000D01*
G01Y1269950D02*
X637060Y1268000D01*
X651490Y1265080D01*
X664620Y1261180D01*
X679050Y1256320D01*
X698740Y1248530D01*
Y1287470D01*
G01X652810Y1536500D02*
X662000Y1529680D01*
X667240Y1523840D01*
X669870Y1516050D01*
X667240Y1509240D01*
X662000Y1504370D01*
X654120Y1500470D01*
X644930Y1499500D01*
X637060Y1500470D01*
X629180Y1504370D01*
X622620Y1510210D01*
X620000Y1517030D01*
X622620Y1524820D01*
X630500Y1531630D01*
X642310Y1535530D01*
X655430Y1536500D01*
X672490Y1534550D01*
X681680Y1531630D01*
X690870Y1526760D01*
X697430Y1519950D01*
X698740Y1513130D01*
X696120Y1506320D01*
X689550Y1501450D01*
G01X631810Y1789420D02*
X625250Y1783580D01*
X621310Y1776760D01*
X620000Y1768000D01*
X622620Y1759240D01*
X627870Y1752420D01*
X637060Y1747550D01*
X647560Y1746580D01*
X658060Y1748530D01*
X664620Y1753400D01*
X669870Y1760210D01*
X671180Y1767030D01*
X669870Y1773840D01*
X664620Y1782600D01*
X698740Y1779680D01*
Y1753400D01*
G01X620000Y2006320D02*
X698740D01*
X642310Y2042340D01*
Y1993660D01*
G01X635750Y2299420D02*
X626560Y2293580D01*
X621310Y2285790D01*
X620000Y2277030D01*
X621310Y2269240D01*
X627870Y2261450D01*
X635750Y2256580D01*
X643620Y2255610D01*
X652810Y2257550D01*
X659370Y2264370D01*
X662000Y2271180D01*
Y2279950D01*
G01Y2271180D02*
X665930Y2265340D01*
X672490Y2260470D01*
X680370Y2258530D01*
X688240Y2260470D01*
X694800Y2265340D01*
X698740Y2274110D01*
X697430Y2282870D01*
X692180Y2291630D01*
G01X685620Y2546500D02*
X693490Y2540660D01*
X697430Y2533840D01*
X698740Y2526050D01*
X696120Y2516320D01*
X689550Y2509500D01*
X681680Y2507550D01*
X673800Y2508530D01*
X667240Y2512420D01*
X654120Y2531890D01*
X644930Y2540660D01*
X631810Y2546500D01*
X620000Y2548450D01*
Y2507550D01*
G01Y2778000D02*
X698740D01*
X682990Y2789680D01*
G01X620000D02*
Y2766320D01*
G01X1070000Y2827370D02*
X1071310Y2835160D01*
X1076560Y2841970D01*
X1084430Y2847820D01*
X1093620Y2851710D01*
X1104120Y2853660D01*
X1114620D01*
X1125120Y2851710D01*
X1134310Y2847820D01*
X1142180Y2841970D01*
X1147430Y2835160D01*
X1148740Y2827370D01*
X1147430Y2819580D01*
X1142180Y2812770D01*
X1134310Y2806920D01*
X1125120Y2803030D01*
X1114620Y2801080D01*
X1104120D01*
X1093620Y2803030D01*
X1084430Y2806920D01*
X1076560Y2812770D01*
X1071310Y2819580D01*
X1070000Y2827370D01*
G01Y2771020D02*
X1148740D01*
X1070000Y2726240D01*
X1148740D01*
G01X2300000Y998320D02*
X2378740D01*
X2322310Y1034340D01*
Y985660D01*
G01X2315750Y1291420D02*
X2306560Y1285580D01*
X2301310Y1277790D01*
X2300000Y1269030D01*
X2301310Y1261240D01*
X2307870Y1253450D01*
X2315750Y1248580D01*
X2323620Y1247610D01*
X2332810Y1249550D01*
X2339370Y1256370D01*
X2342000Y1263180D01*
Y1271950D01*
G01Y1263180D02*
X2345930Y1257340D01*
X2352490Y1252470D01*
X2360370Y1250530D01*
X2368240Y1252470D01*
X2374800Y1257340D01*
X2378740Y1266110D01*
X2377430Y1274870D01*
X2372180Y1283630D01*
G01X2365620Y1538500D02*
X2373490Y1532660D01*
X2377430Y1525840D01*
X2378740Y1518050D01*
X2376120Y1508320D01*
X2369550Y1501500D01*
X2361680Y1499550D01*
X2353800Y1500530D01*
X2347240Y1504420D01*
X2334120Y1523890D01*
X2324930Y1532660D01*
X2311810Y1538500D01*
X2300000Y1540450D01*
Y1499550D01*
G01Y1770000D02*
X2378740D01*
X2362990Y1781680D01*
G01X2300000D02*
Y1758320D01*
G01X2750000Y1819370D02*
X2751310Y1827160D01*
X2756560Y1833970D01*
X2764430Y1839820D01*
X2773620Y1843710D01*
X2784120Y1845660D01*
X2794620D01*
X2805120Y1843710D01*
X2814310Y1839820D01*
X2822180Y1833970D01*
X2827430Y1827160D01*
X2828740Y1819370D01*
X2827430Y1811580D01*
X2822180Y1804770D01*
X2814310Y1798920D01*
X2805120Y1795030D01*
X2794620Y1793080D01*
X2784120D01*
X2773620Y1795030D01*
X2764430Y1798920D01*
X2756560Y1804770D01*
X2751310Y1811580D01*
X2750000Y1819370D01*
G01Y1763020D02*
X2828740D01*
X2750000Y1718240D01*
X2828740D01*
G01X14580000Y1300000D02*
X15380000D01*
Y2600000D01*
X14580000D01*
Y1300000D01*
G54D39*
X11040000Y1449340D03*
G54D49*
G01X141380Y3329530D02*
X171860D01*
G01X129950Y3325720D02*
X183290D01*
G01X122330Y3321910D02*
X183290D01*
G01X118520Y3318100D02*
X183290D01*
G01X118520Y3314290D02*
X183290D01*
G01X114710Y3310480D02*
X141380D01*
G01X114710Y3306670D02*
X137570D01*
G01X114710Y3302860D02*
X133760D01*
G01X114710Y3299050D02*
X133760D01*
G01X114710Y3295240D02*
X137570D01*
G01X114710Y3291430D02*
X141380D01*
G01X114710Y3287620D02*
X149000D01*
G01X114710Y3283810D02*
X156620D01*
G01X118520Y3280000D02*
X168050D01*
G01X122330Y3276190D02*
X175670D01*
G01X126140Y3272380D02*
X179480D01*
G01X133760Y3268570D02*
X183290D01*
G01X110900Y3238090D02*
X114710D01*
G01X110900Y3234280D02*
X129950D01*
G01X110900Y3230470D02*
X187100D01*
G01X110900Y3226660D02*
X183290D01*
G01X110900Y3222850D02*
X179480D01*
G01X114710Y3219040D02*
X171860D01*
G01X129950Y3215230D02*
X160430D01*
G01X175670Y3310480D02*
X183290D01*
G01X236630Y3306670D02*
X263300D01*
G01X331880D02*
X358550D01*
G01X229010Y3302860D02*
X270920D01*
G01X316640D02*
X369980D01*
G01X411890D02*
X427130D01*
G01X225200Y3299050D02*
X274730D01*
G01X312830D02*
X373790D01*
G01X411890D02*
X430940D01*
G01X221390Y3295240D02*
X278540D01*
G01X312830D02*
X377600D01*
G01X411890D02*
X480470D01*
G01X217580Y3291430D02*
X282350D01*
G01X312830D02*
X377600D01*
G01X411890D02*
X480470D01*
G01X217580Y3287620D02*
X240440D01*
G01X259490D02*
X282350D01*
G01X312830D02*
X328070D01*
G01X354740D02*
X381410D01*
G01X411890D02*
X446180D01*
G01X213770Y3283810D02*
X236630D01*
G01X263300D02*
X286160D01*
G01X312830D02*
X316640D01*
G01X358550D02*
X381410D01*
G01X411890D02*
X438560D01*
G01X213770Y3280000D02*
X232820D01*
G01X267110D02*
X286160D01*
G01X362360D02*
X381410D01*
G01X411890D02*
X434750D01*
G01X209960Y3276190D02*
X232820D01*
G01X267110D02*
X286160D01*
G01X362360D02*
X381410D01*
G01X411890D02*
X430940D01*
G01X209960Y3272380D02*
X229010D01*
G01X267110D02*
X286160D01*
G01X362360D02*
X381410D01*
G01X411890D02*
X430940D01*
G01X209960Y3268570D02*
X286160D01*
G01X331880D02*
X381410D01*
G01X411890D02*
X430940D01*
G01X145190Y3264760D02*
X187100D01*
G01X209960D02*
X286160D01*
G01X320450D02*
X381410D01*
G01X411890D02*
X430940D01*
G01X152810Y3260950D02*
X187100D01*
G01X209960D02*
X286160D01*
G01X316640D02*
X381410D01*
G01X411890D02*
X430940D01*
G01X160430Y3257140D02*
X190910D01*
G01X209960D02*
X286160D01*
G01X312830D02*
X381410D01*
G01X411890D02*
X430940D01*
G01X164240Y3253330D02*
X190910D01*
G01X209960D02*
X229010D01*
G01X309020D02*
X335690D01*
G01X362360D02*
X381410D01*
G01X411890D02*
X430940D01*
G01X168050Y3249520D02*
X190910D01*
G01X209960D02*
X229010D01*
G01X309020D02*
X331880D01*
G01X362360D02*
X381410D01*
G01X411890D02*
X430940D01*
G01X168050Y3245710D02*
X190910D01*
G01X209960D02*
X232820D01*
G01X309020D02*
X328070D01*
G01X362360D02*
X381410D01*
G01X411890D02*
X430940D01*
G01X168050Y3241900D02*
X190910D01*
G01X209960D02*
X232820D01*
G01X309020D02*
X328070D01*
G01X358550D02*
X381410D01*
G01X411890D02*
X430940D01*
G01X164240Y3238090D02*
X190910D01*
G01X213770D02*
X236630D01*
G01X309020D02*
X328070D01*
G01X354740D02*
X381410D01*
G01X411890D02*
X430940D01*
G01X160430Y3234280D02*
X187100D01*
G01X213770D02*
X244250D01*
G01X278540D02*
X282350D01*
G01X309020D02*
X331880D01*
G01X350930D02*
X381410D01*
G01X411890D02*
X430940D01*
G01X217580Y3230470D02*
X282350D01*
G01X309020D02*
X381410D01*
G01X411890D02*
X430940D01*
G01X217580Y3226660D02*
X282350D01*
G01X309020D02*
X381410D01*
G01X411890D02*
X430940D01*
G01X221390Y3222850D02*
X282350D01*
G01X312830D02*
X358550D01*
G01X362360D02*
X381410D01*
G01X411890D02*
X430940D01*
G01X229010Y3219040D02*
X282350D01*
G01X316640D02*
X350930D01*
G01X366170D02*
X381410D01*
G01X411890D02*
X430940D01*
G01X236630Y3215230D02*
X270920D01*
G01X324260D02*
X343310D01*
G01X446180Y3306670D02*
X465230D01*
G01X537620D02*
X564290D01*
G01X438560Y3302860D02*
X472850D01*
G01X526190D02*
X571910D01*
G01X434750Y3299050D02*
X476660D01*
G01X518570D02*
X571910D01*
G01X514760Y3295240D02*
X571910D01*
G01X514760Y3291430D02*
X571910D01*
G01X457610Y3287620D02*
X480470D01*
G01X510950D02*
X541430D01*
G01X568100D02*
X571910D01*
G01X461420Y3283810D02*
X480470D01*
G01X507140D02*
X533810D01*
G01X461420Y3280000D02*
X484280D01*
G01X507140D02*
X530000D01*
G01X461420Y3276190D02*
X484280D01*
G01X507140D02*
X530000D01*
G01X461420Y3272380D02*
X484280D01*
G01X503330D02*
X526190D01*
G01X503330Y3268570D02*
X526190D01*
G01X503330Y3264760D02*
X526190D01*
G01X503330Y3260950D02*
X526190D01*
G01X503330Y3257140D02*
X526190D01*
G01X503330Y3253330D02*
X526190D01*
G01X503330Y3249520D02*
X526190D01*
G01X503330Y3245710D02*
X530000D01*
G01X507140Y3241900D02*
X530000D01*
G01X507140Y3238090D02*
X533810D01*
G01X507140Y3234280D02*
X541430D01*
G01X568100D02*
X575720D01*
G01X510950Y3230470D02*
X575720D01*
G01X514760Y3226660D02*
X575720D01*
G01X518570Y3222850D02*
X575720D01*
G01X522380Y3219040D02*
X575720D01*
G01X533810Y3215230D02*
X564290D01*
G01X602390Y3337150D02*
X621440D01*
G01X804320D02*
X823370D01*
G01X838610D02*
X857660D01*
G01X602390Y3333340D02*
X621440D01*
G01X804320D02*
X823370D01*
G01X838610D02*
X857660D01*
G01X602390Y3329530D02*
X621440D01*
G01X804320D02*
X823370D01*
G01X838610D02*
X857660D01*
G01X602390Y3325720D02*
X621440D01*
G01X804320D02*
X823370D01*
G01X838610D02*
X857660D01*
G01X884330D02*
X899570D01*
G01X602390Y3321910D02*
X621440D01*
G01X804320D02*
X823370D01*
G01X838610D02*
X857660D01*
G01X884330D02*
X899570D01*
G01X602390Y3318100D02*
X621440D01*
G01X804320D02*
X823370D01*
G01X838610D02*
X857660D01*
G01X884330D02*
X899570D01*
G01X602390Y3314290D02*
X621440D01*
G01X804320D02*
X823370D01*
G01X838610D02*
X857660D01*
G01X884330D02*
X899570D01*
G01X602390Y3310480D02*
X621440D01*
G01X804320D02*
X823370D01*
G01X838610D02*
X857660D01*
G01X884330D02*
X899570D01*
G01X602390Y3306670D02*
X621440D01*
G01X636680D02*
X655730D01*
G01X804320D02*
X823370D01*
G01X838610D02*
X857660D01*
G01X884330D02*
X899570D01*
G01X602390Y3302860D02*
X621440D01*
G01X629060D02*
X663350D01*
G01X804320D02*
X823370D01*
G01X838610D02*
X857660D01*
G01X884330D02*
X899570D01*
G01X602390Y3299050D02*
X621440D01*
G01X625250D02*
X667160D01*
G01X804320D02*
X819560D01*
G01X838610D02*
X857660D01*
G01X884330D02*
X903380D01*
G01X602390Y3295240D02*
X670970D01*
G01X884330D02*
X903380D01*
G01X602390Y3291430D02*
X670970D01*
G01X884330D02*
X903380D01*
G01X922430D02*
X933860D01*
G01X602390Y3287620D02*
X636680D01*
G01X648110D02*
X670970D01*
G01X884330D02*
X903380D01*
G01X918620D02*
X937670D01*
G01X602390Y3283810D02*
X629060D01*
G01X651920D02*
X674780D01*
G01X884330D02*
X903380D01*
G01X918620D02*
X937670D01*
G01X602390Y3280000D02*
X625250D01*
G01X651920D02*
X674780D01*
G01X884330D02*
X903380D01*
G01X918620D02*
X937670D01*
G01X602390Y3276190D02*
X625250D01*
G01X651920D02*
X674780D01*
G01X884330D02*
X903380D01*
G01X918620D02*
X941480D01*
G01X602390Y3272380D02*
X621440D01*
G01X651920D02*
X674780D01*
G01X884330D02*
X903380D01*
G01X914810D02*
X941480D01*
G01X602390Y3268570D02*
X621440D01*
G01X651920D02*
X674780D01*
G01X884330D02*
X903380D01*
G01X914810D02*
X941480D01*
G01X602390Y3264760D02*
X621440D01*
G01X651920D02*
X674780D01*
G01X888140D02*
X903380D01*
G01X914810D02*
X926240D01*
G01X930050D02*
X941480D01*
G01X602390Y3260950D02*
X621440D01*
G01X651920D02*
X674780D01*
G01X888140D02*
X903380D01*
G01X911000D02*
X926240D01*
G01X930050D02*
X945290D01*
G01X602390Y3257140D02*
X621440D01*
G01X651920D02*
X674780D01*
G01X888140D02*
X903380D01*
G01X911000D02*
X922430D01*
G01X930050D02*
X945290D01*
G01X602390Y3253330D02*
X621440D01*
G01X651920D02*
X674780D01*
G01X888140D02*
X903380D01*
G01X911000D02*
X922430D01*
G01X930050D02*
X945290D01*
G01X602390Y3249520D02*
X621440D01*
G01X651920D02*
X674780D01*
G01X888140D02*
X903380D01*
G01X907190D02*
X922430D01*
G01X933860D02*
X949100D01*
G01X602390Y3245710D02*
X621440D01*
G01X651920D02*
X674780D01*
G01X888140D02*
X903380D01*
G01X907190D02*
X922430D01*
G01X933860D02*
X949100D01*
G01X602390Y3241900D02*
X621440D01*
G01X651920D02*
X674780D01*
G01X888140D02*
X918620D01*
G01X933860D02*
X968150D01*
G01X602390Y3238090D02*
X621440D01*
G01X651920D02*
X674780D01*
G01X888140D02*
X918620D01*
G01X937670D02*
X968150D01*
G01X602390Y3234280D02*
X621440D01*
G01X651920D02*
X674780D01*
G01X888140D02*
X918620D01*
G01X937670D02*
X968150D01*
G01X602390Y3230470D02*
X621440D01*
G01X651920D02*
X674780D01*
G01X888140D02*
X914810D01*
G01X937670D02*
X968150D01*
G01X602390Y3226660D02*
X621440D01*
G01X651920D02*
X674780D01*
G01X888140D02*
X914810D01*
G01X941480D02*
X968150D01*
G01X602390Y3222850D02*
X621440D01*
G01X651920D02*
X674780D01*
G01X888140D02*
X914810D01*
G01X941480D02*
X968150D01*
G01X602390Y3219040D02*
X621440D01*
G01X651920D02*
X674780D01*
G01X888140D02*
X911000D01*
G01X941480D02*
X968150D01*
G01X956720Y3325720D02*
X971960D01*
G01X956720Y3321910D02*
X971960D01*
G01X956720Y3318100D02*
X971960D01*
G01X956720Y3314290D02*
X971960D01*
G01X956720Y3310480D02*
X971960D01*
G01X956720Y3306670D02*
X971960D01*
G01X956720Y3302860D02*
X971960D01*
G01X991010D02*
X1036730D01*
G01X952910Y3299050D02*
X971960D01*
G01X991010D02*
X1036730D01*
G01X952910Y3295240D02*
X971960D01*
G01X991010D02*
X1036730D01*
G01X952910Y3291430D02*
X971960D01*
G01X991010D02*
X1036730D01*
G01X952910Y3287620D02*
X971960D01*
G01X991010D02*
X1036730D01*
G01X952910Y3283810D02*
X971960D01*
G01X952910Y3280000D02*
X971960D01*
G01X952910Y3276190D02*
X968150D01*
G01X952910Y3272380D02*
X968150D01*
G01X952910Y3268570D02*
X968150D01*
G01X952910Y3264760D02*
X968150D01*
G01X952910Y3260950D02*
X968150D01*
G01X952910Y3257140D02*
X968150D01*
G01X952910Y3253330D02*
X968150D01*
G01X952910Y3249520D02*
X968150D01*
G01X952910Y3245710D02*
X968150D01*
G01X991010Y3234280D02*
X1063400D01*
G01X991010Y3230470D02*
X1063400D01*
G01X991010Y3226660D02*
X1063400D01*
G01X991010Y3222850D02*
X1063400D01*
G01X991010Y3219040D02*
X1063400D01*
G01X1021490Y3340960D02*
X1032920D01*
G01X1013870Y3337150D02*
X1036730D01*
G01X1181510D02*
X1204370D01*
G01X1013870Y3333340D02*
X1040540D01*
G01X1181510D02*
X1204370D01*
G01X1013870Y3329530D02*
X1040540D01*
G01X1116740D02*
X1124360D01*
G01X1181510D02*
X1204370D01*
G01X1013870Y3325720D02*
X1040540D01*
G01X1105310D02*
X1124360D01*
G01X1181510D02*
X1204370D01*
G01X1276760D02*
X1326290D01*
G01X1013870Y3321910D02*
X1036730D01*
G01X1101500D02*
X1124360D01*
G01X1181510D02*
X1204370D01*
G01X1276760D02*
X1337720D01*
G01X1021490Y3318100D02*
X1032920D01*
G01X1101500D02*
X1124360D01*
G01X1181510D02*
X1204370D01*
G01X1276760D02*
X1341530D01*
G01X1101500Y3314290D02*
X1124360D01*
G01X1181510D02*
X1204370D01*
G01X1276760D02*
X1345340D01*
G01X1101500Y3310480D02*
X1124360D01*
G01X1181510D02*
X1204370D01*
G01X1276760D02*
X1349150D01*
G01X1101500Y3306670D02*
X1124360D01*
G01X1181510D02*
X1204370D01*
G01X1219610D02*
X1238660D01*
G01X1276760D02*
X1299620D01*
G01X1322480D02*
X1349150D01*
G01X1078640Y3302860D02*
X1158650D01*
G01X1181510D02*
X1204370D01*
G01X1211990D02*
X1246280D01*
G01X1276760D02*
X1299620D01*
G01X1326290D02*
X1349150D01*
G01X1375820D02*
X1394870D01*
G01X1078640Y3299050D02*
X1158650D01*
G01X1181510D02*
X1204370D01*
G01X1208180D02*
X1250090D01*
G01X1276760D02*
X1299620D01*
G01X1330100D02*
X1349150D01*
G01X1375820D02*
X1394870D01*
G01X1078640Y3295240D02*
X1158650D01*
G01X1181510D02*
X1250090D01*
G01X1276760D02*
X1299620D01*
G01X1330100D02*
X1349150D01*
G01X1375820D02*
X1394870D01*
G01X1078640Y3291430D02*
X1158650D01*
G01X1181510D02*
X1253900D01*
G01X1276760D02*
X1299620D01*
G01X1330100D02*
X1349150D01*
G01X1375820D02*
X1394870D01*
G01X1078640Y3287620D02*
X1158650D01*
G01X1181510D02*
X1215800D01*
G01X1231040D02*
X1253900D01*
G01X1276760D02*
X1299620D01*
G01X1330100D02*
X1349150D01*
G01X1375820D02*
X1394870D01*
G01X1017680Y3283810D02*
X1036730D01*
G01X1101500D02*
X1124360D01*
G01X1181510D02*
X1211990D01*
G01X1234850D02*
X1253900D01*
G01X1276760D02*
X1299620D01*
G01X1326290D02*
X1349150D01*
G01X1375820D02*
X1394870D01*
G01X1017680Y3280000D02*
X1036730D01*
G01X1101500D02*
X1124360D01*
G01X1181510D02*
X1208180D01*
G01X1234850D02*
X1253900D01*
G01X1276760D02*
X1299620D01*
G01X1318670D02*
X1349150D01*
G01X1375820D02*
X1394870D01*
G01X1017680Y3276190D02*
X1036730D01*
G01X1101500D02*
X1124360D01*
G01X1181510D02*
X1204370D01*
G01X1234850D02*
X1253900D01*
G01X1276760D02*
X1345340D01*
G01X1375820D02*
X1394870D01*
G01X1017680Y3272380D02*
X1036730D01*
G01X1101500D02*
X1124360D01*
G01X1181510D02*
X1204370D01*
G01X1234850D02*
X1253900D01*
G01X1276760D02*
X1341530D01*
G01X1375820D02*
X1394870D01*
G01X1017680Y3268570D02*
X1036730D01*
G01X1101500D02*
X1124360D01*
G01X1181510D02*
X1204370D01*
G01X1234850D02*
X1253900D01*
G01X1276760D02*
X1333910D01*
G01X1375820D02*
X1394870D01*
G01X1017680Y3264760D02*
X1036730D01*
G01X1101500D02*
X1124360D01*
G01X1181510D02*
X1204370D01*
G01X1234850D02*
X1253900D01*
G01X1276760D02*
X1330100D01*
G01X1375820D02*
X1394870D01*
G01X1017680Y3260950D02*
X1036730D01*
G01X1101500D02*
X1124360D01*
G01X1181510D02*
X1204370D01*
G01X1234850D02*
X1253900D01*
G01X1276760D02*
X1333910D01*
G01X1375820D02*
X1394870D01*
G01X1017680Y3257140D02*
X1036730D01*
G01X1101500D02*
X1124360D01*
G01X1181510D02*
X1204370D01*
G01X1234850D02*
X1253900D01*
G01X1276760D02*
X1299620D01*
G01X1311050D02*
X1337720D01*
G01X1375820D02*
X1394870D01*
G01X1017680Y3253330D02*
X1036730D01*
G01X1101500D02*
X1124360D01*
G01X1181510D02*
X1204370D01*
G01X1234850D02*
X1253900D01*
G01X1276760D02*
X1299620D01*
G01X1318670D02*
X1341530D01*
G01X1375820D02*
X1394870D01*
G01X1017680Y3249520D02*
X1036730D01*
G01X1101500D02*
X1124360D01*
G01X1181510D02*
X1204370D01*
G01X1234850D02*
X1253900D01*
G01X1276760D02*
X1299620D01*
G01X1318670D02*
X1341530D01*
G01X1375820D02*
X1394870D01*
G01X1017680Y3245710D02*
X1036730D01*
G01X1101500D02*
X1124360D01*
G01X1181510D02*
X1204370D01*
G01X1234850D02*
X1253900D01*
G01X1276760D02*
X1299620D01*
G01X1322480D02*
X1345340D01*
G01X1375820D02*
X1394870D01*
G01X1017680Y3241900D02*
X1036730D01*
G01X1101500D02*
X1124360D01*
G01X1181510D02*
X1204370D01*
G01X1234850D02*
X1253900D01*
G01X1276760D02*
X1299620D01*
G01X1322480D02*
X1345340D01*
G01X1375820D02*
X1398680D01*
G01X1017680Y3238090D02*
X1036730D01*
G01X1101500D02*
X1124360D01*
G01X1181510D02*
X1204370D01*
G01X1234850D02*
X1253900D01*
G01X1276760D02*
X1299620D01*
G01X1326290D02*
X1349150D01*
G01X1375820D02*
X1398680D01*
G01X1105310Y3234280D02*
X1128170D01*
G01X1151030D02*
X1158650D01*
G01X1181510D02*
X1204370D01*
G01X1234850D02*
X1253900D01*
G01X1276760D02*
X1299620D01*
G01X1326290D02*
X1349150D01*
G01X1375820D02*
X1402490D01*
G01X1413920D02*
X1448210D01*
G01X1105310Y3230470D02*
X1158650D01*
G01X1181510D02*
X1204370D01*
G01X1234850D02*
X1253900D01*
G01X1276760D02*
X1299620D01*
G01X1330100D02*
X1352960D01*
G01X1379630D02*
X1448210D01*
G01X1105310Y3226660D02*
X1158650D01*
G01X1181510D02*
X1204370D01*
G01X1234850D02*
X1253900D01*
G01X1276760D02*
X1299620D01*
G01X1330100D02*
X1352960D01*
G01X1379630D02*
X1448210D01*
G01X1109120Y3222850D02*
X1158650D01*
G01X1181510D02*
X1204370D01*
G01X1234850D02*
X1253900D01*
G01X1276760D02*
X1299620D01*
G01X1333910D02*
X1356770D01*
G01X1383440D02*
X1425350D01*
G01X1112930Y3219040D02*
X1158650D01*
G01X1181510D02*
X1204370D01*
G01X1234850D02*
X1253900D01*
G01X1276760D02*
X1299620D01*
G01X1333910D02*
X1356770D01*
G01X1387250D02*
X1417730D01*
G01X1128170Y3215230D02*
X1135790D01*
G01X1143410D02*
X1147220D01*
G01X1402490D02*
X1410110D01*
G01X1429160Y3302860D02*
X1448210D01*
G01X1429160Y3299050D02*
X1448210D01*
G01X1429160Y3295240D02*
X1448210D01*
G01X1429160Y3291430D02*
X1448210D01*
G01X1429160Y3287620D02*
X1448210D01*
G01X1429160Y3283810D02*
X1448210D01*
G01X1429160Y3280000D02*
X1448210D01*
G01X1429160Y3276190D02*
X1448210D01*
G01X1429160Y3272380D02*
X1448210D01*
G01X1429160Y3268570D02*
X1448210D01*
G01X1429160Y3264760D02*
X1448210D01*
G01X1429160Y3260950D02*
X1448210D01*
G01X1429160Y3257140D02*
X1448210D01*
G01X1429160Y3253330D02*
X1448210D01*
G01X1429160Y3249520D02*
X1448210D01*
G01X1425350Y3245710D02*
X1448210D01*
G01X1421540Y3241900D02*
X1448210D01*
G01X1417730Y3238090D02*
X1448210D01*
G01X1429160Y3222850D02*
X1448210D01*
G01X1432970Y3219040D02*
X1448210D01*
G01X1478690Y3337150D02*
X1524410D01*
G01X1772060D02*
X1794920D01*
G01X1806350D02*
X1829210D01*
G01X1478690Y3333340D02*
X1524410D01*
G01X1772060D02*
X1794920D01*
G01X1810160D02*
X1829210D01*
G01X1478690Y3329530D02*
X1524410D01*
G01X1772060D02*
X1794920D01*
G01X1810160D02*
X1829210D01*
G01X1478690Y3325720D02*
X1524410D01*
G01X1772060D02*
X1794920D01*
G01X1810160D02*
X1829210D01*
G01X1478690Y3321910D02*
X1524410D01*
G01X1775870D02*
X1794920D01*
G01X1810160D02*
X1829210D01*
G01X1501550Y3318100D02*
X1524410D01*
G01X1775870D02*
X1794920D01*
G01X1810160D02*
X1829210D01*
G01X1501550Y3314290D02*
X1524410D01*
G01X1775870D02*
X1791110D01*
G01X1810160D02*
X1829210D01*
G01X1501550Y3310480D02*
X1524410D01*
G01X1775870D02*
X1791110D01*
G01X1810160D02*
X1829210D01*
G01X1501550Y3306670D02*
X1524410D01*
G01X1596800D02*
X1619660D01*
G01X1707290D02*
X1726340D01*
G01X1775870D02*
X1791110D01*
G01X1810160D02*
X1829210D01*
G01X1501550Y3302860D02*
X1524410D01*
G01X1589180D02*
X1631090D01*
G01X1673000D02*
X1688240D01*
G01X1699670D02*
X1733960D01*
G01X1775870D02*
X1791110D01*
G01X1810160D02*
X1825400D01*
G01X1501550Y3299050D02*
X1524410D01*
G01X1581560D02*
X1634900D01*
G01X1673000D02*
X1692050D01*
G01X1695860D02*
X1737770D01*
G01X1775870D02*
X1791110D01*
G01X1810160D02*
X1825400D01*
G01X1501550Y3295240D02*
X1524410D01*
G01X1577750D02*
X1638710D01*
G01X1673000D02*
X1741580D01*
G01X1501550Y3291430D02*
X1524410D01*
G01X1577750D02*
X1638710D01*
G01X1673000D02*
X1741580D01*
G01X1501550Y3287620D02*
X1524410D01*
G01X1573940D02*
X1600610D01*
G01X1615850D02*
X1642520D01*
G01X1673000D02*
X1707290D01*
G01X1718720D02*
X1741580D01*
G01X1501550Y3283810D02*
X1524410D01*
G01X1573940D02*
X1592990D01*
G01X1619660D02*
X1642520D01*
G01X1673000D02*
X1699670D01*
G01X1722530D02*
X1741580D01*
G01X1501550Y3280000D02*
X1524410D01*
G01X1570130D02*
X1592990D01*
G01X1623470D02*
X1646330D01*
G01X1673000D02*
X1695860D01*
G01X1722530D02*
X1745390D01*
G01X1501550Y3276190D02*
X1524410D01*
G01X1570130D02*
X1589180D01*
G01X1623470D02*
X1646330D01*
G01X1673000D02*
X1692050D01*
G01X1722530D02*
X1745390D01*
G01X1501550Y3272380D02*
X1524410D01*
G01X1570130D02*
X1589180D01*
G01X1627280D02*
X1646330D01*
G01X1673000D02*
X1692050D01*
G01X1722530D02*
X1745390D01*
G01X1501550Y3268570D02*
X1524410D01*
G01X1570130D02*
X1646330D01*
G01X1673000D02*
X1692050D01*
G01X1501550Y3264760D02*
X1524410D01*
G01X1566320D02*
X1646330D01*
G01X1673000D02*
X1692050D01*
G01X1501550Y3260950D02*
X1524410D01*
G01X1566320D02*
X1646330D01*
G01X1673000D02*
X1692050D01*
G01X1501550Y3257140D02*
X1524410D01*
G01X1566320D02*
X1646330D01*
G01X1673000D02*
X1692050D01*
G01X1501550Y3253330D02*
X1524410D01*
G01X1566320D02*
X1589180D01*
G01X1673000D02*
X1692050D01*
G01X1501550Y3249520D02*
X1524410D01*
G01X1570130D02*
X1589180D01*
G01X1673000D02*
X1692050D01*
G01X1501550Y3245710D02*
X1524410D01*
G01X1570130D02*
X1589180D01*
G01X1673000D02*
X1692050D01*
G01X1501550Y3241900D02*
X1524410D01*
G01X1570130D02*
X1592990D01*
G01X1673000D02*
X1692050D01*
G01X1501550Y3238090D02*
X1524410D01*
G01X1570130D02*
X1596800D01*
G01X1673000D02*
X1692050D01*
G01X1474880Y3234280D02*
X1547270D01*
G01X1573940D02*
X1600610D01*
G01X1634900D02*
X1642520D01*
G01X1673000D02*
X1692050D01*
G01X1474880Y3230470D02*
X1547270D01*
G01X1573940D02*
X1642520D01*
G01X1673000D02*
X1692050D01*
G01X1474880Y3226660D02*
X1547270D01*
G01X1577750D02*
X1642520D01*
G01X1673000D02*
X1692050D01*
G01X1474880Y3222850D02*
X1547270D01*
G01X1581560D02*
X1642520D01*
G01X1673000D02*
X1692050D01*
G01X1474880Y3219040D02*
X1547270D01*
G01X1585370D02*
X1642520D01*
G01X1673000D02*
X1692050D01*
G01X1600610Y3215230D02*
X1608230D01*
G01X1615850D02*
X1623470D01*
G01X1970180Y3325720D02*
X1993040D01*
G01X1966370Y3321910D02*
X1989230D01*
G01X1966370Y3318100D02*
X1985420D01*
G01X1962560Y3314290D02*
X1981610D01*
G01X1958750Y3310480D02*
X1977800D01*
G01X1958750Y3306670D02*
X1977800D01*
G01X1958750Y3302860D02*
X1973990D01*
G01X1954940Y3299050D02*
X1973990D01*
G01X1954940Y3295240D02*
X1970180D01*
G01X1954940Y3291430D02*
X1970180D01*
G01X1951130Y3287620D02*
X1970180D01*
G01X1951130Y3283810D02*
X1966370D01*
G01X1951130Y3280000D02*
X1966370D01*
G01X1951130Y3276190D02*
X1966370D01*
G01X1951130Y3272380D02*
X1966370D01*
G01X1947320Y3268570D02*
X1966370D01*
G01X1970180D02*
X1989230D01*
G01X1947320Y3264760D02*
X1966370D01*
G01X1970180D02*
X1989230D01*
G01X1947320Y3260950D02*
X1962560D01*
G01X1970180D02*
X1985420D01*
G01X1947320Y3257140D02*
X1962560D01*
G01X1970180D02*
X1985420D01*
G01X1947320Y3253330D02*
X1962560D01*
G01X1970180D02*
X1985420D01*
G01X1947320Y3249520D02*
X1962560D01*
G01X1970180D02*
X1985420D01*
G01X1947320Y3245710D02*
X1962560D01*
G01X1970180D02*
X1985420D01*
G01X1947320Y3241900D02*
X1962560D01*
G01X1970180D02*
X1989230D01*
G01X1947320Y3238090D02*
X1962560D01*
G01X1970180D02*
X2034950D01*
G01X1947320Y3234280D02*
X1962560D01*
G01X1947320Y3230470D02*
X1966370D01*
G01X1947320Y3226660D02*
X1966370D01*
G01X1951130Y3222850D02*
X1966370D01*
G01X1951130Y3219040D02*
X1966370D01*
G01X1951130Y3215230D02*
X1966370D01*
G01X1951130Y3211420D02*
X1970180D01*
G01X1951130Y3207610D02*
X1970180D01*
G01X1954940Y3203800D02*
X1973990D01*
G01X1954940Y3199990D02*
X1977800D01*
G01X1958750Y3196180D02*
X1981610D01*
G01X1962560Y3192370D02*
X2019710D01*
G01X1966370Y3188560D02*
X2019710D01*
G01X1970180Y3184750D02*
X2015900D01*
G01X1993040Y3340960D02*
X2012090D01*
G01X1981610Y3337150D02*
X2019710D01*
G01X1977800Y3333340D02*
X2027330D01*
G01X1973990Y3329530D02*
X2031140D01*
G01X2088290D02*
X2114960D01*
G01X2012090Y3325720D02*
X2031140D01*
G01X2076860D02*
X2126390D01*
G01X2153060D02*
X2225450D01*
G01X2244500D02*
X2328320D01*
G01X2015900Y3321910D02*
X2034950D01*
G01X2069240D02*
X2130200D01*
G01X2153060D02*
X2225450D01*
G01X2244500D02*
X2328320D01*
G01X2019710Y3318100D02*
X2034950D01*
G01X2065430D02*
X2130200D01*
G01X2153060D02*
X2225450D01*
G01X2244500D02*
X2328320D01*
G01X2019710Y3314290D02*
X2038760D01*
G01X2061620D02*
X2130200D01*
G01X2153060D02*
X2225450D01*
G01X2244500D02*
X2328320D01*
G01X2023520Y3310480D02*
X2038760D01*
G01X2057810D02*
X2088290D01*
G01X2118770D02*
X2130200D01*
G01X2153060D02*
X2225450D01*
G01X2244500D02*
X2328320D01*
G01X2023520Y3306670D02*
X2038760D01*
G01X2057810D02*
X2084480D01*
G01X2126390D02*
X2130200D01*
G01X2179730D02*
X2198780D01*
G01X2023520Y3302860D02*
X2038760D01*
G01X2054000D02*
X2080670D01*
G01X2179730D02*
X2198780D01*
G01X1989230Y3299050D02*
X2004470D01*
G01X2008280D02*
X2019710D01*
G01X2023520D02*
X2038760D01*
G01X2054000D02*
X2076860D01*
G01X2179730D02*
X2198780D01*
G01X1981610Y3295240D02*
X2019710D01*
G01X2023520D02*
X2042570D01*
G01X2050190D02*
X2073050D01*
G01X2179730D02*
X2198780D01*
G01X1977800Y3291430D02*
X2019710D01*
G01X2027330D02*
X2042570D01*
G01X2050190D02*
X2073050D01*
G01X2179730D02*
X2198780D01*
G01X1977800Y3287620D02*
X2019710D01*
G01X2027330D02*
X2042570D01*
G01X2050190D02*
X2073050D01*
G01X2179730D02*
X2198780D01*
G01X1973990Y3283810D02*
X2019710D01*
G01X2027330D02*
X2042570D01*
G01X2050190D02*
X2069240D01*
G01X2179730D02*
X2198780D01*
G01X1973990Y3280000D02*
X1993040D01*
G01X2000660D02*
X2015900D01*
G01X2027330D02*
X2042570D01*
G01X2050190D02*
X2069240D01*
G01X2092100D02*
X2130200D01*
G01X2179730D02*
X2198780D01*
G01X1973990Y3276190D02*
X1989230D01*
G01X2000660D02*
X2015900D01*
G01X2027330D02*
X2042570D01*
G01X2046380D02*
X2069240D01*
G01X2092100D02*
X2130200D01*
G01X2179730D02*
X2198780D01*
G01X1973990Y3272380D02*
X1989230D01*
G01X2000660D02*
X2015900D01*
G01X2027330D02*
X2042570D01*
G01X2046380D02*
X2069240D01*
G01X2092100D02*
X2130200D01*
G01X2179730D02*
X2198780D01*
G01X2000660Y3268570D02*
X2015900D01*
G01X2027330D02*
X2042570D01*
G01X2046380D02*
X2069240D01*
G01X2092100D02*
X2130200D01*
G01X2179730D02*
X2198780D01*
G01X2000660Y3264760D02*
X2015900D01*
G01X2027330D02*
X2042570D01*
G01X2046380D02*
X2069240D01*
G01X2092100D02*
X2130200D01*
G01X2179730D02*
X2198780D01*
G01X2000660Y3260950D02*
X2015900D01*
G01X2023520D02*
X2042570D01*
G01X2050190D02*
X2069240D01*
G01X2111150D02*
X2130200D01*
G01X2179730D02*
X2198780D01*
G01X2000660Y3257140D02*
X2015900D01*
G01X2023520D02*
X2038760D01*
G01X2050190D02*
X2069240D01*
G01X2111150D02*
X2130200D01*
G01X2179730D02*
X2198780D01*
G01X2000660Y3253330D02*
X2015900D01*
G01X2023520D02*
X2038760D01*
G01X2050190D02*
X2073050D01*
G01X2111150D02*
X2130200D01*
G01X2179730D02*
X2198780D01*
G01X1996850Y3249520D02*
X2015900D01*
G01X2023520D02*
X2038760D01*
G01X2050190D02*
X2073050D01*
G01X2111150D02*
X2130200D01*
G01X2179730D02*
X2198780D01*
G01X1996850Y3245710D02*
X2015900D01*
G01X2023520D02*
X2038760D01*
G01X2050190D02*
X2073050D01*
G01X2111150D02*
X2130200D01*
G01X2179730D02*
X2198780D01*
G01X1993040Y3241900D02*
X2015900D01*
G01X2019710D02*
X2038760D01*
G01X2054000D02*
X2076860D01*
G01X2111150D02*
X2130200D01*
G01X2179730D02*
X2198780D01*
G01X2054000Y3238090D02*
X2080670D01*
G01X2111150D02*
X2130200D01*
G01X2179730D02*
X2198780D01*
G01X1973990Y3234280D02*
X2034950D01*
G01X2057810D02*
X2088290D01*
G01X2111150D02*
X2130200D01*
G01X2153060D02*
X2225450D01*
G01X1973990Y3230470D02*
X2031140D01*
G01X2057810D02*
X2130200D01*
G01X2153060D02*
X2225450D01*
G01X1977800Y3226660D02*
X2000660D01*
G01X2004470D02*
X2031140D01*
G01X2061620D02*
X2130200D01*
G01X2153060D02*
X2225450D01*
G01X1981610Y3222850D02*
X1993040D01*
G01X2008280D02*
X2023520D01*
G01X2065430D02*
X2130200D01*
G01X2153060D02*
X2225450D01*
G01X2073050Y3219040D02*
X2126390D01*
G01X2153060D02*
X2225450D01*
G01X2084480Y3215230D02*
X2114960D01*
G01X2015900Y3199990D02*
X2019710D01*
G01X2008280Y3196180D02*
X2019710D01*
G01X1977800Y3180940D02*
X2004470D01*
G01X2343560Y3325720D02*
X2362610D01*
G01X2400710D02*
X2423570D01*
G01X2438810D02*
X2457860D01*
G01X2343560Y3321910D02*
X2362610D01*
G01X2400710D02*
X2423570D01*
G01X2438810D02*
X2457860D01*
G01X2343560Y3318100D02*
X2362610D01*
G01X2400710D02*
X2423570D01*
G01X2438810D02*
X2457860D01*
G01X2343560Y3314290D02*
X2362610D01*
G01X2400710D02*
X2423570D01*
G01X2438810D02*
X2457860D01*
G01X2343560Y3310480D02*
X2362610D01*
G01X2400710D02*
X2423570D01*
G01X2438810D02*
X2457860D01*
G01X2274980Y3306670D02*
X2297840D01*
G01X2343560D02*
X2362610D01*
G01X2400710D02*
X2423570D01*
G01X2438810D02*
X2457860D01*
G01X2274980Y3302860D02*
X2297840D01*
G01X2343560D02*
X2362610D01*
G01X2400710D02*
X2423570D01*
G01X2438810D02*
X2457860D01*
G01X2274980Y3299050D02*
X2297840D01*
G01X2343560D02*
X2362610D01*
G01X2400710D02*
X2423570D01*
G01X2438810D02*
X2457860D01*
G01X2274980Y3295240D02*
X2297840D01*
G01X2343560D02*
X2362610D01*
G01X2400710D02*
X2423570D01*
G01X2438810D02*
X2457860D01*
G01X2274980Y3291430D02*
X2297840D01*
G01X2343560D02*
X2362610D01*
G01X2400710D02*
X2423570D01*
G01X2438810D02*
X2457860D01*
G01X2274980Y3287620D02*
X2297840D01*
G01X2343560D02*
X2362610D01*
G01X2400710D02*
X2423570D01*
G01X2438810D02*
X2457860D01*
G01X2274980Y3283810D02*
X2297840D01*
G01X2343560D02*
X2423570D01*
G01X2438810D02*
X2457860D01*
G01X2274980Y3280000D02*
X2297840D01*
G01X2343560D02*
X2423570D01*
G01X2438810D02*
X2457860D01*
G01X2274980Y3276190D02*
X2297840D01*
G01X2343560D02*
X2423570D01*
G01X2438810D02*
X2457860D01*
G01X2274980Y3272380D02*
X2297840D01*
G01X2343560D02*
X2423570D01*
G01X2438810D02*
X2457860D01*
G01X2274980Y3268570D02*
X2297840D01*
G01X2343560D02*
X2423570D01*
G01X2438810D02*
X2457860D01*
G01X2274980Y3264760D02*
X2297840D01*
G01X2343560D02*
X2362610D01*
G01X2400710D02*
X2423570D01*
G01X2438810D02*
X2457860D01*
G01X2274980Y3260950D02*
X2297840D01*
G01X2343560D02*
X2362610D01*
G01X2400710D02*
X2423570D01*
G01X2438810D02*
X2457860D01*
G01X2274980Y3257140D02*
X2297840D01*
G01X2343560D02*
X2362610D01*
G01X2400710D02*
X2423570D01*
G01X2438810D02*
X2457860D01*
G01X2274980Y3253330D02*
X2297840D01*
G01X2343560D02*
X2362610D01*
G01X2400710D02*
X2423570D01*
G01X2438810D02*
X2457860D01*
G01X2274980Y3249520D02*
X2297840D01*
G01X2343560D02*
X2362610D01*
G01X2400710D02*
X2423570D01*
G01X2438810D02*
X2457860D01*
G01X2274980Y3245710D02*
X2297840D01*
G01X2343560D02*
X2362610D01*
G01X2400710D02*
X2423570D01*
G01X2438810D02*
X2461670D01*
G01X2274980Y3241900D02*
X2297840D01*
G01X2343560D02*
X2362610D01*
G01X2400710D02*
X2423570D01*
G01X2438810D02*
X2461670D01*
G01X2274980Y3238090D02*
X2297840D01*
G01X2343560D02*
X2362610D01*
G01X2400710D02*
X2423570D01*
G01X2438810D02*
X2465480D01*
G01X2274980Y3234280D02*
X2297840D01*
G01X2343560D02*
X2362610D01*
G01X2400710D02*
X2423570D01*
G01X2442620D02*
X2469290D01*
G01X2488340D02*
X2515010D01*
G01X2274980Y3230470D02*
X2297840D01*
G01X2343560D02*
X2362610D01*
G01X2400710D02*
X2423570D01*
G01X2442620D02*
X2515010D01*
G01X2274980Y3226660D02*
X2297840D01*
G01X2343560D02*
X2362610D01*
G01X2400710D02*
X2423570D01*
G01X2446430D02*
X2511200D01*
G01X2274980Y3222850D02*
X2297840D01*
G01X2343560D02*
X2362610D01*
G01X2400710D02*
X2423570D01*
G01X2450240D02*
X2507390D01*
G01X2274980Y3219040D02*
X2297840D01*
G01X2343560D02*
X2362610D01*
G01X2400710D02*
X2423570D01*
G01X2454050D02*
X2503580D01*
G01X2465480Y3215230D02*
X2492150D01*
G01X2499770Y3325720D02*
X2518820D01*
G01X2537870D02*
X2591210D01*
G01X2499770Y3321910D02*
X2518820D01*
G01X2537870D02*
X2602640D01*
G01X2499770Y3318100D02*
X2518820D01*
G01X2537870D02*
X2606450D01*
G01X2499770Y3314290D02*
X2518820D01*
G01X2537870D02*
X2610260D01*
G01X2499770Y3310480D02*
X2518820D01*
G01X2537870D02*
X2610260D01*
G01X2499770Y3306670D02*
X2518820D01*
G01X2537870D02*
X2560730D01*
G01X2587400D02*
X2614070D01*
G01X2499770Y3302860D02*
X2518820D01*
G01X2537870D02*
X2560730D01*
G01X2591210D02*
X2614070D01*
G01X2499770Y3299050D02*
X2518820D01*
G01X2537870D02*
X2560730D01*
G01X2591210D02*
X2614070D01*
G01X2499770Y3295240D02*
X2518820D01*
G01X2537870D02*
X2560730D01*
G01X2591210D02*
X2614070D01*
G01X2499770Y3291430D02*
X2518820D01*
G01X2537870D02*
X2560730D01*
G01X2591210D02*
X2610260D01*
G01X2499770Y3287620D02*
X2518820D01*
G01X2537870D02*
X2560730D01*
G01X2583590D02*
X2610260D01*
G01X2499770Y3283810D02*
X2518820D01*
G01X2537870D02*
X2606450D01*
G01X2499770Y3280000D02*
X2518820D01*
G01X2537870D02*
X2598830D01*
G01X2499770Y3276190D02*
X2518820D01*
G01X2537870D02*
X2602640D01*
G01X2499770Y3272380D02*
X2518820D01*
G01X2537870D02*
X2610260D01*
G01X2499770Y3268570D02*
X2518820D01*
G01X2537870D02*
X2614070D01*
G01X2499770Y3264760D02*
X2518820D01*
G01X2537870D02*
X2560730D01*
G01X2587400D02*
X2614070D01*
G01X2499770Y3260950D02*
X2518820D01*
G01X2537870D02*
X2560730D01*
G01X2591210D02*
X2617880D01*
G01X2499770Y3257140D02*
X2518820D01*
G01X2537870D02*
X2560730D01*
G01X2595020D02*
X2617880D01*
G01X2499770Y3253330D02*
X2518820D01*
G01X2537870D02*
X2560730D01*
G01X2595020D02*
X2617880D01*
G01X2499770Y3249520D02*
X2518820D01*
G01X2537870D02*
X2560730D01*
G01X2595020D02*
X2617880D01*
G01X2499770Y3245710D02*
X2518820D01*
G01X2537870D02*
X2560730D01*
G01X2595020D02*
X2617880D01*
G01X2667410D02*
X2678840D01*
G01X2495960Y3241900D02*
X2518820D01*
G01X2537870D02*
X2560730D01*
G01X2591210D02*
X2617880D01*
G01X2659790D02*
X2686460D01*
G01X2495960Y3238090D02*
X2518820D01*
G01X2537870D02*
X2560730D01*
G01X2587400D02*
X2614070D01*
G01X2659790D02*
X2686460D01*
G01X2537870Y3234280D02*
X2614070D01*
G01X2655980D02*
X2690270D01*
G01X2537870Y3230470D02*
X2610260D01*
G01X2655980D02*
X2690270D01*
G01X2537870Y3226660D02*
X2606450D01*
G01X2655980D02*
X2690270D01*
G01X2537870Y3222850D02*
X2602640D01*
G01X2659790D02*
X2686460D01*
G01X2537870Y3219040D02*
X2591210D01*
G01X2659790D02*
X2686460D01*
G01X2667410Y3215230D02*
X2678840D01*
G01X2766470Y3329530D02*
X2796950D01*
G01X2857910D02*
X2880770D01*
G01X2758850Y3325720D02*
X2804570D01*
G01X2846480D02*
X2892200D01*
G01X2926490D02*
X2949350D01*
G01X2979830D02*
X3002690D01*
G01X2751230Y3321910D02*
X2808380D01*
G01X2842670D02*
X2896010D01*
G01X2926490D02*
X2953160D01*
G01X2979830D02*
X3002690D01*
G01X2747420Y3318100D02*
X2808380D01*
G01X2838860D02*
X2899820D01*
G01X2926490D02*
X2953160D01*
G01X2976020D02*
X3002690D01*
G01X2743610Y3314290D02*
X2808380D01*
G01X2835050D02*
X2903630D01*
G01X2926490D02*
X2953160D01*
G01X2976020D02*
X3002690D01*
G01X2739800Y3310480D02*
X2770280D01*
G01X2796950D02*
X2808380D01*
G01X2831240D02*
X2857910D01*
G01X2876960D02*
X2903630D01*
G01X2926490D02*
X2953160D01*
G01X2976020D02*
X3002690D01*
G01X2739800Y3306670D02*
X2766470D01*
G01X2804570D02*
X2808380D01*
G01X2831240D02*
X2854100D01*
G01X2880770D02*
X2907440D01*
G01X2926490D02*
X2956970D01*
G01X2972210D02*
X3002690D01*
G01X2735990Y3302860D02*
X2762660D01*
G01X2827430D02*
X2850290D01*
G01X2884580D02*
X2907440D01*
G01X2926490D02*
X2956970D01*
G01X2972210D02*
X3006500D01*
G01X2735990Y3299050D02*
X2758850D01*
G01X2827430D02*
X2850290D01*
G01X2888390D02*
X2911250D01*
G01X2926490D02*
X2956970D01*
G01X2972210D02*
X3006500D01*
G01X2732180Y3295240D02*
X2758850D01*
G01X2827430D02*
X2846480D01*
G01X2888390D02*
X2911250D01*
G01X2926490D02*
X2941730D01*
G01X2945540D02*
X2960780D01*
G01X2968400D02*
X2983640D01*
G01X2987450D02*
X3006500D01*
G01X2732180Y3291430D02*
X2755040D01*
G01X2823620D02*
X2846480D01*
G01X2888390D02*
X2911250D01*
G01X2926490D02*
X2941730D01*
G01X2945540D02*
X2960780D01*
G01X2968400D02*
X2983640D01*
G01X2987450D02*
X3006500D01*
G01X2732180Y3287620D02*
X2755040D01*
G01X2823620D02*
X2846480D01*
G01X2888390D02*
X2911250D01*
G01X2926490D02*
X2941730D01*
G01X2945540D02*
X2960780D01*
G01X2968400D02*
X2979830D01*
G01X2987450D02*
X3006500D01*
G01X2732180Y3283810D02*
X2755040D01*
G01X2823620D02*
X2846480D01*
G01X2892200D02*
X2911250D01*
G01X2926490D02*
X2941730D01*
G01X2949350D02*
X2960780D01*
G01X2968400D02*
X2979830D01*
G01X2987450D02*
X3006500D01*
G01X2732180Y3280000D02*
X2755040D01*
G01X2823620D02*
X2846480D01*
G01X2892200D02*
X2911250D01*
G01X2922680D02*
X2941730D01*
G01X2949350D02*
X2979830D01*
G01X2987450D02*
X3006500D01*
G01X2732180Y3276190D02*
X2751230D01*
G01X2823620D02*
X2846480D01*
G01X2892200D02*
X2911250D01*
G01X2922680D02*
X2941730D01*
G01X2949350D02*
X2976020D01*
G01X2991260D02*
X3006500D01*
G01X2732180Y3272380D02*
X2751230D01*
G01X2823620D02*
X2846480D01*
G01X2892200D02*
X2911250D01*
G01X2922680D02*
X2941730D01*
G01X2953160D02*
X2976020D01*
G01X2991260D02*
X3006500D01*
G01X2732180Y3268570D02*
X2751230D01*
G01X2823620D02*
X2846480D01*
G01X2892200D02*
X2911250D01*
G01X2922680D02*
X2941730D01*
G01X2953160D02*
X2976020D01*
G01X2991260D02*
X3006500D01*
G01X2732180Y3264760D02*
X2755040D01*
G01X2823620D02*
X2846480D01*
G01X2892200D02*
X2911250D01*
G01X2922680D02*
X2937920D01*
G01X2953160D02*
X2976020D01*
G01X2991260D02*
X3006500D01*
G01X2732180Y3260950D02*
X2755040D01*
G01X2823620D02*
X2846480D01*
G01X2892200D02*
X2911250D01*
G01X2922680D02*
X2937920D01*
G01X2953160D02*
X2972210D01*
G01X2991260D02*
X3006500D01*
G01X2732180Y3257140D02*
X2755040D01*
G01X2823620D02*
X2846480D01*
G01X2888390D02*
X2911250D01*
G01X2922680D02*
X2937920D01*
G01X2956970D02*
X2972210D01*
G01X2991260D02*
X3006500D01*
G01X2732180Y3253330D02*
X2755040D01*
G01X2823620D02*
X2846480D01*
G01X2888390D02*
X2911250D01*
G01X2922680D02*
X2937920D01*
G01X2956970D02*
X2972210D01*
G01X2991260D02*
X3006500D01*
G01X2732180Y3249520D02*
X2755040D01*
G01X2823620D02*
X2846480D01*
G01X2888390D02*
X2911250D01*
G01X2922680D02*
X2937920D01*
G01X2991260D02*
X3006500D01*
G01X2732180Y3245710D02*
X2758850D01*
G01X2827430D02*
X2850290D01*
G01X2888390D02*
X2907440D01*
G01X2922680D02*
X2937920D01*
G01X2991260D02*
X3006500D01*
G01X2735990Y3241900D02*
X2762660D01*
G01X2827430D02*
X2850290D01*
G01X2884580D02*
X2907440D01*
G01X2922680D02*
X2937920D01*
G01X2991260D02*
X3006500D01*
G01X2735990Y3238090D02*
X2766470D01*
G01X2804570D02*
X2808380D01*
G01X2827430D02*
X2854100D01*
G01X2880770D02*
X2907440D01*
G01X2922680D02*
X2937920D01*
G01X2991260D02*
X3006500D01*
G01X2739800Y3234280D02*
X2770280D01*
G01X2796950D02*
X2808380D01*
G01X2831240D02*
X2857910D01*
G01X2876960D02*
X2903630D01*
G01X2922680D02*
X2937920D01*
G01X2991260D02*
X3006500D01*
G01X2739800Y3230470D02*
X2808380D01*
G01X2831240D02*
X2899820D01*
G01X2922680D02*
X2937920D01*
G01X2991260D02*
X3006500D01*
G01X2743610Y3226660D02*
X2808380D01*
G01X2835050D02*
X2899820D01*
G01X2922680D02*
X2937920D01*
G01X2991260D02*
X3010310D01*
G01X2747420Y3222850D02*
X2808380D01*
G01X2838860D02*
X2896010D01*
G01X2922680D02*
X2937920D01*
G01X2991260D02*
X3010310D01*
G01X2755040Y3219040D02*
X2804570D01*
G01X2846480D02*
X2888390D01*
G01X2922680D02*
X2937920D01*
G01X2991260D02*
X3010310D01*
G01X2766470Y3215230D02*
X2793140D01*
G01X2854100D02*
X2880770D01*
G01X12430170Y664280D02*
X12407310D01*
G01X12430170Y668090D02*
X12407310D01*
G01X12433980Y671900D02*
X12407310D01*
G01X12433980Y675710D02*
X12407310D01*
G01X12433980Y679520D02*
X12407310D01*
G01X12483510Y683330D02*
X12453030D01*
G01X12437790D02*
X12407310D01*
G01X12483510Y687140D02*
X12453030D01*
G01X12437790D02*
X12403500D01*
G01X12483510Y690950D02*
X12453030D01*
G01X12437790D02*
X12403500D01*
G01X12464460Y694760D02*
X12449220D01*
G01X12441600D02*
X12426360D01*
G01X12422550D02*
X12403500D01*
G01X12464460Y698570D02*
X12449220D01*
G01X12441600D02*
X12426360D01*
G01X12422550D02*
X12403500D01*
G01X12464460Y702380D02*
X12449220D01*
G01X12441600D02*
X12430170D01*
G01X12422550D02*
X12403500D01*
G01X12460650Y706190D02*
X12449220D01*
G01X12441600D02*
X12430170D01*
G01X12422550D02*
X12403500D01*
G01X12460650Y710000D02*
X12430170D01*
G01X12422550D02*
X12403500D01*
G01X12460650Y713810D02*
X12433980D01*
G01X12418740D02*
X12403500D01*
G01X12456840Y717620D02*
X12433980D01*
G01X12418740D02*
X12403500D01*
G01X12456840Y721430D02*
X12433980D01*
G01X12418740D02*
X12403500D01*
G01X12456840Y725240D02*
X12433980D01*
G01X12418740D02*
X12403500D01*
G01X12456840Y729050D02*
X12437790D01*
G01X12418740D02*
X12403500D01*
G01X12453030Y732860D02*
X12437790D01*
G01X12418740D02*
X12403500D01*
G01X12453030Y736670D02*
X12437790D01*
G01X12418740D02*
X12403500D01*
G01X12418740Y740480D02*
X12403500D01*
G01X12418740Y744290D02*
X12403500D01*
G01X12418740Y748100D02*
X12403500D01*
G01X12418740Y751910D02*
X12403500D01*
G01X12418740Y755720D02*
X12403500D01*
G01X12418740Y759530D02*
X12403500D01*
G01X12418740Y763340D02*
X12399690D01*
G01X12418740Y767150D02*
X12399690D01*
G01X12418740Y770960D02*
X12399690D01*
G01X12643530Y660470D02*
X12613050D01*
G01X12552090D02*
X12529230D01*
G01X12872130Y664280D02*
X12818790D01*
G01X12651150D02*
X12605430D01*
G01X12563520D02*
X12517800D01*
G01X12483510D02*
X12460650D01*
G01X12872130Y668090D02*
X12807360D01*
G01X12658770D02*
X12601620D01*
G01X12567330D02*
X12513990D01*
G01X12483510D02*
X12456840D01*
G01X12872130Y671900D02*
X12803550D01*
G01X12662580D02*
X12601620D01*
G01X12571140D02*
X12510180D01*
G01X12483510D02*
X12456840D01*
G01X12872130Y675710D02*
X12799740D01*
G01X12666390D02*
X12601620D01*
G01X12574950D02*
X12506370D01*
G01X12483510D02*
X12456840D01*
G01X12872130Y679520D02*
X12799740D01*
G01X12670200D02*
X12639720D01*
G01X12613050D02*
X12601620D01*
G01X12578760D02*
X12552090D01*
G01X12533040D02*
X12506370D01*
G01X12483510D02*
X12456840D01*
G01X12872130Y683330D02*
X12849270D01*
G01X12822600D02*
X12795930D01*
G01X12670200D02*
X12643530D01*
G01X12605430D02*
X12601620D01*
G01X12578760D02*
X12555900D01*
G01X12529230D02*
X12502560D01*
G01X12872130Y687140D02*
X12849270D01*
G01X12818790D02*
X12795930D01*
G01X12674010D02*
X12647340D01*
G01X12582570D02*
X12559710D01*
G01X12525420D02*
X12502560D01*
G01X12872130Y690950D02*
X12849270D01*
G01X12818790D02*
X12795930D01*
G01X12674010D02*
X12651150D01*
G01X12582570D02*
X12559710D01*
G01X12521610D02*
X12498750D01*
G01X12872130Y694760D02*
X12849270D01*
G01X12818790D02*
X12795930D01*
G01X12677820D02*
X12651150D01*
G01X12582570D02*
X12563520D01*
G01X12521610D02*
X12498750D01*
G01X12483510D02*
X12468270D01*
G01X12872130Y698570D02*
X12849270D01*
G01X12818790D02*
X12799740D01*
G01X12677820D02*
X12654960D01*
G01X12586380D02*
X12563520D01*
G01X12521610D02*
X12498750D01*
G01X12483510D02*
X12468270D01*
G01X12872130Y702380D02*
X12849270D01*
G01X12826410D02*
X12799740D01*
G01X12677820D02*
X12654960D01*
G01X12586380D02*
X12563520D01*
G01X12521610D02*
X12498750D01*
G01X12483510D02*
X12468270D01*
G01X12872130Y706190D02*
X12803550D01*
G01X12677820D02*
X12654960D01*
G01X12586380D02*
X12563520D01*
G01X12517800D02*
X12498750D01*
G01X12483510D02*
X12468270D01*
G01X12872130Y710000D02*
X12811170D01*
G01X12677820D02*
X12654960D01*
G01X12586380D02*
X12563520D01*
G01X12517800D02*
X12498750D01*
G01X12487320D02*
X12468270D01*
G01X12872130Y713810D02*
X12807360D01*
G01X12677820D02*
X12658770D01*
G01X12586380D02*
X12563520D01*
G01X12517800D02*
X12498750D01*
G01X12487320D02*
X12468270D01*
G01X12872130Y717620D02*
X12799740D01*
G01X12677820D02*
X12658770D01*
G01X12586380D02*
X12563520D01*
G01X12517800D02*
X12498750D01*
G01X12487320D02*
X12468270D01*
G01X12872130Y721430D02*
X12795930D01*
G01X12677820D02*
X12658770D01*
G01X12586380D02*
X12563520D01*
G01X12517800D02*
X12498750D01*
G01X12487320D02*
X12468270D01*
G01X12872130Y725240D02*
X12849270D01*
G01X12822600D02*
X12795930D01*
G01X12677820D02*
X12654960D01*
G01X12586380D02*
X12563520D01*
G01X12517800D02*
X12498750D01*
G01X12487320D02*
X12472080D01*
G01X12872130Y729050D02*
X12849270D01*
G01X12818790D02*
X12792120D01*
G01X12677820D02*
X12654960D01*
G01X12586380D02*
X12563520D01*
G01X12517800D02*
X12498750D01*
G01X12487320D02*
X12472080D01*
G01X12872130Y732860D02*
X12849270D01*
G01X12814980D02*
X12792120D01*
G01X12677820D02*
X12654960D01*
G01X12586380D02*
X12563520D01*
G01X12521610D02*
X12498750D01*
G01X12487320D02*
X12472080D01*
G01X12872130Y736670D02*
X12849270D01*
G01X12814980D02*
X12792120D01*
G01X12677820D02*
X12654960D01*
G01X12586380D02*
X12563520D01*
G01X12521610D02*
X12498750D01*
G01X12487320D02*
X12472080D01*
G01X12872130Y740480D02*
X12849270D01*
G01X12814980D02*
X12792120D01*
G01X12677820D02*
X12654960D01*
G01X12586380D02*
X12563520D01*
G01X12521610D02*
X12498750D01*
G01X12487320D02*
X12472080D01*
G01X12872130Y744290D02*
X12849270D01*
G01X12814980D02*
X12792120D01*
G01X12742590D02*
X12731160D01*
G01X12677820D02*
X12651150D01*
G01X12582570D02*
X12559710D01*
G01X12521610D02*
X12502560D01*
G01X12487320D02*
X12472080D01*
G01X12872130Y748100D02*
X12849270D01*
G01X12818790D02*
X12792120D01*
G01X12750210D02*
X12723540D01*
G01X12674010D02*
X12647340D01*
G01X12582570D02*
X12559710D01*
G01X12525420D02*
X12502560D01*
G01X12487320D02*
X12472080D01*
G01X12872130Y751910D02*
X12849270D01*
G01X12822600D02*
X12795930D01*
G01X12750210D02*
X12723540D01*
G01X12674010D02*
X12643530D01*
G01X12605430D02*
X12601620D01*
G01X12582570D02*
X12555900D01*
G01X12529230D02*
X12502560D01*
G01X12487320D02*
X12472080D01*
G01X12872130Y755720D02*
X12795930D01*
G01X12754020D02*
X12719730D01*
G01X12670200D02*
X12639720D01*
G01X12613050D02*
X12601620D01*
G01X12578760D02*
X12552090D01*
G01X12533040D02*
X12506370D01*
G01X12487320D02*
X12472080D01*
G01X12872130Y759530D02*
X12799740D01*
G01X12754020D02*
X12719730D01*
G01X12670200D02*
X12601620D01*
G01X12578760D02*
X12510180D01*
G01X12487320D02*
X12472080D01*
G01X12872130Y763340D02*
X12803550D01*
G01X12754020D02*
X12719730D01*
G01X12666390D02*
X12601620D01*
G01X12574950D02*
X12510180D01*
G01X12487320D02*
X12472080D01*
G01X12872130Y767150D02*
X12807360D01*
G01X12750210D02*
X12723540D01*
G01X12662580D02*
X12601620D01*
G01X12571140D02*
X12513990D01*
G01X12487320D02*
X12472080D01*
G01X12872130Y770960D02*
X12818790D01*
G01X12750210D02*
X12723540D01*
G01X12654960D02*
X12605430D01*
G01X12563520D02*
X12521610D01*
G01X12487320D02*
X12472080D01*
G01X12742590Y774770D02*
X12731160D01*
G01X12643530D02*
X12616860D01*
G01X12555900D02*
X12529230D01*
G01X13321710Y660470D02*
X13295040D01*
G01X13333140Y664280D02*
X13283610D01*
G01X13256940D02*
X13184550D01*
G01X13165500D02*
X13081680D01*
G01X13066440D02*
X13047390D01*
G01X13009290D02*
X12986430D01*
G01X12971190D02*
X12952140D01*
G01X13340760Y668090D02*
X13279800D01*
G01X13256940D02*
X13184550D01*
G01X13165500D02*
X13081680D01*
G01X13066440D02*
X13047390D01*
G01X13009290D02*
X12986430D01*
G01X12971190D02*
X12952140D01*
G01X13344570Y671900D02*
X13279800D01*
G01X13256940D02*
X13184550D01*
G01X13165500D02*
X13081680D01*
G01X13066440D02*
X13047390D01*
G01X13009290D02*
X12986430D01*
G01X12971190D02*
X12952140D01*
G01X13348380Y675710D02*
X13279800D01*
G01X13256940D02*
X13184550D01*
G01X13165500D02*
X13081680D01*
G01X13066440D02*
X13047390D01*
G01X13009290D02*
X12986430D01*
G01X12971190D02*
X12952140D01*
G01X13291230Y679520D02*
X13279800D01*
G01X13256940D02*
X13184550D01*
G01X13165500D02*
X13081680D01*
G01X13066440D02*
X13047390D01*
G01X13009290D02*
X12986430D01*
G01X12971190D02*
X12952140D01*
G01X13283610Y683330D02*
X13279800D01*
G01X13230270D02*
X13211220D01*
G01X13135020D02*
X13112160D01*
G01X13066440D02*
X13047390D01*
G01X13009290D02*
X12986430D01*
G01X12971190D02*
X12952140D01*
G01X13230270Y687140D02*
X13211220D01*
G01X13135020D02*
X13112160D01*
G01X13066440D02*
X13047390D01*
G01X13009290D02*
X12986430D01*
G01X12971190D02*
X12952140D01*
G01X13230270Y690950D02*
X13211220D01*
G01X13135020D02*
X13112160D01*
G01X13066440D02*
X13047390D01*
G01X13009290D02*
X12986430D01*
G01X12971190D02*
X12952140D01*
G01X13230270Y694760D02*
X13211220D01*
G01X13135020D02*
X13112160D01*
G01X13066440D02*
X13047390D01*
G01X13009290D02*
X12986430D01*
G01X12971190D02*
X12952140D01*
G01X13230270Y698570D02*
X13211220D01*
G01X13135020D02*
X13112160D01*
G01X13066440D02*
X13047390D01*
G01X13009290D02*
X12986430D01*
G01X12971190D02*
X12952140D01*
G01X13230270Y702380D02*
X13211220D01*
G01X13135020D02*
X13112160D01*
G01X13066440D02*
X13047390D01*
G01X13009290D02*
X12986430D01*
G01X12971190D02*
X12952140D01*
G01X13230270Y706190D02*
X13211220D01*
G01X13135020D02*
X13112160D01*
G01X13066440D02*
X12986430D01*
G01X12971190D02*
X12952140D01*
G01X13317900Y710000D02*
X13279800D01*
G01X13230270D02*
X13211220D01*
G01X13135020D02*
X13112160D01*
G01X13066440D02*
X12986430D01*
G01X12971190D02*
X12952140D01*
G01X13317900Y713810D02*
X13279800D01*
G01X13230270D02*
X13211220D01*
G01X13135020D02*
X13112160D01*
G01X13066440D02*
X12986430D01*
G01X12971190D02*
X12952140D01*
G01X13317900Y717620D02*
X13279800D01*
G01X13230270D02*
X13211220D01*
G01X13135020D02*
X13112160D01*
G01X13066440D02*
X12986430D01*
G01X12971190D02*
X12952140D01*
G01X13317900Y721430D02*
X13279800D01*
G01X13230270D02*
X13211220D01*
G01X13135020D02*
X13112160D01*
G01X13066440D02*
X12986430D01*
G01X12971190D02*
X12952140D01*
G01X13317900Y725240D02*
X13279800D01*
G01X13230270D02*
X13211220D01*
G01X13135020D02*
X13112160D01*
G01X13066440D02*
X13047390D01*
G01X13009290D02*
X12986430D01*
G01X12971190D02*
X12952140D01*
G01X13298850Y729050D02*
X13279800D01*
G01X13230270D02*
X13211220D01*
G01X13135020D02*
X13112160D01*
G01X13066440D02*
X13047390D01*
G01X13009290D02*
X12986430D01*
G01X12971190D02*
X12952140D01*
G01X13298850Y732860D02*
X13279800D01*
G01X13230270D02*
X13211220D01*
G01X13135020D02*
X13112160D01*
G01X13066440D02*
X13047390D01*
G01X13009290D02*
X12986430D01*
G01X12971190D02*
X12952140D01*
G01X13298850Y736670D02*
X13279800D01*
G01X13230270D02*
X13211220D01*
G01X13135020D02*
X13112160D01*
G01X13066440D02*
X13047390D01*
G01X13009290D02*
X12986430D01*
G01X12971190D02*
X12952140D01*
G01X13298850Y740480D02*
X13279800D01*
G01X13230270D02*
X13211220D01*
G01X13135020D02*
X13112160D01*
G01X13066440D02*
X13047390D01*
G01X13009290D02*
X12986430D01*
G01X12971190D02*
X12952140D01*
G01X13298850Y744290D02*
X13279800D01*
G01X13230270D02*
X13211220D01*
G01X13135020D02*
X13112160D01*
G01X13066440D02*
X13047390D01*
G01X13009290D02*
X12986430D01*
G01X12971190D02*
X12948330D01*
G01X13298850Y748100D02*
X13279800D01*
G01X13230270D02*
X13211220D01*
G01X13135020D02*
X13112160D01*
G01X13066440D02*
X13047390D01*
G01X13009290D02*
X12986430D01*
G01X12971190D02*
X12948330D01*
G01X13298850Y751910D02*
X13279800D01*
G01X13230270D02*
X13211220D01*
G01X13135020D02*
X13112160D01*
G01X13066440D02*
X13047390D01*
G01X13009290D02*
X12986430D01*
G01X12971190D02*
X12944520D01*
G01X13298850Y755720D02*
X13279800D01*
G01X13256940D02*
X13184550D01*
G01X13135020D02*
X13112160D01*
G01X13066440D02*
X13047390D01*
G01X13009290D02*
X12986430D01*
G01X12967380D02*
X12940710D01*
G01X12921660D02*
X12894990D01*
G01X13352190Y759530D02*
X13279800D01*
G01X13256940D02*
X13184550D01*
G01X13135020D02*
X13112160D01*
G01X13066440D02*
X13047390D01*
G01X13009290D02*
X12986430D01*
G01X12967380D02*
X12894990D01*
G01X13348380Y763340D02*
X13279800D01*
G01X13256940D02*
X13184550D01*
G01X13135020D02*
X13112160D01*
G01X13066440D02*
X13047390D01*
G01X13009290D02*
X12986430D01*
G01X12963570D02*
X12898800D01*
G01X13344570Y767150D02*
X13279800D01*
G01X13256940D02*
X13184550D01*
G01X13135020D02*
X13112160D01*
G01X13066440D02*
X13047390D01*
G01X13009290D02*
X12986430D01*
G01X12959760D02*
X12902610D01*
G01X13336950Y770960D02*
X13283610D01*
G01X13256940D02*
X13184550D01*
G01X13135020D02*
X13112160D01*
G01X13066440D02*
X13047390D01*
G01X13009290D02*
X12986430D01*
G01X12955950D02*
X12906420D01*
G01X13325520Y774770D02*
X13295040D01*
G01X12944520D02*
X12917850D01*
G01X12910230Y664280D02*
X12891180D01*
G01X12910230Y668090D02*
X12891180D01*
G01X12910230Y671900D02*
X12891180D01*
G01X12910230Y675710D02*
X12891180D01*
G01X12910230Y679520D02*
X12891180D01*
G01X12910230Y683330D02*
X12891180D01*
G01X12910230Y687140D02*
X12891180D01*
G01X12910230Y690950D02*
X12891180D01*
G01X12910230Y694760D02*
X12891180D01*
G01X12910230Y698570D02*
X12891180D01*
G01X12910230Y702380D02*
X12891180D01*
G01X12910230Y706190D02*
X12891180D01*
G01X12910230Y710000D02*
X12891180D01*
G01X12910230Y713810D02*
X12891180D01*
G01X12910230Y717620D02*
X12891180D01*
G01X12910230Y721430D02*
X12891180D01*
G01X12910230Y725240D02*
X12891180D01*
G01X12910230Y729050D02*
X12891180D01*
G01X12910230Y732860D02*
X12891180D01*
G01X12910230Y736670D02*
X12891180D01*
G01X12910230Y740480D02*
X12891180D01*
G01X12910230Y744290D02*
X12891180D01*
G01X12914040Y748100D02*
X12891180D01*
G01X12914040Y751910D02*
X12891180D01*
G01X13637940Y652850D02*
X13615080D01*
G01X13603650D02*
X13580790D01*
G01X13637940Y656660D02*
X13615080D01*
G01X13599840D02*
X13580790D01*
G01X13637940Y660470D02*
X13615080D01*
G01X13599840D02*
X13580790D01*
G01X13637940Y664280D02*
X13615080D01*
G01X13599840D02*
X13580790D01*
G01X13439820D02*
X13416960D01*
G01X13634130Y668090D02*
X13615080D01*
G01X13599840D02*
X13580790D01*
G01X13443630D02*
X13420770D01*
G01X13634130Y671900D02*
X13615080D01*
G01X13599840D02*
X13580790D01*
G01X13443630D02*
X13424580D01*
G01X13634130Y675710D02*
X13618890D01*
G01X13599840D02*
X13580790D01*
G01X13447440D02*
X13428390D01*
G01X13634130Y679520D02*
X13618890D01*
G01X13599840D02*
X13580790D01*
G01X13451250D02*
X13432200D01*
G01X13702710Y683330D02*
X13683660D01*
G01X13634130D02*
X13618890D01*
G01X13599840D02*
X13580790D01*
G01X13451250D02*
X13432200D01*
G01X13737000Y687140D02*
X13721760D01*
G01X13710330D02*
X13676040D01*
G01X13634130D02*
X13618890D01*
G01X13599840D02*
X13584600D01*
G01X13451250D02*
X13436010D01*
G01X13737000Y690950D02*
X13717950D01*
G01X13714140D02*
X13672230D01*
G01X13634130D02*
X13618890D01*
G01X13599840D02*
X13584600D01*
G01X13455060D02*
X13436010D01*
G01X13737000Y694760D02*
X13668420D01*
G01X13455060D02*
X13439820D01*
G01X13737000Y698570D02*
X13668420D01*
G01X13455060D02*
X13439820D01*
G01X13737000Y702380D02*
X13702710D01*
G01X13691280D02*
X13668420D01*
G01X13458870D02*
X13439820D01*
G01X13737000Y706190D02*
X13710330D01*
G01X13687470D02*
X13668420D01*
G01X13458870D02*
X13443630D01*
G01X13737000Y710000D02*
X13714140D01*
G01X13687470D02*
X13664610D01*
G01X13458870D02*
X13443630D01*
G01X13737000Y713810D02*
X13717950D01*
G01X13687470D02*
X13664610D01*
G01X13458870D02*
X13443630D01*
G01X13737000Y717620D02*
X13717950D01*
G01X13687470D02*
X13664610D01*
G01X13458870D02*
X13443630D01*
G01X13737000Y721430D02*
X13717950D01*
G01X13462680D02*
X13443630D01*
G01X13439820D02*
X13420770D01*
G01X13737000Y725240D02*
X13717950D01*
G01X13462680D02*
X13443630D01*
G01X13439820D02*
X13420770D01*
G01X13737000Y729050D02*
X13717950D01*
G01X13462680D02*
X13447440D01*
G01X13439820D02*
X13424580D01*
G01X13737000Y732860D02*
X13717950D01*
G01X13462680D02*
X13447440D01*
G01X13439820D02*
X13424580D01*
G01X13737000Y736670D02*
X13717950D01*
G01X13462680D02*
X13447440D01*
G01X13439820D02*
X13424580D01*
G01X13737000Y740480D02*
X13717950D01*
G01X13462680D02*
X13447440D01*
G01X13439820D02*
X13424580D01*
G01X13737000Y744290D02*
X13717950D01*
G01X13462680D02*
X13447440D01*
G01X13439820D02*
X13424580D01*
G01X13737000Y748100D02*
X13717950D01*
G01X13462680D02*
X13447440D01*
G01X13439820D02*
X13420770D01*
G01X13737000Y751910D02*
X13717950D01*
G01X13462680D02*
X13447440D01*
G01X13439820D02*
X13375050D01*
G01X13737000Y755720D02*
X13717950D01*
G01X13462680D02*
X13447440D01*
G01X13737000Y759530D02*
X13717950D01*
G01X13462680D02*
X13443630D01*
G01X13737000Y763340D02*
X13717950D01*
G01X13462680D02*
X13443630D01*
G01X13737000Y767150D02*
X13717950D01*
G01X13458870D02*
X13443630D01*
G01X13737000Y770960D02*
X13717950D01*
G01X13458870D02*
X13443630D01*
G01X13458870Y774770D02*
X13443630D01*
G01X13458870Y778580D02*
X13439820D01*
G01X13458870Y782390D02*
X13439820D01*
G01X13455060Y786200D02*
X13436010D01*
G01X13455060Y790010D02*
X13432200D01*
G01X13451250Y793820D02*
X13428390D01*
G01X13447440Y797630D02*
X13390290D01*
G01X13443630Y801440D02*
X13390290D01*
G01X13439820Y805250D02*
X13394100D01*
G01X13416960Y649040D02*
X13397910D01*
G01X13428390Y652850D02*
X13390290D01*
G01X13432200Y656660D02*
X13382670D01*
G01X13436010Y660470D02*
X13378860D01*
G01X13397910Y664280D02*
X13378860D01*
G01X13394100Y668090D02*
X13375050D01*
G01X13390290Y671900D02*
X13375050D01*
G01X13390290Y675710D02*
X13371240D01*
G01X13386480Y679520D02*
X13371240D01*
G01X13352190D02*
X13321710D01*
G01X13386480Y683330D02*
X13371240D01*
G01X13352190D02*
X13325520D01*
G01X13386480Y687140D02*
X13371240D01*
G01X13356000D02*
X13329330D01*
G01X13420770Y690950D02*
X13405530D01*
G01X13401720D02*
X13390290D01*
G01X13386480D02*
X13371240D01*
G01X13356000D02*
X13333140D01*
G01X13428390Y694760D02*
X13390290D01*
G01X13386480D02*
X13367430D01*
G01X13359810D02*
X13336950D01*
G01X13432200Y698570D02*
X13390290D01*
G01X13382670D02*
X13367430D01*
G01X13359810D02*
X13336950D01*
G01X13432200Y702380D02*
X13390290D01*
G01X13382670D02*
X13367430D01*
G01X13359810D02*
X13336950D01*
G01X13436010Y706190D02*
X13390290D01*
G01X13382670D02*
X13367430D01*
G01X13359810D02*
X13340760D01*
G01X13436010Y710000D02*
X13416960D01*
G01X13409340D02*
X13394100D01*
G01X13382670D02*
X13367430D01*
G01X13359810D02*
X13340760D01*
G01X13436010Y713810D02*
X13420770D01*
G01X13409340D02*
X13394100D01*
G01X13382670D02*
X13367430D01*
G01X13363620D02*
X13340760D01*
G01X13436010Y717620D02*
X13420770D01*
G01X13409340D02*
X13394100D01*
G01X13382670D02*
X13367430D01*
G01X13363620D02*
X13340760D01*
G01X13409340Y721430D02*
X13394100D01*
G01X13382670D02*
X13367430D01*
G01X13363620D02*
X13340760D01*
G01X13409340Y725240D02*
X13394100D01*
G01X13382670D02*
X13367430D01*
G01X13363620D02*
X13340760D01*
G01X13409340Y729050D02*
X13394100D01*
G01X13386480D02*
X13367430D01*
G01X13359810D02*
X13340760D01*
G01X13409340Y732860D02*
X13394100D01*
G01X13386480D02*
X13371240D01*
G01X13359810D02*
X13340760D01*
G01X13409340Y736670D02*
X13394100D01*
G01X13386480D02*
X13371240D01*
G01X13359810D02*
X13336950D01*
G01X13413150Y740480D02*
X13394100D01*
G01X13386480D02*
X13371240D01*
G01X13359810D02*
X13336950D01*
G01X13413150Y744290D02*
X13394100D01*
G01X13386480D02*
X13371240D01*
G01X13359810D02*
X13336950D01*
G01X13416960Y748100D02*
X13394100D01*
G01X13390290D02*
X13371240D01*
G01X13356000D02*
X13333140D01*
G01X13356000Y751910D02*
X13329330D01*
G01X13436010Y755720D02*
X13375050D01*
G01X13352190D02*
X13321710D01*
G01X13436010Y759530D02*
X13378860D01*
G01X13432200Y763340D02*
X13409340D01*
G01X13405530D02*
X13378860D01*
G01X13428390Y767150D02*
X13416960D01*
G01X13401720D02*
X13386480D01*
G01X13394100Y790010D02*
X13390290D01*
G01X13401720Y793820D02*
X13390290D01*
G01X13432200Y809060D02*
X13405530D01*
G01X14133240Y664280D02*
X14083710D01*
G01X14133240Y668090D02*
X14072280D01*
G01X14133240Y671900D02*
X14068470D01*
G01X14133240Y675710D02*
X14064660D01*
G01X14133240Y679520D02*
X14060850D01*
G01X14133240Y683330D02*
X14110380D01*
G01X14087520D02*
X14060850D01*
G01X14133240Y687140D02*
X14110380D01*
G01X14083710D02*
X14060850D01*
G01X14034180D02*
X14015130D01*
G01X13980840D02*
X13961790D01*
G01X14133240Y690950D02*
X14110380D01*
G01X14079900D02*
X14060850D01*
G01X14034180D02*
X14015130D01*
G01X13980840D02*
X13961790D01*
G01X14133240Y694760D02*
X14110380D01*
G01X14079900D02*
X14060850D01*
G01X14034180D02*
X14015130D01*
G01X13980840D02*
X13961790D01*
G01X14133240Y698570D02*
X14110380D01*
G01X14079900D02*
X14060850D01*
G01X14034180D02*
X14015130D01*
G01X13980840D02*
X13961790D01*
G01X14133240Y702380D02*
X14110380D01*
G01X14079900D02*
X14060850D01*
G01X14034180D02*
X14015130D01*
G01X13980840D02*
X13961790D01*
G01X14133240Y706190D02*
X14110380D01*
G01X14083710D02*
X14060850D01*
G01X14034180D02*
X14015130D01*
G01X13980840D02*
X13961790D01*
G01X14133240Y710000D02*
X14110380D01*
G01X14091330D02*
X14060850D01*
G01X14034180D02*
X14015130D01*
G01X13980840D02*
X13961790D01*
G01X14133240Y713810D02*
X14064660D01*
G01X14034180D02*
X14015130D01*
G01X13980840D02*
X13961790D01*
G01X14133240Y717620D02*
X14068470D01*
G01X14034180D02*
X14015130D01*
G01X13980840D02*
X13961790D01*
G01X14133240Y721430D02*
X14076090D01*
G01X14034180D02*
X14015130D01*
G01X13980840D02*
X13961790D01*
G01X14133240Y725240D02*
X14079900D01*
G01X14034180D02*
X14015130D01*
G01X13980840D02*
X13961790D01*
G01X14133240Y729050D02*
X14076090D01*
G01X14034180D02*
X14015130D01*
G01X13980840D02*
X13961790D01*
G01X14133240Y732860D02*
X14110380D01*
G01X14098950D02*
X14072280D01*
G01X14034180D02*
X14015130D01*
G01X13980840D02*
X13961790D01*
G01X14133240Y736670D02*
X14110380D01*
G01X14091330D02*
X14068470D01*
G01X14034180D02*
X14015130D01*
G01X13980840D02*
X13961790D01*
G01X14133240Y740480D02*
X14110380D01*
G01X14091330D02*
X14068470D01*
G01X14034180D02*
X14015130D01*
G01X13980840D02*
X13961790D01*
G01X14133240Y744290D02*
X14110380D01*
G01X14087520D02*
X14064660D01*
G01X14034180D02*
X14015130D01*
G01X13984650D02*
X13961790D01*
G01X14133240Y748100D02*
X14110380D01*
G01X14087520D02*
X14064660D01*
G01X14034180D02*
X14011320D01*
G01X13988460D02*
X13961790D01*
G01X14133240Y751910D02*
X14110380D01*
G01X14083710D02*
X14060850D01*
G01X14034180D02*
X14011320D01*
G01X13992270D02*
X13961790D01*
G01X14133240Y755720D02*
X14110380D01*
G01X14083710D02*
X14060850D01*
G01X14034180D02*
X14007510D01*
G01X13996080D02*
X13961790D01*
G01X14133240Y759530D02*
X14110380D01*
G01X14079900D02*
X14057040D01*
G01X14030370D02*
X13961790D01*
G01X14133240Y763340D02*
X14110380D01*
G01X14079900D02*
X14057040D01*
G01X14030370D02*
X13961790D01*
G01X14133240Y767150D02*
X14110380D01*
G01X14076090D02*
X14053230D01*
G01X14026560D02*
X13984650D01*
G01X13980840D02*
X13961790D01*
G01X14133240Y770960D02*
X14110380D01*
G01X14076090D02*
X14053230D01*
G01X14022750D02*
X13992270D01*
G01X13977030D02*
X13961790D01*
G01X14007510Y774770D02*
X13999890D01*
G01X13931310Y652850D02*
X13885590D01*
G01X13931310Y656660D02*
X13885590D01*
G01X13931310Y660470D02*
X13885590D01*
G01X13931310Y664280D02*
X13885590D01*
G01X13931310Y668090D02*
X13885590D01*
G01X13908450Y671900D02*
X13885590D01*
G01X13908450Y675710D02*
X13885590D01*
G01X13908450Y679520D02*
X13885590D01*
G01X13908450Y683330D02*
X13885590D01*
G01X13813200D02*
X13790340D01*
G01X13908450Y687140D02*
X13885590D01*
G01X13820820D02*
X13778910D01*
G01X13908450Y690950D02*
X13885590D01*
G01X13828440D02*
X13775100D01*
G01X13908450Y694760D02*
X13885590D01*
G01X13832250D02*
X13771290D01*
G01X13908450Y698570D02*
X13885590D01*
G01X13832250D02*
X13771290D01*
G01X13908450Y702380D02*
X13885590D01*
G01X13836060D02*
X13809390D01*
G01X13794150D02*
X13767480D01*
G01X13908450Y706190D02*
X13885590D01*
G01X13836060D02*
X13817010D01*
G01X13790340D02*
X13767480D01*
G01X13908450Y710000D02*
X13885590D01*
G01X13839870D02*
X13817010D01*
G01X13786530D02*
X13763670D01*
G01X13908450Y713810D02*
X13885590D01*
G01X13839870D02*
X13820820D01*
G01X13786530D02*
X13763670D01*
G01X13908450Y717620D02*
X13885590D01*
G01X13839870D02*
X13820820D01*
G01X13782720D02*
X13763670D01*
G01X13908450Y721430D02*
X13885590D01*
G01X13839870D02*
X13763670D01*
G01X13908450Y725240D02*
X13885590D01*
G01X13843680D02*
X13763670D01*
G01X13908450Y729050D02*
X13885590D01*
G01X13843680D02*
X13763670D01*
G01X13908450Y732860D02*
X13885590D01*
G01X13843680D02*
X13763670D01*
G01X13908450Y736670D02*
X13885590D01*
G01X13843680D02*
X13820820D01*
G01X13908450Y740480D02*
X13885590D01*
G01X13839870D02*
X13820820D01*
G01X13908450Y744290D02*
X13885590D01*
G01X13839870D02*
X13820820D01*
G01X13908450Y748100D02*
X13885590D01*
G01X13839870D02*
X13817010D01*
G01X13908450Y751910D02*
X13885590D01*
G01X13839870D02*
X13813200D01*
G01X13935120Y755720D02*
X13862730D01*
G01X13836060D02*
X13809390D01*
G01X13775100D02*
X13767480D01*
G01X13935120Y759530D02*
X13862730D01*
G01X13836060D02*
X13767480D01*
G01X13935120Y763340D02*
X13862730D01*
G01X13832250D02*
X13767480D01*
G01X13935120Y767150D02*
X13862730D01*
G01X13828440D02*
X13767480D01*
G01X13935120Y770960D02*
X13862730D01*
G01X13824630D02*
X13767480D01*
G01X13809390Y774770D02*
X13801770D01*
G01X13794150D02*
X13786530D01*
G01X14571390Y652850D02*
X14552340D01*
G01X14571390Y656660D02*
X14552340D01*
G01X14571390Y660470D02*
X14552340D01*
G01X14571390Y664280D02*
X14552340D01*
G01X14525670D02*
X14510430D01*
G01X14571390Y668090D02*
X14552340D01*
G01X14525670D02*
X14510430D01*
G01X14571390Y671900D02*
X14552340D01*
G01X14525670D02*
X14510430D01*
G01X14571390Y675710D02*
X14552340D01*
G01X14525670D02*
X14510430D01*
G01X14571390Y679520D02*
X14552340D01*
G01X14525670D02*
X14510430D01*
G01X14571390Y683330D02*
X14552340D01*
G01X14525670D02*
X14510430D01*
G01X14571390Y687140D02*
X14552340D01*
G01X14525670D02*
X14510430D01*
G01X14571390Y690950D02*
X14552340D01*
G01X14525670D02*
X14506620D01*
G01X14525670Y694760D02*
X14506620D01*
G01X14525670Y698570D02*
X14506620D01*
G01X14487570D02*
X14476140D01*
G01X14525670Y702380D02*
X14506620D01*
G01X14491380D02*
X14472330D01*
G01X14525670Y706190D02*
X14506620D01*
G01X14491380D02*
X14472330D01*
G01X14525670Y710000D02*
X14506620D01*
G01X14491380D02*
X14472330D01*
G01X14525670Y713810D02*
X14506620D01*
G01X14491380D02*
X14468520D01*
G01X14525670Y717620D02*
X14506620D01*
G01X14495190D02*
X14468520D01*
G01X14525670Y721430D02*
X14506620D01*
G01X14495190D02*
X14468520D01*
G01X14521860Y725240D02*
X14506620D01*
G01X14495190D02*
X14483760D01*
G01X14479950D02*
X14468520D01*
G01X14521860Y729050D02*
X14506620D01*
G01X14499000D02*
X14483760D01*
G01X14479950D02*
X14464710D01*
G01X14521860Y732860D02*
X14506620D01*
G01X14499000D02*
X14487570D01*
G01X14479950D02*
X14464710D01*
G01X14521860Y736670D02*
X14506620D01*
G01X14499000D02*
X14487570D01*
G01X14479950D02*
X14464710D01*
G01X14521860Y740480D02*
X14506620D01*
G01X14502810D02*
X14487570D01*
G01X14476140D02*
X14460900D01*
G01X14521860Y744290D02*
X14506620D01*
G01X14502810D02*
X14487570D01*
G01X14476140D02*
X14460900D01*
G01X14521860Y748100D02*
X14491380D01*
G01X14476140D02*
X14441850D01*
G01X14521860Y751910D02*
X14491380D01*
G01X14472330D02*
X14441850D01*
G01X14521860Y755720D02*
X14491380D01*
G01X14472330D02*
X14441850D01*
G01X14521860Y759530D02*
X14495190D01*
G01X14472330D02*
X14441850D01*
G01X14521860Y763340D02*
X14495190D01*
G01X14468520D02*
X14441850D01*
G01X14521860Y767150D02*
X14495190D01*
G01X14468520D02*
X14441850D01*
G01X14521860Y770960D02*
X14499000D01*
G01X14468520D02*
X14441850D01*
G01X14388510Y649040D02*
X14377080D01*
G01X14396130Y652850D02*
X14373270D01*
G01X14228490D02*
X14205630D01*
G01X14396130Y656660D02*
X14369460D01*
G01X14228490D02*
X14205630D01*
G01X14396130Y660470D02*
X14369460D01*
G01X14293260D02*
X14285640D01*
G01X14228490D02*
X14205630D01*
G01X14453280Y664280D02*
X14438040D01*
G01X14396130D02*
X14369460D01*
G01X14304690D02*
X14285640D01*
G01X14228490D02*
X14205630D01*
G01X14453280Y668090D02*
X14438040D01*
G01X14396130D02*
X14373270D01*
G01X14308500D02*
X14285640D01*
G01X14228490D02*
X14205630D01*
G01X14453280Y671900D02*
X14438040D01*
G01X14388510D02*
X14377080D01*
G01X14308500D02*
X14285640D01*
G01X14228490D02*
X14205630D01*
G01X14453280Y675710D02*
X14438040D01*
G01X14308500D02*
X14285640D01*
G01X14228490D02*
X14205630D01*
G01X14453280Y679520D02*
X14438040D01*
G01X14308500D02*
X14285640D01*
G01X14228490D02*
X14205630D01*
G01X14453280Y683330D02*
X14438040D01*
G01X14308500D02*
X14285640D01*
G01X14228490D02*
X14205630D01*
G01X14190390D02*
X14171340D01*
G01X14453280Y687140D02*
X14438040D01*
G01X14418990D02*
X14373270D01*
G01X14331360D02*
X14251350D01*
G01X14228490D02*
X14205630D01*
G01X14198010D02*
X14163720D01*
G01X14457090Y690950D02*
X14438040D01*
G01X14418990D02*
X14373270D01*
G01X14331360D02*
X14251350D01*
G01X14228490D02*
X14205630D01*
G01X14201820D02*
X14159910D01*
G01X14457090Y694760D02*
X14438040D01*
G01X14418990D02*
X14373270D01*
G01X14331360D02*
X14251350D01*
G01X14228490D02*
X14159910D01*
G01X14457090Y698570D02*
X14438040D01*
G01X14418990D02*
X14373270D01*
G01X14331360D02*
X14251350D01*
G01X14228490D02*
X14156100D01*
G01X14457090Y702380D02*
X14438040D01*
G01X14418990D02*
X14373270D01*
G01X14331360D02*
X14251350D01*
G01X14228490D02*
X14194200D01*
G01X14178960D02*
X14156100D01*
G01X14457090Y706190D02*
X14438040D01*
G01X14392320D02*
X14373270D01*
G01X14308500D02*
X14285640D01*
G01X14228490D02*
X14198010D01*
G01X14175150D02*
X14156100D01*
G01X14457090Y710000D02*
X14438040D01*
G01X14392320D02*
X14373270D01*
G01X14308500D02*
X14285640D01*
G01X14228490D02*
X14201820D01*
G01X14175150D02*
X14156100D01*
G01X14457090Y713810D02*
X14441850D01*
G01X14392320D02*
X14373270D01*
G01X14308500D02*
X14285640D01*
G01X14228490D02*
X14205630D01*
G01X14175150D02*
X14156100D01*
G01X14457090Y717620D02*
X14441850D01*
G01X14392320D02*
X14373270D01*
G01X14308500D02*
X14285640D01*
G01X14228490D02*
X14205630D01*
G01X14175150D02*
X14156100D01*
G01X14457090Y721430D02*
X14441850D01*
G01X14392320D02*
X14373270D01*
G01X14308500D02*
X14285640D01*
G01X14228490D02*
X14205630D01*
G01X14175150D02*
X14156100D01*
G01X14457090Y725240D02*
X14441850D01*
G01X14392320D02*
X14373270D01*
G01X14308500D02*
X14285640D01*
G01X14228490D02*
X14205630D01*
G01X14175150D02*
X14156100D01*
G01X14457090Y729050D02*
X14441850D01*
G01X14392320D02*
X14373270D01*
G01X14308500D02*
X14285640D01*
G01X14228490D02*
X14205630D01*
G01X14175150D02*
X14156100D01*
G01X14457090Y732860D02*
X14441850D01*
G01X14392320D02*
X14373270D01*
G01X14308500D02*
X14285640D01*
G01X14228490D02*
X14205630D01*
G01X14175150D02*
X14156100D01*
G01X14457090Y736670D02*
X14441850D01*
G01X14392320D02*
X14373270D01*
G01X14308500D02*
X14285640D01*
G01X14228490D02*
X14205630D01*
G01X14175150D02*
X14156100D01*
G01X14457090Y740480D02*
X14441850D01*
G01X14392320D02*
X14373270D01*
G01X14308500D02*
X14285640D01*
G01X14228490D02*
X14205630D01*
G01X14175150D02*
X14156100D01*
G01X14457090Y744290D02*
X14441850D01*
G01X14392320D02*
X14373270D01*
G01X14308500D02*
X14285640D01*
G01X14228490D02*
X14205630D01*
G01X14175150D02*
X14156100D01*
G01X14392320Y748100D02*
X14373270D01*
G01X14308500D02*
X14285640D01*
G01X14228490D02*
X14205630D01*
G01X14175150D02*
X14156100D01*
G01X14392320Y751910D02*
X14373270D01*
G01X14308500D02*
X14285640D01*
G01X14228490D02*
X14205630D01*
G01X14175150D02*
X14156100D01*
G01X14418990Y755720D02*
X14346600D01*
G01X14304690D02*
X14281830D01*
G01X14258970D02*
X14251350D01*
G01X14228490D02*
X14205630D01*
G01X14175150D02*
X14156100D01*
G01X14418990Y759530D02*
X14346600D01*
G01X14304690D02*
X14251350D01*
G01X14228490D02*
X14205630D01*
G01X14175150D02*
X14156100D01*
G01X14418990Y763340D02*
X14346600D01*
G01X14304690D02*
X14251350D01*
G01X14228490D02*
X14205630D01*
G01X14175150D02*
X14156100D01*
G01X14418990Y767150D02*
X14346600D01*
G01X14300880D02*
X14251350D01*
G01X14228490D02*
X14205630D01*
G01X14175150D02*
X14156100D01*
G01X14418990Y770960D02*
X14346600D01*
G01X14297070D02*
X14251350D01*
G01X14228490D02*
X14205630D01*
G01X14175150D02*
X14156100D01*
G01X14281830Y774770D02*
X14274210D01*
G01X14266590D02*
X14262780D01*
G01X14998110Y687140D02*
X14982870D01*
G01X14998110Y690950D02*
X14979060D01*
G01X14998110Y694760D02*
X14929530D01*
G01X14998110Y698570D02*
X14929530D01*
G01X14998110Y702380D02*
X14963820D01*
G01X14998110Y706190D02*
X14971440D01*
G01X14998110Y710000D02*
X14975250D01*
G01X14998110Y713810D02*
X14979060D01*
G01X14998110Y717620D02*
X14979060D01*
G01X14998110Y721430D02*
X14979060D01*
G01X14998110Y725240D02*
X14979060D01*
G01X14998110Y729050D02*
X14979060D01*
G01X14998110Y732860D02*
X14979060D01*
G01X14998110Y736670D02*
X14979060D01*
G01X14998110Y740480D02*
X14979060D01*
G01X14998110Y744290D02*
X14979060D01*
G01X14998110Y748100D02*
X14979060D01*
G01X14998110Y751910D02*
X14979060D01*
G01X14998110Y755720D02*
X14979060D01*
G01X14998110Y759530D02*
X14979060D01*
G01X14998110Y763340D02*
X14979060D01*
G01X14998110Y767150D02*
X14979060D01*
G01X14998110Y770960D02*
X14979060D01*
G01X14807610Y652850D02*
X14788560D01*
G01X14605680D02*
X14586630D01*
G01X14807610Y656660D02*
X14788560D01*
G01X14605680D02*
X14586630D01*
G01X14807610Y660470D02*
X14788560D01*
G01X14605680D02*
X14586630D01*
G01X14807610Y664280D02*
X14788560D01*
G01X14605680D02*
X14586630D01*
G01X14807610Y668090D02*
X14788560D01*
G01X14605680D02*
X14586630D01*
G01X14807610Y671900D02*
X14788560D01*
G01X14605680D02*
X14586630D01*
G01X14807610Y675710D02*
X14788560D01*
G01X14605680D02*
X14586630D01*
G01X14807610Y679520D02*
X14788560D01*
G01X14605680D02*
X14586630D01*
G01X14963820Y683330D02*
X14944770D01*
G01X14872380D02*
X14845710D01*
G01X14807610D02*
X14788560D01*
G01X14773320D02*
X14754270D01*
G01X14605680D02*
X14586630D01*
G01X14971440Y687140D02*
X14937150D01*
G01X14883810D02*
X14838090D01*
G01X14807610D02*
X14788560D01*
G01X14780940D02*
X14746650D01*
G01X14605680D02*
X14586630D01*
G01X14975250Y690950D02*
X14933340D01*
G01X14891430D02*
X14838090D01*
G01X14807610D02*
X14788560D01*
G01X14784750D02*
X14742840D01*
G01X14605680D02*
X14590440D01*
G01X14895240Y694760D02*
X14838090D01*
G01X14807610D02*
X14739030D01*
G01X14895240Y698570D02*
X14838090D01*
G01X14807610D02*
X14739030D01*
G01X14952390Y702380D02*
X14929530D01*
G01X14899050D02*
X14868570D01*
G01X14841900D02*
X14838090D01*
G01X14807610D02*
X14773320D01*
G01X14761890D02*
X14739030D01*
G01X14948580Y706190D02*
X14929530D01*
G01X14902860D02*
X14876190D01*
G01X14807610D02*
X14780940D01*
G01X14758080D02*
X14735220D01*
G01X14948580Y710000D02*
X14925720D01*
G01X14902860D02*
X14880000D01*
G01X14807610D02*
X14784750D01*
G01X14758080D02*
X14735220D01*
G01X14948580Y713810D02*
X14925720D01*
G01X14902860D02*
X14880000D01*
G01X14807610D02*
X14784750D01*
G01X14758080D02*
X14735220D01*
G01X14948580Y717620D02*
X14925720D01*
G01X14906670D02*
X14883810D01*
G01X14807610D02*
X14788560D01*
G01X14758080D02*
X14735220D01*
G01X14906670Y721430D02*
X14883810D01*
G01X14807610D02*
X14788560D01*
G01X14758080D02*
X14735220D01*
G01X14906670Y725240D02*
X14883810D01*
G01X14807610D02*
X14788560D01*
G01X14758080D02*
X14735220D01*
G01X14906670Y729050D02*
X14883810D01*
G01X14807610D02*
X14788560D01*
G01X14758080D02*
X14735220D01*
G01X14906670Y732860D02*
X14883810D01*
G01X14807610D02*
X14788560D01*
G01X14758080D02*
X14735220D01*
G01X14906670Y736670D02*
X14883810D01*
G01X14807610D02*
X14788560D01*
G01X14758080D02*
X14735220D01*
G01X14906670Y740480D02*
X14883810D01*
G01X14807610D02*
X14788560D01*
G01X14758080D02*
X14735220D01*
G01X14906670Y744290D02*
X14880000D01*
G01X14807610D02*
X14788560D01*
G01X14758080D02*
X14735220D01*
G01X14902860Y748100D02*
X14880000D01*
G01X14807610D02*
X14788560D01*
G01X14758080D02*
X14735220D01*
G01X14902860Y751910D02*
X14876190D01*
G01X14807610D02*
X14788560D01*
G01X14758080D02*
X14735220D01*
G01X14902860Y755720D02*
X14868570D01*
G01X14841900D02*
X14834280D01*
G01X14807610D02*
X14788560D01*
G01X14758080D02*
X14735220D01*
G01X14899050Y759530D02*
X14834280D01*
G01X14807610D02*
X14788560D01*
G01X14758080D02*
X14735220D01*
G01X14895240Y763340D02*
X14834280D01*
G01X14807610D02*
X14788560D01*
G01X14758080D02*
X14735220D01*
G01X14891430Y767150D02*
X14834280D01*
G01X14807610D02*
X14788560D01*
G01X14758080D02*
X14735220D01*
G01X14887620Y770960D02*
X14834280D01*
G01X14807610D02*
X14788560D01*
G01X14758080D02*
X14735220D01*
G01X14876190Y774770D02*
X14845710D01*
G01X15268620Y660470D02*
X15238140D01*
G01X15280050Y664280D02*
X15226710D01*
G01X15287670Y668090D02*
X15226710D01*
G01X15291480Y671900D02*
X15226710D01*
G01X15291480Y675710D02*
X15226710D01*
G01X15295290Y679520D02*
X15268620D01*
G01X15234330D02*
X15226710D01*
G01X15295290Y683330D02*
X15272430D01*
G01X15173370D02*
X15146700D01*
G01X15078120D02*
X15051450D01*
G01X15295290Y687140D02*
X15276240D01*
G01X15180990D02*
X15139080D01*
G01X15093360D02*
X15040020D01*
G01X15295290Y690950D02*
X15276240D01*
G01X15184800D02*
X15135270D01*
G01X15097170D02*
X15036210D01*
G01X15295290Y694760D02*
X15272430D01*
G01X15188610D02*
X15131460D01*
G01X15097170D02*
X15032400D01*
G01X15295290Y698570D02*
X15268620D01*
G01X15192420D02*
X15127650D01*
G01X15097170D02*
X15032400D01*
G01X15295290Y702380D02*
X15261000D01*
G01X15192420D02*
X15169560D01*
G01X15150510D02*
X15127650D01*
G01X15097170D02*
X15081930D01*
G01X15055260D02*
X15028590D01*
G01X15295290Y706190D02*
X15253380D01*
G01X15196230D02*
X15173370D01*
G01X15146700D02*
X15123840D01*
G01X15097170D02*
X15093360D01*
G01X15051450D02*
X15028590D01*
G01X15291480Y710000D02*
X15241950D01*
G01X15196230D02*
X15177180D01*
G01X15142890D02*
X15123840D01*
G01X15047640D02*
X15028590D01*
G01X15287670Y713810D02*
X15234330D01*
G01X15200040D02*
X15177180D01*
G01X15142890D02*
X15123840D01*
G01X15047640D02*
X15028590D01*
G01X15283860Y717620D02*
X15230520D01*
G01X15200040D02*
X15180990D01*
G01X15142890D02*
X15123840D01*
G01X15047640D02*
X15028590D01*
G01X15276240Y721430D02*
X15226710D01*
G01X15200040D02*
X15123840D01*
G01X15078120D02*
X15028590D01*
G01X15264810Y725240D02*
X15222900D01*
G01X15200040D02*
X15123840D01*
G01X15089550D02*
X15028590D01*
G01X15257190Y729050D02*
X15222900D01*
G01X15200040D02*
X15123840D01*
G01X15093360D02*
X15028590D01*
G01X15249570Y732860D02*
X15219090D01*
G01X15200040D02*
X15123840D01*
G01X15097170D02*
X15028590D01*
G01X15245760Y736670D02*
X15219090D01*
G01X15200040D02*
X15180990D01*
G01X15100980D02*
X15074310D01*
G01X15047640D02*
X15028590D01*
G01X15241950Y740480D02*
X15219090D01*
G01X15200040D02*
X15180990D01*
G01X15100980D02*
X15078120D01*
G01X15047640D02*
X15028590D01*
G01X15241950Y744290D02*
X15219090D01*
G01X15200040D02*
X15177180D01*
G01X15100980D02*
X15081930D01*
G01X15047640D02*
X15028590D01*
G01X15241950Y748100D02*
X15219090D01*
G01X15200040D02*
X15177180D01*
G01X15100980D02*
X15081930D01*
G01X15051450D02*
X15028590D01*
G01X15299100Y751910D02*
X15295290D01*
G01X15245760D02*
X15219090D01*
G01X15196230D02*
X15173370D01*
G01X15100980D02*
X15081930D01*
G01X15055260D02*
X15028590D01*
G01X15299100Y755720D02*
X15280050D01*
G01X15249570D02*
X15222900D01*
G01X15196230D02*
X15165750D01*
G01X15131460D02*
X15127650D01*
G01X15100980D02*
X15078120D01*
G01X15059070D02*
X15028590D01*
G01X15299100Y759530D02*
X15222900D01*
G01X15192420D02*
X15127650D01*
G01X15100980D02*
X15028590D01*
G01X15299100Y763340D02*
X15226710D01*
G01X15192420D02*
X15127650D01*
G01X15100980D02*
X15028590D01*
G01X15299100Y767150D02*
X15230520D01*
G01X15188610D02*
X15127650D01*
G01X15097170D02*
X15051450D01*
G01X15047640D02*
X15028590D01*
G01X15295290Y770960D02*
X15238140D01*
G01X15180990D02*
X15127650D01*
G01X15093360D02*
X15059070D01*
G01X15043830D02*
X15028590D01*
G01X15280050Y774770D02*
X15249570D01*
G01X15173370D02*
X15139080D01*
G01X15085740D02*
X15066690D01*
M02*
