G04 ================== begin FILE IDENTIFICATION RECORD ==================*
G04 Layout Name:  H:/WithRuler/HARDWARE/WITHRULER_V10A/PCB/WITHRULER_V10A.brd*
G04 Film Name:    Drill_Legend*
G04 File Format:  Gerber RS274X*
G04 File Origin:  Cadence Allegro 17.2-S045*
G04 Origin Date:  Tue Apr 09 16:34:01 2019*
G04 *
G04 Layer:  BOARD GEOMETRY/OUTLINE*
G04 Layer:  MANUFACTURING/NCDRILL_FIGURE*
G04 Layer:  BOARD GEOMETRY/DIMENSION*
G04 Layer:  MANUFACTURING/NCDRILL_LEGEND*
G04 Layer:  MANUFACTURING/NCLEGEND-1-2*
G04 *
G04 Offset:    (0.0000 0.0000)*
G04 Mirror:    No*
G04 Mode:      Positive*
G04 Rotation:  0*
G04 FullContactRelief:  No*
G04 UndefLineWidth:     0.1524*
G04 ================== end FILE IDENTIFICATION RECORD ====================*
%FSLAX55Y55*MOMM*%
%IR0*IPPOS*OFA0.00000B0.00000*MIA0B0*SFA1.00000B1.00000*%
%AMMACRO10*
1,1,.1524,-.4,.3*
20,1,.1524,-.4,.3,.4,.3,0.0*
1,1,.1524,.4,.3*
20,1,.1524,.4,.3,.452094,.295442,0.0*
1,1,.1524,.452094,.295442*
20,1,.1524,.452094,.295442,.502606,.281908,0.0*
1,1,.1524,.502606,.281908*
20,1,.1524,.502606,.281908,.55,.259808,0.0*
1,1,.1524,.55,.259808*
20,1,.1524,.55,.259808,.592836,.229813,0.0*
1,1,.1524,.592836,.229813*
20,1,.1524,.592836,.229813,.629813,.192836,0.0*
1,1,.1524,.629813,.192836*
20,1,.1524,.629813,.192836,.659808,.15,0.0*
1,1,.1524,.659808,.15*
20,1,.1524,.659808,.15,.681908,.102606,0.0*
1,1,.1524,.681908,.102606*
20,1,.1524,.681908,.102606,.695442,.052094,0.0*
1,1,.1524,.695442,.052094*
20,1,.1524,.695442,.052094,.7,0.0,0.0*
1,1,.1524,.7,0.0*
20,1,.1524,.7,0.0,.695442,-.052094,0.0*
1,1,.1524,.695442,-.052094*
20,1,.1524,.695442,-.052094,.681908,-.102606,0.0*
1,1,.1524,.681908,-.102606*
20,1,.1524,.681908,-.102606,.659808,-.15,0.0*
1,1,.1524,.659808,-.15*
20,1,.1524,.659808,-.15,.629813,-.192836,0.0*
1,1,.1524,.629813,-.192836*
20,1,.1524,.629813,-.192836,.592836,-.229813,0.0*
1,1,.1524,.592836,-.229813*
20,1,.1524,.592836,-.229813,.55,-.259808,0.0*
1,1,.1524,.55,-.259808*
20,1,.1524,.55,-.259808,.502606,-.281908,0.0*
1,1,.1524,.502606,-.281908*
20,1,.1524,.502606,-.281908,.452094,-.295442,0.0*
1,1,.1524,.452094,-.295442*
20,1,.1524,.452094,-.295442,.4,-.3,0.0*
1,1,.1524,.4,-.3*
20,1,.1524,.4,-.3,-.4,-.3,0.0*
1,1,.1524,-.4,-.3*
20,1,.1524,-.4,-.3,-.452094,-.295442,0.0*
1,1,.1524,-.452094,-.295442*
20,1,.1524,-.452094,-.295442,-.502606,-.281908,0.0*
1,1,.1524,-.502606,-.281908*
20,1,.1524,-.502606,-.281908,-.55,-.259808,0.0*
1,1,.1524,-.55,-.259808*
20,1,.1524,-.55,-.259808,-.592836,-.229813,0.0*
1,1,.1524,-.592836,-.229813*
20,1,.1524,-.592836,-.229813,-.629813,-.192836,0.0*
1,1,.1524,-.629813,-.192836*
20,1,.1524,-.629813,-.192836,-.659808,-.15,0.0*
1,1,.1524,-.659808,-.15*
20,1,.1524,-.659808,-.15,-.681908,-.102606,0.0*
1,1,.1524,-.681908,-.102606*
20,1,.1524,-.681908,-.102606,-.695442,-.052094,0.0*
1,1,.1524,-.695442,-.052094*
20,1,.1524,-.695442,-.052094,-.7,0.0,0.0*
1,1,.1524,-.7,0.0*
20,1,.1524,-.7,0.0,-.695442,.052094,0.0*
1,1,.1524,-.695442,.052094*
20,1,.1524,-.695442,.052094,-.681908,.102606,0.0*
1,1,.1524,-.681908,.102606*
20,1,.1524,-.681908,.102606,-.659808,.15,0.0*
1,1,.1524,-.659808,.15*
20,1,.1524,-.659808,.15,-.629813,.192836,0.0*
1,1,.1524,-.629813,.192836*
20,1,.1524,-.629813,.192836,-.592836,.229813,0.0*
1,1,.1524,-.592836,.229813*
20,1,.1524,-.592836,.229813,-.55,.259808,0.0*
1,1,.1524,-.55,.259808*
20,1,.1524,-.55,.259808,-.502606,.281908,0.0*
1,1,.1524,-.502606,.281908*
20,1,.1524,-.502606,.281908,-.452094,.295442,0.0*
1,1,.1524,-.452094,.295442*
20,1,.1524,-.452094,.295442,-.4,.3,0.0*
1,1,.1524,-.4,.3*
1,1,.1524,-.15,-.15*
20,1,.1524,-.15,-.15,-.19,-.145,0.0*
1,1,.1524,-.19,-.145*
20,1,.1524,-.19,-.145,-.225,-.125,0.0*
1,1,.1524,-.225,-.125*
20,1,.1524,-.225,-.125,-.255,-.095,0.0*
1,1,.1524,-.255,-.095*
20,1,.1524,-.255,-.095,-.275,-.06,0.0*
1,1,.1524,-.275,-.06*
20,1,.1524,-.275,-.06,-.285,-.02,0.0*
1,1,.1524,-.285,-.02*
20,1,.1524,-.285,-.02,-.285,.02,0.0*
1,1,.1524,-.285,.02*
20,1,.1524,-.285,.02,-.275,.06,0.0*
1,1,.1524,-.275,.06*
20,1,.1524,-.275,.06,-.255,.095,0.0*
1,1,.1524,-.255,.095*
20,1,.1524,-.255,.095,-.225,.125,0.0*
1,1,.1524,-.225,.125*
20,1,.1524,-.225,.125,-.19,.145,0.0*
1,1,.1524,-.19,.145*
20,1,.1524,-.19,.145,-.15,.15,0.0*
1,1,.1524,-.15,.15*
20,1,.1524,-.15,.15,-.11,.145,0.0*
1,1,.1524,-.11,.145*
20,1,.1524,-.11,.145,-.075,.125,0.0*
1,1,.1524,-.075,.125*
20,1,.1524,-.075,.125,-.045,.095,0.0*
1,1,.1524,-.045,.095*
20,1,.1524,-.045,.095,-.025,.06,0.0*
1,1,.1524,-.025,.06*
20,1,.1524,-.025,.06,-.015,.02,0.0*
1,1,.1524,-.015,.02*
20,1,.1524,-.015,.02,-.015,-.02,0.0*
1,1,.1524,-.015,-.02*
20,1,.1524,-.015,-.02,-.025,-.06,0.0*
1,1,.1524,-.025,-.06*
20,1,.1524,-.025,-.06,-.045,-.095,0.0*
1,1,.1524,-.045,-.095*
20,1,.1524,-.045,-.095,-.075,-.125,0.0*
1,1,.1524,-.075,-.125*
20,1,.1524,-.075,-.125,-.11,-.145,0.0*
1,1,.1524,-.11,-.145*
20,1,.1524,-.11,-.145,-.15,-.15,0.0*
1,1,.1524,-.15,-.15*
1,1,.1524,.0251,-.15*
20,1,.1524,.0251,-.15,.1501,.15,0.0*
1,1,.1524,.1501,.15*
20,1,.1524,.1501,.15,.2751,-.15,0.0*
1,1,.1524,.2751,-.15*
1,1,.1524,.2301,-.045*
20,1,.1524,.2301,-.045,.0701,-.045,0.0*
1,1,.1524,.0701,-.045*
%
%ADD10MACRO10*%
%AMMACRO11*
1,1,.1524,-.6,.3*
20,1,.1524,-.6,.3,.6,.3,0.0*
1,1,.1524,.6,.3*
20,1,.1524,.6,.3,.652094,.295442,0.0*
1,1,.1524,.652094,.295442*
20,1,.1524,.652094,.295442,.702606,.281908,0.0*
1,1,.1524,.702606,.281908*
20,1,.1524,.702606,.281908,.75,.259808,0.0*
1,1,.1524,.75,.259808*
20,1,.1524,.75,.259808,.792836,.229813,0.0*
1,1,.1524,.792836,.229813*
20,1,.1524,.792836,.229813,.829813,.192836,0.0*
1,1,.1524,.829813,.192836*
20,1,.1524,.829813,.192836,.859808,.15,0.0*
1,1,.1524,.859808,.15*
20,1,.1524,.859808,.15,.881908,.102606,0.0*
1,1,.1524,.881908,.102606*
20,1,.1524,.881908,.102606,.895442,.052094,0.0*
1,1,.1524,.895442,.052094*
20,1,.1524,.895442,.052094,.9,0.0,0.0*
1,1,.1524,.9,0.0*
20,1,.1524,.9,0.0,.895442,-.052094,0.0*
1,1,.1524,.895442,-.052094*
20,1,.1524,.895442,-.052094,.881908,-.102606,0.0*
1,1,.1524,.881908,-.102606*
20,1,.1524,.881908,-.102606,.859808,-.15,0.0*
1,1,.1524,.859808,-.15*
20,1,.1524,.859808,-.15,.829813,-.192836,0.0*
1,1,.1524,.829813,-.192836*
20,1,.1524,.829813,-.192836,.792836,-.229813,0.0*
1,1,.1524,.792836,-.229813*
20,1,.1524,.792836,-.229813,.75,-.259808,0.0*
1,1,.1524,.75,-.259808*
20,1,.1524,.75,-.259808,.702606,-.281908,0.0*
1,1,.1524,.702606,-.281908*
20,1,.1524,.702606,-.281908,.652094,-.295442,0.0*
1,1,.1524,.652094,-.295442*
20,1,.1524,.652094,-.295442,.6,-.3,0.0*
1,1,.1524,.6,-.3*
20,1,.1524,.6,-.3,-.6,-.3,0.0*
1,1,.1524,-.6,-.3*
20,1,.1524,-.6,-.3,-.652094,-.295442,0.0*
1,1,.1524,-.652094,-.295442*
20,1,.1524,-.652094,-.295442,-.702606,-.281908,0.0*
1,1,.1524,-.702606,-.281908*
20,1,.1524,-.702606,-.281908,-.75,-.259808,0.0*
1,1,.1524,-.75,-.259808*
20,1,.1524,-.75,-.259808,-.792836,-.229813,0.0*
1,1,.1524,-.792836,-.229813*
20,1,.1524,-.792836,-.229813,-.829813,-.192836,0.0*
1,1,.1524,-.829813,-.192836*
20,1,.1524,-.829813,-.192836,-.859808,-.15,0.0*
1,1,.1524,-.859808,-.15*
20,1,.1524,-.859808,-.15,-.881908,-.102606,0.0*
1,1,.1524,-.881908,-.102606*
20,1,.1524,-.881908,-.102606,-.895442,-.052094,0.0*
1,1,.1524,-.895442,-.052094*
20,1,.1524,-.895442,-.052094,-.9,0.0,0.0*
1,1,.1524,-.9,0.0*
20,1,.1524,-.9,0.0,-.895442,.052094,0.0*
1,1,.1524,-.895442,.052094*
20,1,.1524,-.895442,.052094,-.881908,.102606,0.0*
1,1,.1524,-.881908,.102606*
20,1,.1524,-.881908,.102606,-.859808,.15,0.0*
1,1,.1524,-.859808,.15*
20,1,.1524,-.859808,.15,-.829813,.192836,0.0*
1,1,.1524,-.829813,.192836*
20,1,.1524,-.829813,.192836,-.792836,.229813,0.0*
1,1,.1524,-.792836,.229813*
20,1,.1524,-.792836,.229813,-.75,.259808,0.0*
1,1,.1524,-.75,.259808*
20,1,.1524,-.75,.259808,-.702606,.281908,0.0*
1,1,.1524,-.702606,.281908*
20,1,.1524,-.702606,.281908,-.652094,.295442,0.0*
1,1,.1524,-.652094,.295442*
20,1,.1524,-.652094,.295442,-.6,.3,0.0*
1,1,.1524,-.6,.3*
1,1,.1524,-.15,-.15*
20,1,.1524,-.15,-.15,-.19,-.145,0.0*
1,1,.1524,-.19,-.145*
20,1,.1524,-.19,-.145,-.225,-.125,0.0*
1,1,.1524,-.225,-.125*
20,1,.1524,-.225,-.125,-.255,-.095,0.0*
1,1,.1524,-.255,-.095*
20,1,.1524,-.255,-.095,-.275,-.06,0.0*
1,1,.1524,-.275,-.06*
20,1,.1524,-.275,-.06,-.285,-.02,0.0*
1,1,.1524,-.285,-.02*
20,1,.1524,-.285,-.02,-.285,.02,0.0*
1,1,.1524,-.285,.02*
20,1,.1524,-.285,.02,-.275,.06,0.0*
1,1,.1524,-.275,.06*
20,1,.1524,-.275,.06,-.255,.095,0.0*
1,1,.1524,-.255,.095*
20,1,.1524,-.255,.095,-.225,.125,0.0*
1,1,.1524,-.225,.125*
20,1,.1524,-.225,.125,-.19,.145,0.0*
1,1,.1524,-.19,.145*
20,1,.1524,-.19,.145,-.15,.15,0.0*
1,1,.1524,-.15,.15*
20,1,.1524,-.15,.15,-.11,.145,0.0*
1,1,.1524,-.11,.145*
20,1,.1524,-.11,.145,-.075,.125,0.0*
1,1,.1524,-.075,.125*
20,1,.1524,-.075,.125,-.045,.095,0.0*
1,1,.1524,-.045,.095*
20,1,.1524,-.045,.095,-.025,.06,0.0*
1,1,.1524,-.025,.06*
20,1,.1524,-.025,.06,-.015,.02,0.0*
1,1,.1524,-.015,.02*
20,1,.1524,-.015,.02,-.015,-.02,0.0*
1,1,.1524,-.015,-.02*
20,1,.1524,-.015,-.02,-.025,-.06,0.0*
1,1,.1524,-.025,-.06*
20,1,.1524,-.025,-.06,-.045,-.095,0.0*
1,1,.1524,-.045,-.095*
20,1,.1524,-.045,-.095,-.075,-.125,0.0*
1,1,.1524,-.075,-.125*
20,1,.1524,-.075,-.125,-.11,-.145,0.0*
1,1,.1524,-.11,-.145*
20,1,.1524,-.11,-.145,-.15,-.15,0.0*
1,1,.1524,-.15,-.15*
1,1,.1524,.1901,.01*
20,1,.1524,.1901,.01,.2101,.025,0.0*
1,1,.1524,.2101,.025*
20,1,.1524,.2101,.025,.2251,.05,0.0*
1,1,.1524,.2251,.05*
20,1,.1524,.2251,.05,.2351,.085,0.0*
1,1,.1524,.2351,.085*
20,1,.1524,.2351,.085,.2251,.115,0.0*
1,1,.1524,.2251,.115*
20,1,.1524,.2251,.115,.2051,.135,0.0*
1,1,.1524,.2051,.135*
20,1,.1524,.2051,.135,.1701,.15,0.0*
1,1,.1524,.1701,.15*
20,1,.1524,.1701,.15,.0351,.15,0.0*
1,1,.1524,.0351,.15*
20,1,.1524,.0351,.15,.0351,-.15,0.0*
1,1,.1524,.0351,-.15*
20,1,.1524,.0351,-.15,.2001,-.15,0.0*
1,1,.1524,.2001,-.15*
20,1,.1524,.2001,-.15,.2351,-.13,0.0*
1,1,.1524,.2351,-.13*
20,1,.1524,.2351,-.13,.2551,-.1,0.0*
1,1,.1524,.2551,-.1*
20,1,.1524,.2551,-.1,.2651,-.065,0.0*
1,1,.1524,.2651,-.065*
20,1,.1524,.2651,-.065,.2551,-.03,0.0*
1,1,.1524,.2551,-.03*
20,1,.1524,.2551,-.03,.2251,0.0,0.0*
1,1,.1524,.2251,0.0*
20,1,.1524,.2251,0.0,.1901,.01,0.0*
1,1,.1524,.1901,.01*
20,1,.1524,.1901,.01,.0351,.01,0.0*
1,1,.1524,.0351,.01*
%
%ADD11MACRO11*%
%ADD12C,.1*%
%ADD13C,.1524*%
G75*
%LPD*%
G75*
G54D10*
X14790000Y1388000D03*
Y2512000D03*
X17711730Y1692500D03*
G54D11*
X15190000Y1388000D03*
Y2512000D03*
X17711730Y1057500D03*
G54D12*
G01X0Y0D02*
X15200000D01*
G03X15400000Y200000I0J200000D01*
G01Y4000000D01*
X200000D01*
G03X0Y3800000I0J-200000D01*
G01Y0D01*
G54D13*
G01X-446800Y1834750D02*
Y2025250D01*
X-534520Y1888730D01*
X-415980D01*
G01X-284750Y2025250D02*
X-303720Y2018900D01*
X-317940Y2003020D01*
X-327420Y1983980D01*
X-334530Y1958570D01*
X-336900Y1930000D01*
X-334530Y1901420D01*
X-327420Y1876020D01*
X-317940Y1856970D01*
X-303720Y1841100D01*
X-284750Y1834750D01*
X-265790Y1841100D01*
X-251560Y1856970D01*
X-242080Y1876020D01*
X-234970Y1901420D01*
X-232600Y1930000D01*
X-234970Y1958570D01*
X-242080Y1983980D01*
X-251560Y2003020D01*
X-265790Y2018900D01*
X-284750Y2025250D01*
G01X7209500Y-495250D02*
Y-304750D01*
X7181050Y-342850D01*
G01Y-495250D02*
X7237940D01*
G01X7347850Y-466680D02*
X7362070Y-482550D01*
X7378660Y-492080D01*
X7400000Y-495250D01*
X7421340Y-488900D01*
X7437930Y-476200D01*
X7449780Y-453980D01*
X7452150Y-428580D01*
X7447410Y-403180D01*
X7435560Y-387300D01*
X7418960Y-374600D01*
X7402370Y-371430D01*
X7385780Y-374600D01*
X7364440Y-387300D01*
X7371550Y-304750D01*
X7435560D01*
G01X7618950Y-495250D02*
Y-304750D01*
X7531230Y-441270D01*
X7649770D01*
G01X-250000Y0D02*
X-630000D01*
G01X-380000Y1684260D02*
Y0D01*
G01X-442500Y400000D02*
X-380000Y0D01*
X-317500Y400000D01*
X-442500D01*
G01X-380000Y2175740D02*
Y4000000D01*
G01X-317500Y3600000D02*
X-380000Y4000000D01*
X-442500Y3600000D01*
X-317500D01*
G01X-10000Y4000000D02*
X-630000D01*
G01X0Y-250000D02*
Y-650000D01*
G01X6987890Y-400000D02*
X0D01*
G01X400000Y-337500D02*
X0Y-400000D01*
X400000Y-462500D01*
Y-337500D01*
G01X7812110Y-400000D02*
X15400000D01*
G01Y-50000D02*
Y-650000D01*
G01X15000000Y-462500D02*
X15400000Y-400000D01*
X15000000Y-337500D01*
Y-462500D01*
G01X16570000Y740000D02*
Y3930000D01*
X29168400D01*
Y740000D01*
X16570000D01*
G01Y1375000D02*
X29168400D01*
G01X16570000Y2010000D02*
X29168400D01*
G01X16570000Y2645000D02*
X29168400D01*
G01X16570000Y3280000D02*
X29168400D01*
G01X16849520Y2168750D02*
Y2486250D01*
X16999140D01*
G01X16944010Y2332800D02*
X16849520D01*
G01X17192050Y2486250D02*
X17286530D01*
G01X17239290D02*
Y2168750D01*
G01X17192050D02*
X17286530D01*
G01X17577870Y2327500D02*
X17656620D01*
Y2232250D01*
X17632990Y2200490D01*
X17605430Y2179330D01*
X17566060Y2168750D01*
X17526690Y2179330D01*
X17499130Y2200490D01*
X17475510Y2232250D01*
X17459760Y2269290D01*
X17451880Y2311620D01*
Y2348670D01*
X17459760Y2380410D01*
X17475510Y2417460D01*
X17499130Y2449210D01*
X17522750Y2470370D01*
X17554250Y2486250D01*
X17581810D01*
X17613300Y2475670D01*
X17636930Y2454500D01*
G01X17782600Y2486250D02*
Y2258710D01*
X17798340Y2211070D01*
X17829840Y2179330D01*
X17869210Y2168750D01*
X17908580Y2179330D01*
X17940080Y2211070D01*
X17955820Y2258710D01*
Y2486250D01*
G01X18105430Y2168750D02*
Y2486250D01*
X18203850D01*
X18235350Y2470370D01*
X18255040Y2449210D01*
X18262910Y2406870D01*
X18255040Y2364540D01*
X18231410Y2338090D01*
X18203850Y2322200D01*
X18105430D01*
G01X18203850D02*
X18262910Y2168750D01*
G01X18577870D02*
X18420390D01*
Y2486250D01*
X18577870D01*
G01X18514880Y2332800D02*
X18420390D01*
G01X18518810Y2803750D02*
X18617240Y3121250D01*
X18715670Y2803750D01*
G01X18680230Y2914870D02*
X18554240D01*
G01X18853460Y3121250D02*
Y2803750D01*
X19010940D01*
G01X19168420Y3121250D02*
Y2803750D01*
X19325900D01*
G01X19790470Y3121250D02*
Y2893710D01*
X19806210Y2846070D01*
X19837710Y2814330D01*
X19877080Y2803750D01*
X19916450Y2814330D01*
X19947950Y2846070D01*
X19963690Y2893710D01*
Y3121250D01*
G01X20101490Y2803750D02*
Y3121250D01*
X20282590Y2803750D01*
Y3121250D01*
G01X20459760D02*
X20554240D01*
G01X20507000D02*
Y2803750D01*
G01X20459760D02*
X20554240D01*
G01X20821960Y3121250D02*
Y2803750D01*
G01X20731410Y3121250D02*
X20912510D01*
G01X21054240Y2846070D02*
X21085740Y2819620D01*
X21121170Y2803750D01*
X21152670D01*
X21184160Y2819620D01*
X21207790Y2846070D01*
X21219600Y2883130D01*
X21211730Y2920160D01*
X21192040Y2951910D01*
X21156600Y2973090D01*
X21109360Y2983670D01*
X21081800Y3004830D01*
X21069990Y3041870D01*
X21077870Y3078920D01*
X21097550Y3105370D01*
X21125110Y3121250D01*
X21152670D01*
X21180230Y3110670D01*
X21203850Y3084210D01*
G01X21668410Y2803750D02*
X21766840Y3121250D01*
X21865270Y2803750D01*
G01X21829830Y2914870D02*
X21703840D01*
G01X22003060Y2803750D02*
Y3121250D01*
X22101480D01*
X22132980Y3105370D01*
X22152670Y3084210D01*
X22160540Y3041870D01*
X22152670Y2999540D01*
X22129040Y2973090D01*
X22101480Y2957200D01*
X22003060D01*
G01X22101480D02*
X22160540Y2803750D01*
G01X22475500D02*
X22318020D01*
Y3121250D01*
X22475500D01*
G01X22412510Y2967800D02*
X22318020D01*
G01X22979440Y3121250D02*
X23073920D01*
G01X23026680D02*
Y2803750D01*
G01X22979440D02*
X23073920D01*
G01X23251090D02*
Y3121250D01*
X23432190Y2803750D01*
Y3121250D01*
G01X23869190Y2803750D02*
Y3121250D01*
X23971560Y2856670D01*
X24073930Y3121250D01*
Y2803750D01*
G01X24239280Y3121250D02*
X24333760D01*
G01X24286520D02*
Y2803750D01*
G01X24239280D02*
X24333760D01*
G01X24522740Y3121250D02*
Y2803750D01*
X24680220D01*
G01X24837700Y3121250D02*
Y2803750D01*
X24995180D01*
G01X25184160Y3121250D02*
X25278640D01*
G01X25231400D02*
Y2803750D01*
G01X25184160D02*
X25278640D01*
G01X25443990D02*
Y3121250D01*
X25546360Y2856670D01*
X25648730Y3121250D01*
Y2803750D01*
G01X25940060D02*
X25782580D01*
Y3121250D01*
X25940060D01*
G01X25877070Y2967800D02*
X25782580D01*
G01X26176280Y3121250D02*
Y2803750D01*
G01X26085730Y3121250D02*
X26266830D01*
G01X26569980Y2803750D02*
X26412500D01*
Y3121250D01*
X26569980D01*
G01X26506990Y2967800D02*
X26412500D01*
G01X26727460Y2803750D02*
Y3121250D01*
X26825880D01*
X26857380Y3105370D01*
X26877070Y3084210D01*
X26884940Y3041870D01*
X26877070Y2999540D01*
X26853440Y2973090D01*
X26825880Y2957200D01*
X26727460D01*
G01X26825880D02*
X26884940Y2803750D01*
G01X27038480Y2846070D02*
X27069980Y2819620D01*
X27105410Y2803750D01*
X27136910D01*
X27168400Y2819620D01*
X27192030Y2846070D01*
X27203840Y2883130D01*
X27195970Y2920160D01*
X27176280Y2951910D01*
X27140840Y2973090D01*
X27093600Y2983670D01*
X27066040Y3004830D01*
X27054230Y3041870D01*
X27062110Y3078920D01*
X27081790Y3105370D01*
X27109350Y3121250D01*
X27136910D01*
X27164470Y3110670D01*
X27188090Y3084210D01*
G01X18853460Y2645000D02*
Y740000D01*
G01X18845590Y3453750D02*
Y3771250D01*
X18924320D01*
X18955820Y3755370D01*
X18979440Y3734210D01*
X18999130Y3702460D01*
X19014880Y3665410D01*
X19018810Y3612500D01*
X19014880Y3559580D01*
X18999130Y3522540D01*
X18979440Y3490780D01*
X18955820Y3469620D01*
X18924320Y3453750D01*
X18845590D01*
G01X19168420D02*
Y3771250D01*
X19266840D01*
X19298340Y3755370D01*
X19318030Y3734210D01*
X19325900Y3691870D01*
X19318030Y3649540D01*
X19294400Y3623090D01*
X19266840Y3607200D01*
X19168420D01*
G01X19266840D02*
X19325900Y3453750D01*
G01X19514880Y3771250D02*
X19609360D01*
G01X19562120D02*
Y3453750D01*
G01X19514880D02*
X19609360D01*
G01X19798340Y3771250D02*
Y3453750D01*
X19955820D01*
G01X20113300Y3771250D02*
Y3453750D01*
X20270780D01*
G01X20908570Y3744790D02*
X20884950Y3760670D01*
X20857400Y3771250D01*
X20825900D01*
X20790460Y3755370D01*
X20762910Y3728920D01*
X20743220Y3697160D01*
X20727470Y3644250D01*
X20723530Y3596620D01*
X20731410Y3549000D01*
X20743220Y3517250D01*
X20766840Y3485490D01*
X20794400Y3464330D01*
X20821960Y3453750D01*
X20849520D01*
X20877080Y3464330D01*
X20900700Y3480200D01*
X20920390Y3501360D01*
G01X21054240Y3453750D02*
Y3771250D01*
G01X21219600D02*
Y3453750D01*
G01Y3612500D02*
X21054240D01*
G01X21353450Y3453750D02*
X21451880Y3771250D01*
X21550310Y3453750D01*
G01X21514870Y3564870D02*
X21388880D01*
G01X21688100Y3453750D02*
Y3771250D01*
X21786520D01*
X21818020Y3755370D01*
X21837710Y3734210D01*
X21845580Y3691870D01*
X21837710Y3649540D01*
X21814080Y3623090D01*
X21786520Y3607200D01*
X21688100D01*
G01X21786520D02*
X21845580Y3453750D01*
G01X22081800Y3771250D02*
Y3453750D01*
G01X21991250Y3771250D02*
X22172350D01*
G01X22396760Y3443170D02*
X22388880Y3448460D01*
Y3459040D01*
X22396760Y3464330D01*
X22404640Y3459040D01*
Y3448460D01*
X22396760Y3443170D01*
G01Y3586030D02*
X22388880Y3591330D01*
Y3601910D01*
X22396760Y3607200D01*
X22404640Y3601910D01*
Y3591330D01*
X22396760Y3586030D01*
G01X23026680Y3771250D02*
Y3453750D01*
G01X22936130Y3771250D02*
X23117230D01*
G01X23341640Y3453750D02*
X23310140Y3459040D01*
X23282590Y3480200D01*
X23258960Y3511960D01*
X23243210Y3549000D01*
X23235340Y3591330D01*
Y3633670D01*
X23243210Y3676000D01*
X23258960Y3713040D01*
X23282590Y3744790D01*
X23310140Y3765960D01*
X23341640Y3771250D01*
X23373130Y3765960D01*
X23400690Y3744790D01*
X23424320Y3713040D01*
X23440070Y3676000D01*
X23447940Y3633670D01*
Y3591330D01*
X23440070Y3549000D01*
X23424320Y3511960D01*
X23400690Y3480200D01*
X23373130Y3459040D01*
X23341640Y3453750D01*
G01X23577860D02*
Y3771250D01*
X23672350D01*
X23703840Y3755370D01*
X23727470Y3718330D01*
X23735340Y3676000D01*
X23727470Y3633670D01*
X23707780Y3601910D01*
X23672350Y3586030D01*
X23577860D01*
G01X24286520Y3771250D02*
Y3453750D01*
G01X24231400Y3665410D02*
X24341640D01*
G01X24601480Y3453750D02*
X24577860Y3459040D01*
X24554240Y3480200D01*
X24538480Y3517250D01*
X24530610Y3559580D01*
X24538480Y3601910D01*
X24554240Y3638960D01*
X24577860Y3660120D01*
X24601480Y3665410D01*
X24625100Y3660120D01*
X24648720Y3638960D01*
X24664470Y3601910D01*
X24668410Y3559580D01*
X24664470Y3517250D01*
X24648720Y3480200D01*
X24625100Y3459040D01*
X24601480Y3453750D01*
G01X25262890Y3623090D02*
X25278640Y3638960D01*
X25290450Y3665410D01*
X25298330Y3702460D01*
X25290450Y3734210D01*
X25274710Y3755370D01*
X25247150Y3771250D01*
X25140850D01*
Y3453750D01*
X25270770D01*
X25298330Y3474910D01*
X25314080Y3506670D01*
X25321950Y3543710D01*
X25314080Y3580740D01*
X25290450Y3612500D01*
X25262890Y3623090D01*
X25140850D01*
G01X25546360Y3453750D02*
X25514860Y3459040D01*
X25487310Y3480200D01*
X25463680Y3511960D01*
X25447930Y3549000D01*
X25440060Y3591330D01*
Y3633670D01*
X25447930Y3676000D01*
X25463680Y3713040D01*
X25487310Y3744790D01*
X25514860Y3765960D01*
X25546360Y3771250D01*
X25577850Y3765960D01*
X25605410Y3744790D01*
X25629040Y3713040D01*
X25644790Y3676000D01*
X25652660Y3633670D01*
Y3591330D01*
X25644790Y3549000D01*
X25629040Y3511960D01*
X25605410Y3480200D01*
X25577850Y3459040D01*
X25546360Y3453750D01*
G01X25861320Y3771250D02*
Y3453750D01*
G01X25770770Y3771250D02*
X25951870D01*
G01X26176280D02*
Y3453750D01*
G01X26085730Y3771250D02*
X26266830D01*
G01X26491240Y3453750D02*
X26459740Y3459040D01*
X26432190Y3480200D01*
X26408560Y3511960D01*
X26392810Y3549000D01*
X26384940Y3591330D01*
Y3633670D01*
X26392810Y3676000D01*
X26408560Y3713040D01*
X26432190Y3744790D01*
X26459740Y3765960D01*
X26491240Y3771250D01*
X26522730Y3765960D01*
X26550290Y3744790D01*
X26573920Y3713040D01*
X26589670Y3676000D01*
X26597540Y3633670D01*
Y3591330D01*
X26589670Y3549000D01*
X26573920Y3511960D01*
X26550290Y3480200D01*
X26522730Y3459040D01*
X26491240Y3453750D01*
G01X26703830D02*
Y3771250D01*
X26806200Y3506670D01*
X26908570Y3771250D01*
Y3453750D01*
G01X19447940Y2168750D02*
Y2486250D01*
X19597560D01*
G01X19542430Y2332800D02*
X19447940D01*
G01X19790470Y2486250D02*
X19884950D01*
G01X19837710D02*
Y2168750D01*
G01X19790470D02*
X19884950D01*
G01X20062120D02*
Y2486250D01*
X20243220Y2168750D01*
Y2486250D01*
G01X20420390D02*
X20514870D01*
G01X20467630D02*
Y2168750D01*
G01X20420390D02*
X20514870D01*
G01X20699910Y2211070D02*
X20731410Y2184620D01*
X20766840Y2168750D01*
X20798340D01*
X20829830Y2184620D01*
X20853460Y2211070D01*
X20865270Y2248130D01*
X20857400Y2285160D01*
X20837710Y2316910D01*
X20802270Y2338090D01*
X20755030Y2348670D01*
X20727470Y2369830D01*
X20715660Y2406870D01*
X20723540Y2443920D01*
X20743220Y2470370D01*
X20770780Y2486250D01*
X20798340D01*
X20825900Y2475670D01*
X20849520Y2449210D01*
G01X21014870Y2168750D02*
Y2486250D01*
G01X21180230D02*
Y2168750D01*
G01Y2327500D02*
X21014870D01*
G01X21491250Y2168750D02*
X21333770D01*
Y2486250D01*
X21491250D01*
G01X21428260Y2332800D02*
X21333770D01*
G01X21640860Y2168750D02*
Y2486250D01*
X21719590D01*
X21751090Y2470370D01*
X21774710Y2449210D01*
X21794400Y2417460D01*
X21810150Y2380410D01*
X21814080Y2327500D01*
X21810150Y2274580D01*
X21794400Y2237540D01*
X21774710Y2205780D01*
X21751090Y2184620D01*
X21719590Y2168750D01*
X21640860D01*
G01X21924320Y2062920D02*
X22160540D01*
G01X22274710Y2211070D02*
X22306210Y2184620D01*
X22341640Y2168750D01*
X22373140D01*
X22404630Y2184620D01*
X22428260Y2211070D01*
X22440070Y2248130D01*
X22432200Y2285160D01*
X22412510Y2316910D01*
X22377070Y2338090D01*
X22329830Y2348670D01*
X22302270Y2369830D01*
X22290460Y2406870D01*
X22298340Y2443920D01*
X22318020Y2470370D01*
X22345580Y2486250D01*
X22373140D01*
X22400700Y2475670D01*
X22424320Y2449210D01*
G01X22625110Y2486250D02*
X22719590D01*
G01X22672350D02*
Y2168750D01*
G01X22625110D02*
X22719590D01*
G01X22912500Y2486250D02*
X23062120D01*
X22912500Y2168750D01*
X23062120D01*
G01X23381010D02*
X23223530D01*
Y2486250D01*
X23381010D01*
G01X23318020Y2332800D02*
X23223530D01*
G01X20467630Y898750D02*
Y1216250D01*
X20420390Y1152750D01*
G01Y898750D02*
X20514870D01*
G01X20782590Y888170D02*
X20774710Y893460D01*
Y904040D01*
X20782590Y909330D01*
X20790470Y904040D01*
Y893460D01*
X20782590Y888170D01*
G01X21097550Y898750D02*
X21125110Y904040D01*
X21156600Y919910D01*
X21176290Y946360D01*
X21184160Y983420D01*
X21176290Y1020450D01*
X21152670Y1052200D01*
X21117230Y1068090D01*
X21077870D01*
X21054240Y1078670D01*
X21034550Y1105120D01*
X21026680Y1142160D01*
X21038500Y1179210D01*
X21066050Y1205670D01*
X21097550Y1216250D01*
X21129040Y1205670D01*
X21156600Y1179210D01*
X21168420Y1142160D01*
X21160540Y1105120D01*
X21140860Y1078670D01*
X21117230Y1068090D01*
X21077870D01*
X21042430Y1052200D01*
X21018810Y1020450D01*
X21010940Y983420D01*
X21018810Y946360D01*
X21038500Y919910D01*
X21069990Y904040D01*
X21097550Y898750D01*
G01X21353460Y1110410D02*
X21471560Y898750D01*
G01Y1110410D02*
X21353460Y898750D01*
G01X21727470Y1216250D02*
X21695970Y1205670D01*
X21672350Y1179210D01*
X21656600Y1147460D01*
X21644790Y1105120D01*
X21640860Y1057500D01*
X21644790Y1009870D01*
X21656600Y967540D01*
X21672350Y935780D01*
X21695970Y909330D01*
X21727470Y898750D01*
X21758960Y909330D01*
X21782590Y935780D01*
X21798340Y967540D01*
X21810150Y1009870D01*
X21814080Y1057500D01*
X21810150Y1105120D01*
X21798340Y1147460D01*
X21782590Y1179210D01*
X21758960Y1205670D01*
X21727470Y1216250D01*
G01X22042430Y888170D02*
X22034550Y893460D01*
Y904040D01*
X22042430Y909330D01*
X22050310Y904040D01*
Y893460D01*
X22042430Y888170D01*
G01X22282580Y1031030D02*
X22310150Y1068090D01*
X22333770Y1089250D01*
X22365270Y1099830D01*
X22392830Y1089250D01*
X22412510Y1068090D01*
X22428260Y1036330D01*
X22432200Y999290D01*
X22428260Y967540D01*
X22412510Y935780D01*
X22388880Y909330D01*
X22361330Y898750D01*
X22329830Y909330D01*
X22302270Y941070D01*
X22286520Y988710D01*
X22282580Y1041620D01*
X22290460Y1110410D01*
X22302270Y1147460D01*
X22321950Y1184500D01*
X22349510Y1210960D01*
X22377070Y1216250D01*
X22404630Y1205670D01*
X22424320Y1179210D01*
G01X20467630Y1533750D02*
Y1851250D01*
X20420390Y1787750D01*
G01Y1533750D02*
X20514870D01*
G01X20782590Y1523170D02*
X20774710Y1528460D01*
Y1539040D01*
X20782590Y1544330D01*
X20790470Y1539040D01*
Y1528460D01*
X20782590Y1523170D01*
G01X21144790Y1533750D02*
Y1851250D01*
X20999120Y1623710D01*
X21195980D01*
G01X21353460Y1745410D02*
X21471560Y1533750D01*
G01Y1745410D02*
X21353460Y1533750D01*
G01X21727470Y1851250D02*
X21695970Y1840670D01*
X21672350Y1814210D01*
X21656600Y1782460D01*
X21644790Y1740120D01*
X21640860Y1692500D01*
X21644790Y1644870D01*
X21656600Y1602540D01*
X21672350Y1570780D01*
X21695970Y1544330D01*
X21727470Y1533750D01*
X21758960Y1544330D01*
X21782590Y1570780D01*
X21798340Y1602540D01*
X21810150Y1644870D01*
X21814080Y1692500D01*
X21810150Y1740120D01*
X21798340Y1782460D01*
X21782590Y1814210D01*
X21758960Y1840670D01*
X21727470Y1851250D01*
G01X22042430Y1523170D02*
X22034550Y1528460D01*
Y1539040D01*
X22042430Y1544330D01*
X22050310Y1539040D01*
Y1528460D01*
X22042430Y1523170D01*
G01X22282580Y1666030D02*
X22310150Y1703090D01*
X22333770Y1724250D01*
X22365270Y1734830D01*
X22392830Y1724250D01*
X22412510Y1703090D01*
X22428260Y1671330D01*
X22432200Y1634290D01*
X22428260Y1602540D01*
X22412510Y1570780D01*
X22388880Y1544330D01*
X22361330Y1533750D01*
X22329830Y1544330D01*
X22302270Y1576070D01*
X22286520Y1623710D01*
X22282580Y1676620D01*
X22290460Y1745410D01*
X22302270Y1782460D01*
X22321950Y1819500D01*
X22349510Y1845960D01*
X22377070Y1851250D01*
X22404630Y1840670D01*
X22424320Y1814210D01*
G01X23299730Y581250D02*
Y263750D01*
G01X23209180Y581250D02*
X23390280D01*
G01X23614690Y263750D02*
X23583190Y269040D01*
X23555640Y290200D01*
X23532010Y321960D01*
X23516260Y359000D01*
X23508390Y401330D01*
Y443670D01*
X23516260Y486000D01*
X23532010Y523040D01*
X23555640Y554790D01*
X23583190Y575960D01*
X23614690Y581250D01*
X23646180Y575960D01*
X23673740Y554790D01*
X23697370Y523040D01*
X23713120Y486000D01*
X23720990Y443670D01*
Y401330D01*
X23713120Y359000D01*
X23697370Y321960D01*
X23673740Y290200D01*
X23646180Y269040D01*
X23614690Y263750D01*
G01X23929650Y581250D02*
Y263750D01*
G01X23839100Y581250D02*
X24020200D01*
G01X24146180Y263750D02*
X24244610Y581250D01*
X24343040Y263750D01*
G01X24307600Y374870D02*
X24181610D01*
G01X24480830Y581250D02*
Y263750D01*
X24638310D01*
G01X25106810D02*
Y581250D01*
G01X25272170D02*
Y263750D01*
G01Y422500D02*
X25106810D01*
G01X25504450Y263750D02*
X25472950Y269040D01*
X25445400Y290200D01*
X25421770Y321960D01*
X25406020Y359000D01*
X25398150Y401330D01*
Y443670D01*
X25406020Y486000D01*
X25421770Y523040D01*
X25445400Y554790D01*
X25472950Y575960D01*
X25504450Y581250D01*
X25535940Y575960D01*
X25563500Y554790D01*
X25587130Y523040D01*
X25602880Y486000D01*
X25610750Y443670D01*
Y401330D01*
X25602880Y359000D01*
X25587130Y321960D01*
X25563500Y290200D01*
X25535940Y269040D01*
X25504450Y263750D01*
G01X25740670Y581250D02*
Y263750D01*
X25898150D01*
G01X26213110D02*
X26055630D01*
Y581250D01*
X26213110D01*
G01X26150120Y427800D02*
X26055630D01*
G01X26366650Y306070D02*
X26398150Y279620D01*
X26433580Y263750D01*
X26465080D01*
X26496570Y279620D01*
X26520200Y306070D01*
X26532010Y343130D01*
X26524140Y380160D01*
X26504450Y411910D01*
X26469010Y433090D01*
X26421770Y443670D01*
X26394210Y464830D01*
X26382400Y501870D01*
X26390280Y538920D01*
X26409960Y565370D01*
X26437520Y581250D01*
X26465080D01*
X26492640Y570670D01*
X26516260Y544210D01*
G01X26764290Y253170D02*
X26756410Y258460D01*
Y269040D01*
X26764290Y274330D01*
X26772170Y269040D01*
Y258460D01*
X26764290Y253170D01*
G01Y396030D02*
X26756410Y401330D01*
Y411910D01*
X26764290Y417200D01*
X26772170Y411910D01*
Y401330D01*
X26764290Y396030D01*
G01X23971560Y2645000D02*
Y740000D01*
G01X24719590Y898750D02*
Y1216250D01*
X24814080D01*
X24845570Y1200370D01*
X24869200Y1163330D01*
X24877070Y1121000D01*
X24869200Y1078670D01*
X24849510Y1046910D01*
X24814080Y1031030D01*
X24719590D01*
G01X25034550Y1216250D02*
Y898750D01*
X25192030D01*
G01X25329820D02*
X25428250Y1216250D01*
X25526680Y898750D01*
G01X25491240Y1009870D02*
X25365250D01*
G01X25743210Y1216250D02*
Y898750D01*
G01X25652660Y1216250D02*
X25833760D01*
G01X26136910Y898750D02*
X25979430D01*
Y1216250D01*
X26136910D01*
G01X26073920Y1062800D02*
X25979430D01*
G01X26286520Y898750D02*
Y1216250D01*
X26365250D01*
X26396750Y1200370D01*
X26420370Y1179210D01*
X26440060Y1147460D01*
X26455810Y1110410D01*
X26459740Y1057500D01*
X26455810Y1004580D01*
X26440060Y967540D01*
X26420370Y935780D01*
X26396750Y914620D01*
X26365250Y898750D01*
X26286520D01*
G01X24719590Y1533750D02*
Y1851250D01*
X24814080D01*
X24845570Y1835370D01*
X24869200Y1798330D01*
X24877070Y1756000D01*
X24869200Y1713670D01*
X24849510Y1681910D01*
X24814080Y1666030D01*
X24719590D01*
G01X25034550Y1851250D02*
Y1533750D01*
X25192030D01*
G01X25329820D02*
X25428250Y1851250D01*
X25526680Y1533750D01*
G01X25491240Y1644870D02*
X25365250D01*
G01X25743210Y1851250D02*
Y1533750D01*
G01X25652660Y1851250D02*
X25833760D01*
G01X26136910Y1533750D02*
X25979430D01*
Y1851250D01*
X26136910D01*
G01X26073920Y1697800D02*
X25979430D01*
G01X26286520Y1533750D02*
Y1851250D01*
X26365250D01*
X26396750Y1835370D01*
X26420370Y1814210D01*
X26440060Y1782460D01*
X26455810Y1745410D01*
X26459740Y1692500D01*
X26455810Y1639580D01*
X26440060Y1602540D01*
X26420370Y1570780D01*
X26396750Y1549620D01*
X26365250Y1533750D01*
X26286520D01*
G01X24719590Y2168750D02*
Y2486250D01*
X24814080D01*
X24845570Y2470370D01*
X24869200Y2433330D01*
X24877070Y2391000D01*
X24869200Y2348670D01*
X24849510Y2316910D01*
X24814080Y2301030D01*
X24719590D01*
G01X25034550Y2486250D02*
Y2168750D01*
X25192030D01*
G01X25329820D02*
X25428250Y2486250D01*
X25526680Y2168750D01*
G01X25491240Y2279870D02*
X25365250D01*
G01X25743210Y2486250D02*
Y2168750D01*
G01X25652660Y2486250D02*
X25833760D01*
G01X26136910Y2168750D02*
X25979430D01*
Y2486250D01*
X26136910D01*
G01X26073920Y2332800D02*
X25979430D01*
G01X26286520Y2168750D02*
Y2486250D01*
X26365250D01*
X26396750Y2470370D01*
X26420370Y2449210D01*
X26440060Y2417460D01*
X26455810Y2380410D01*
X26459740Y2327500D01*
X26455810Y2274580D01*
X26440060Y2237540D01*
X26420370Y2205780D01*
X26396750Y2184620D01*
X26365250Y2168750D01*
X26286520D01*
G01X27199900Y2645000D02*
Y740000D01*
G01X28231390Y263750D02*
Y581250D01*
X28085720Y353710D01*
X28282580D01*
G01X28109340Y1163330D02*
X28132970Y1195080D01*
X28160530Y1210960D01*
X28192030Y1216250D01*
X28231390Y1205670D01*
X28258960Y1179210D01*
X28266830Y1147460D01*
X28262890Y1115700D01*
X28247140Y1089250D01*
X28168400Y1036330D01*
X28132970Y999290D01*
X28109340Y946360D01*
X28101470Y898750D01*
X28266830D01*
G01X28109340Y1798330D02*
X28132970Y1830080D01*
X28160530Y1845960D01*
X28192030Y1851250D01*
X28231390Y1840670D01*
X28258960Y1814210D01*
X28266830Y1782460D01*
X28262890Y1750700D01*
X28247140Y1724250D01*
X28168400Y1671330D01*
X28132970Y1634290D01*
X28109340Y1581360D01*
X28101470Y1533750D01*
X28266830D01*
G01X27869190Y2168750D02*
X27837690Y2174040D01*
X27810140Y2195200D01*
X27786510Y2226960D01*
X27770760Y2264000D01*
X27762890Y2306330D01*
Y2348670D01*
X27770760Y2391000D01*
X27786510Y2428040D01*
X27810140Y2459790D01*
X27837690Y2480960D01*
X27869190Y2486250D01*
X27900680Y2480960D01*
X27928240Y2459790D01*
X27951870Y2428040D01*
X27967620Y2391000D01*
X27975490Y2348670D01*
Y2306330D01*
X27967620Y2264000D01*
X27951870Y2226960D01*
X27928240Y2195200D01*
X27900680Y2174040D01*
X27869190Y2168750D01*
G01X27900680Y2253420D02*
X27947930Y2168750D01*
G01X28184150Y2486250D02*
Y2168750D01*
G01X28093600Y2486250D02*
X28274700D01*
G01X28499110Y2168750D02*
Y2311620D01*
X28420370Y2486250D01*
G01X28577850D02*
X28499110Y2311620D01*
M02*
