G04 ================== begin FILE IDENTIFICATION RECORD ==================*
G04 Layout Name:  H:/WithRuler/HARDWARE/WITHRULER_V10A/PCB/WITHRULER_V10A.brd*
G04 Film Name:    TOP*
G04 File Format:  Gerber RS274X*
G04 File Origin:  Cadence Allegro 17.2-S045*
G04 Origin Date:  Tue Apr 09 16:34:01 2019*
G04 *
G04 Layer:  BOARD GEOMETRY/OUTLINE*
G04 Layer:  VIA CLASS/TOP*
G04 Layer:  PIN/TOP*
G04 Layer:  ETCH/TOP*
G04 *
G04 Offset:    (0.0000 0.0000)*
G04 Mirror:    No*
G04 Mode:      Positive*
G04 Rotation:  0*
G04 FullContactRelief:  No*
G04 UndefLineWidth:     0.1524*
G04 ================== end FILE IDENTIFICATION RECORD ====================*
%FSLAX55Y55*MOMM*%
%IR0*IPPOS*OFA0.00000B0.00000*MIA0B0*SFA1.00000B1.00000*%
%ADD32R,1.X.3*%
%ADD31R,.3X1.*%
%ADD44R,1.2X.3*%
%ADD24R,.6X1.*%
%ADD43R,1.2X.6*%
%ADD26R,1.4X.4*%
%ADD23R,1.1X.6*%
%ADD21R,1.6X.3*%
%ADD22R,1.5X.6*%
%ADD40C,.4*%
%ADD41C,.35*%
%ADD25R,2.032X.635*%
%ADD17R,.8X.8*%
%ADD42O,2.X1.2*%
%ADD19R,1.X1.2*%
%ADD45O,2.4X1.2*%
%ADD10R,2.2X1.1*%
%ADD29R,1.4X1.2*%
%ADD30R,1.X1.8*%
%ADD27R,1.8X2.*%
%ADD12R,1.X2.7*%
%ADD36R,2.4X2.4*%
%ADD13R,1.4X4.2*%
%ADD28R,1.6X1.5*%
%ADD15R,1.8X3.2*%
%ADD14R,2.X5.7*%
%ADD20R,1.4X2.8*%
%ADD16R,.5X.6*%
%ADD37R,1.6X2.7*%
%ADD18R,1.6X1.8*%
%ADD34R,.8X.25*%
%ADD11R,2.5X7.5*%
%ADD35R,.25X.8*%
%ADD33R,3.2X3.2*%
%ADD39R,4.2X4.2*%
%ADD38R,5.9X5.9*%
%ADD46C,.1*%
G75*
%LPD*%
G75*
G54D10*
X390000Y1011000D03*
Y1265000D03*
Y1519000D03*
Y1773000D03*
Y2027000D03*
Y2281000D03*
Y2535000D03*
Y2789000D03*
X1370000Y1011000D03*
Y1265000D03*
Y1773000D03*
Y1519000D03*
Y2281000D03*
Y2027000D03*
Y2535000D03*
Y2789000D03*
X2070000Y1019000D03*
Y1273000D03*
Y1527000D03*
Y1781000D03*
X3050000Y1019000D03*
Y1273000D03*
Y1781000D03*
Y1527000D03*
G54D11*
X2230000Y2620000D03*
X2890000D03*
G54D20*
X4891510Y2320000D03*
X5411510D03*
G54D12*
X3810000Y1150000D03*
X4070000D03*
G54D30*
X8615000Y2930000D03*
X8865000D03*
G54D21*
X5970000Y1015000D03*
Y1080000D03*
Y1145000D03*
Y1210000D03*
Y1275000D03*
Y1340000D03*
Y1405000D03*
X6530000D03*
Y1340000D03*
Y1275000D03*
Y1210000D03*
Y1145000D03*
Y1080000D03*
Y1015000D03*
G54D13*
X3745000Y1860000D03*
X4135000D03*
G54D40*
X11979970Y1299950D03*
X11899960D03*
X11979970Y1379960D03*
X11899960D03*
X11979970Y1459940D03*
X11899960D03*
X11979970Y1539960D03*
X11899960D03*
X11979970Y1619940D03*
X11899960D03*
X11979970Y1699950D03*
X11899960D03*
X11979970Y1779960D03*
X11899960D03*
X11979970Y1859940D03*
X11899960D03*
X11979970Y1939950D03*
X11899960D03*
X11979970Y2019940D03*
X11899960D03*
X11979970Y2099950D03*
X11899960D03*
X11979970Y2179960D03*
X11899960D03*
X11979970Y2259940D03*
X11899960D03*
X11979970Y2339950D03*
X11899960D03*
X11979970Y2419940D03*
X11899960D03*
X11979970Y2499950D03*
X11899960D03*
X12459950Y1299950D03*
X12379970D03*
X12059950D03*
X12459950Y1379960D03*
X12379970D03*
X12059950D03*
X12459950Y1459940D03*
X12379970D03*
X12059950D03*
X12459950Y1539960D03*
X12379970D03*
X12059950D03*
X12459950Y1619940D03*
X12379970D03*
X12059950D03*
X12459950Y1699950D03*
X12379970D03*
X12059950D03*
X12459950Y1779960D03*
X12379970D03*
X12059950D03*
X12459950Y1859940D03*
X12379970D03*
X12059950D03*
X12459950Y1939950D03*
X12379970D03*
X12059950D03*
X12459950Y2019940D03*
X12379970D03*
X12059950D03*
X12459950Y2099950D03*
X12379970D03*
X12059950D03*
X12459950Y2179960D03*
X12379970D03*
X12059950D03*
X12459950Y2259940D03*
X12379970D03*
X12059950D03*
X12459950Y2339950D03*
X12379970D03*
X12059950D03*
X12459950Y2419940D03*
X12379970D03*
X12059950D03*
X12459950Y2499950D03*
X12379970D03*
X12059950D03*
X12539960Y1299950D03*
Y1379960D03*
Y1459940D03*
Y1539960D03*
Y1619940D03*
Y1699950D03*
Y1779960D03*
Y1859940D03*
Y1939950D03*
Y2019940D03*
Y2099950D03*
Y2179960D03*
Y2259940D03*
Y2339950D03*
Y2419940D03*
Y2499950D03*
G54D22*
X5980000Y1669000D03*
Y1796000D03*
Y1923000D03*
Y2050000D03*
X6520000Y1796000D03*
Y1669000D03*
Y2050000D03*
Y1923000D03*
G54D31*
X9890000Y1040000D03*
X9840000D03*
X9790000D03*
X9740000D03*
X9690000D03*
Y1540000D03*
X9740000D03*
X9790000D03*
X9840000D03*
X9890000D03*
X9990000Y1040000D03*
X9940000D03*
Y1540000D03*
X9990000D03*
G54D14*
X3695000Y2700000D03*
X4185000D03*
G54D41*
X13300010Y1269990D03*
X13220000D03*
X13140010D03*
X13060000D03*
X12979990D03*
X13300010Y1350000D03*
X13220000D03*
X13140010D03*
X13060000D03*
X12979990D03*
X13300010Y1430010D03*
X13220000D03*
X13140010D03*
X13060000D03*
X12979990D03*
X13300010Y1510000D03*
X13220000D03*
X13140010D03*
X13060000D03*
X12979990D03*
X13300010Y1590010D03*
X13220000D03*
X13140010D03*
X13060000D03*
X12979990D03*
X13300010Y1669990D03*
X13220000D03*
X13140010D03*
X13060000D03*
X12979990D03*
X13300010Y1750000D03*
X13220000D03*
X13140010D03*
X13060000D03*
X12979990D03*
X13300010Y1830010D03*
X13220000D03*
X13140010D03*
X13060000D03*
X12979990D03*
X13300010Y1910000D03*
X13220000D03*
X13140010D03*
X13060000D03*
X12979990D03*
X13300010Y1990000D03*
X13220000D03*
X13140010D03*
X13060000D03*
X12979990D03*
X13300010Y2069990D03*
X13220000D03*
X13140010D03*
X13060000D03*
X12979990D03*
X13300010Y2150000D03*
X13220000D03*
X13140010D03*
X13060000D03*
X12979990D03*
X13300010Y2230010D03*
X13220000D03*
X13140010D03*
X13060000D03*
X12979990D03*
X13300010Y2309990D03*
X13220000D03*
X13140010D03*
X13060000D03*
X12979990D03*
X13300010Y2390000D03*
X13220000D03*
X13140010D03*
X13060000D03*
X12979990D03*
X13300010Y2469990D03*
X13220000D03*
X13140010D03*
X13060000D03*
X12979990D03*
X13300010Y2550000D03*
X13220000D03*
X13140010D03*
X13060000D03*
X12979990D03*
X13300010Y2630010D03*
X13220000D03*
X13140010D03*
X13060000D03*
X12979990D03*
X13700000Y1269990D03*
X13620000D03*
X13540010D03*
X13460000D03*
X13379990D03*
X13700000Y1350000D03*
X13620000D03*
X13540010D03*
X13460000D03*
X13379990D03*
X13700000Y1430010D03*
X13620000D03*
X13540010D03*
X13460000D03*
X13379990D03*
X13700000Y1510000D03*
X13620000D03*
X13540010D03*
X13460000D03*
X13379990D03*
X13700000Y1590010D03*
X13620000D03*
X13540010D03*
X13460000D03*
X13379990D03*
X13700000Y1669990D03*
X13620000D03*
X13540010D03*
X13460000D03*
X13379990D03*
X13700000Y1750000D03*
X13620000D03*
X13540010D03*
X13460000D03*
X13379990D03*
X13700000Y1830010D03*
X13620000D03*
X13540010D03*
X13460000D03*
X13379990D03*
X13700000Y1910000D03*
X13620000D03*
X13540010D03*
X13460000D03*
X13379990D03*
X13700000Y1990000D03*
X13620000D03*
X13540010D03*
X13460000D03*
X13379990D03*
X13700000Y2069990D03*
X13620000D03*
X13540010D03*
X13460000D03*
X13379990D03*
X13700000Y2150000D03*
X13620000D03*
X13540010D03*
X13460000D03*
X13379990D03*
X13700000Y2230010D03*
X13620000D03*
X13540010D03*
X13460000D03*
X13379990D03*
X13700000Y2309990D03*
X13620000D03*
X13540010D03*
X13460000D03*
X13379990D03*
X13700000Y2390000D03*
X13620000D03*
X13540010D03*
X13460000D03*
X13379990D03*
X13700000Y2469990D03*
X13620000D03*
X13540010D03*
X13460000D03*
X13379990D03*
X13700000Y2550000D03*
X13620000D03*
X13540010D03*
X13460000D03*
X13379990D03*
X13700000Y2630010D03*
X13620000D03*
X13540010D03*
X13460000D03*
X13379990D03*
X14100000Y1269990D03*
X14019990D03*
X13940010D03*
X13860000D03*
X13779990D03*
X14100000Y1350000D03*
X14019990D03*
X13940010D03*
X13860000D03*
X13779990D03*
X14100000Y1430010D03*
X14019990D03*
X13940010D03*
X13860000D03*
X13779990D03*
X14100000Y1510000D03*
X14019990D03*
X13940010D03*
X13860000D03*
X13779990D03*
X14100000Y1590010D03*
X14019990D03*
X13940010D03*
X13860000D03*
X13779990D03*
X14100000Y1669990D03*
X14019990D03*
X13940010D03*
X13860000D03*
X13779990D03*
X14100000Y1750000D03*
X14019990D03*
X13940010D03*
X13860000D03*
X13779990D03*
X14100000Y1830010D03*
X14019990D03*
X13940010D03*
X13860000D03*
X13779990D03*
X14100000Y1910000D03*
X14019990D03*
X13940010D03*
X13860000D03*
X13779990D03*
X14100000Y1990000D03*
X14019990D03*
X13940010D03*
X13860000D03*
X13779990D03*
X14100000Y2069990D03*
X14019990D03*
X13940010D03*
X13860000D03*
X13779990D03*
X14100000Y2150000D03*
X14019990D03*
X13940010D03*
X13860000D03*
X13779990D03*
X14100000Y2230010D03*
X14019990D03*
X13940010D03*
X13860000D03*
X13779990D03*
X14100000Y2309990D03*
X14019990D03*
X13940010D03*
X13860000D03*
X13779990D03*
X14100000Y2390000D03*
X14019990D03*
X13940010D03*
X13860000D03*
X13779990D03*
X14100000Y2469990D03*
X14019990D03*
X13940010D03*
X13860000D03*
X13779990D03*
X14100000Y2550000D03*
X14019990D03*
X13940010D03*
X13860000D03*
X13779990D03*
X14100000Y2630010D03*
X14019990D03*
X13940010D03*
X13860000D03*
X13779990D03*
X14340010Y1269990D03*
X14260000D03*
X14179990D03*
X14340010Y1350000D03*
X14260000D03*
X14179990D03*
X14340010Y1430010D03*
X14260000D03*
X14179990D03*
X14340010Y1510000D03*
X14260000D03*
X14179990D03*
X14340010Y1590010D03*
X14260000D03*
X14179990D03*
X14340010Y1669990D03*
X14260000D03*
X14179990D03*
X14340010Y1750000D03*
X14260000D03*
X14179990D03*
X14340010Y1830010D03*
X14260000D03*
X14179990D03*
X14340010Y1910000D03*
X14260000D03*
X14179990D03*
X14340010Y1990000D03*
X14260000D03*
X14179990D03*
X14340010Y2069990D03*
X14260000D03*
X14179990D03*
X14340010Y2150000D03*
X14260000D03*
X14179990D03*
X14340010Y2230010D03*
X14260000D03*
X14179990D03*
X14340010Y2309990D03*
X14260000D03*
X14179990D03*
X14340010Y2390000D03*
X14260000D03*
X14179990D03*
X14340010Y2469990D03*
X14260000D03*
X14179990D03*
X14340010Y2550000D03*
X14260000D03*
X14179990D03*
X14340010Y2630010D03*
X14260000D03*
X14179990D03*
G54D23*
X6120000Y2295000D03*
Y2390000D03*
Y2485000D03*
X6380000Y2295000D03*
Y2485000D03*
G54D32*
X9590000Y1140000D03*
Y1190000D03*
Y1240000D03*
Y1290000D03*
Y1340000D03*
Y1390000D03*
Y1440000D03*
X9685000Y2748150D03*
Y2798150D03*
Y2848150D03*
Y2898150D03*
Y2948150D03*
X10090000Y1390000D03*
Y1340000D03*
Y1290000D03*
Y1240000D03*
Y1190000D03*
Y1140000D03*
Y1440000D03*
X9995000Y2948150D03*
Y2898150D03*
Y2848150D03*
Y2798150D03*
Y2748150D03*
G54D33*
X9840000Y1290000D03*
G54D15*
X4831510Y2848150D03*
X5471510D03*
G54D42*
X14790000Y1388000D03*
Y2512000D03*
G54D24*
X6350000Y2728150D03*
X6150000D03*
X6250000Y2968150D03*
G54D34*
X9640000Y2045000D03*
Y2095000D03*
Y2145000D03*
Y2195000D03*
Y2245000D03*
Y2295000D03*
X10040000Y2245000D03*
Y2195000D03*
Y2145000D03*
Y2095000D03*
Y2045000D03*
Y2295000D03*
X10590000Y1074340D03*
Y1124340D03*
Y1174340D03*
Y1224340D03*
Y1274340D03*
Y1324340D03*
Y1374340D03*
Y1424340D03*
Y1474340D03*
Y1524340D03*
Y1574340D03*
Y1624340D03*
Y1674340D03*
Y1724340D03*
Y1774340D03*
Y1824340D03*
X10640000Y2235000D03*
Y2285000D03*
Y2335000D03*
Y2385000D03*
Y2435000D03*
Y2485000D03*
Y2535000D03*
Y2585000D03*
Y2635000D03*
Y2685000D03*
Y2735000D03*
Y2785000D03*
Y2835000D03*
Y2885000D03*
X11490000Y1424340D03*
Y1374340D03*
Y1324340D03*
Y1274340D03*
Y1224340D03*
Y1174340D03*
Y1124340D03*
Y1074340D03*
Y1824340D03*
Y1774340D03*
Y1724340D03*
Y1674340D03*
Y1624340D03*
Y1574340D03*
Y1524340D03*
Y1474340D03*
X11440000Y2235000D03*
Y2685000D03*
Y2635000D03*
Y2585000D03*
Y2535000D03*
Y2485000D03*
Y2435000D03*
Y2385000D03*
Y2335000D03*
Y2285000D03*
Y2885000D03*
Y2835000D03*
Y2785000D03*
Y2735000D03*
G54D16*
X5196510Y1000000D03*
X5106510D03*
G54D25*
X7020100Y1004840D03*
Y1385840D03*
Y1131840D03*
Y1258840D03*
Y1766840D03*
Y1639840D03*
Y1512840D03*
Y1893840D03*
X7959900Y1004840D03*
Y1385840D03*
Y1131840D03*
Y1258840D03*
Y1639840D03*
Y1766840D03*
Y1512840D03*
Y1893840D03*
G54D43*
X14660000Y1710000D03*
Y1630000D03*
Y2270000D03*
Y2190000D03*
G54D35*
X9915000Y1970000D03*
X9865000D03*
X9815000D03*
X9765000D03*
X9715000D03*
Y2370000D03*
X9765000D03*
X9815000D03*
X9865000D03*
X9915000D03*
X9965000Y1970000D03*
Y2370000D03*
X10765000Y999340D03*
X10715000D03*
X10665000D03*
Y1899340D03*
X10715000D03*
X10765000D03*
Y2160000D03*
X10715000D03*
Y2960000D03*
X10765000D03*
X11165000Y999340D03*
X11115000D03*
X11065000D03*
X11015000D03*
X10965000D03*
X10915000D03*
X10865000D03*
X10815000D03*
Y1899340D03*
X10865000D03*
X10915000D03*
X10965000D03*
X11015000D03*
X11065000D03*
X11115000D03*
X11165000D03*
Y2160000D03*
X11115000D03*
X11065000D03*
X11015000D03*
X10965000D03*
X10915000D03*
X10865000D03*
X10815000D03*
Y2960000D03*
X10865000D03*
X10915000D03*
X10965000D03*
X11015000D03*
X11065000D03*
X11115000D03*
X11165000D03*
X11415000Y999340D03*
X11365000D03*
X11315000D03*
X11265000D03*
X11215000D03*
Y1899340D03*
X11265000D03*
X11315000D03*
X11365000D03*
X11415000D03*
X11365000Y2160000D03*
X11315000D03*
X11265000D03*
X11215000D03*
Y2960000D03*
X11265000D03*
X11315000D03*
X11365000D03*
G54D17*
X5075310Y1250000D03*
X5227710D03*
G54D26*
X7190000Y2262500D03*
Y2327500D03*
Y2392500D03*
Y2457500D03*
Y2522500D03*
Y2587500D03*
Y2652500D03*
Y2717500D03*
Y2782500D03*
Y2847500D03*
Y2912500D03*
Y2977500D03*
X7790000Y2262500D03*
Y2652500D03*
Y2587500D03*
Y2522500D03*
Y2457500D03*
Y2392500D03*
Y2327500D03*
Y2977500D03*
Y2912500D03*
Y2847500D03*
Y2782500D03*
Y2717500D03*
G54D44*
X14660000Y1825000D03*
Y1775000D03*
Y2125000D03*
Y2075000D03*
Y2025000D03*
Y1975000D03*
Y1925000D03*
Y1875000D03*
G54D18*
X5291510Y1900000D03*
X5011510D03*
G54D36*
X9840000Y2170000D03*
G54D27*
X8486000Y1080000D03*
Y1500000D03*
X8994000Y1080000D03*
Y1500000D03*
G54D45*
X15190000Y1388000D03*
Y2512000D03*
G54D46*
G01X0Y0D02*
X15200000D01*
G03X15400000Y200000I0J200000D01*
G01Y4000000D01*
X200000D01*
G03X0Y3800000I0J-200000D01*
G01Y0D01*
G54D37*
X9840000Y2848150D03*
G54D28*
X8613000Y1850000D03*
Y2070000D03*
X8867000Y1850000D03*
Y2070000D03*
G54D19*
X5049910Y1550000D03*
X5253110D03*
G54D38*
X11040000Y2560000D03*
G54D29*
X8620000Y2385000D03*
Y2575000D03*
X8860000Y2385000D03*
Y2575000D03*
G54D39*
X11040000Y1449340D03*
M02*
